<svg width="51" height="38" viewBox="0 0 51 38" fill="none" xmlns="http://www.w3.org/2000/svg">
<path d="M25.1754 16.8283C28.8097 16.8283 31.7559 13.5986 31.7559 9.61461C31.7559 5.63058 28.8097 2.40088 25.1754 2.40088C21.5411 2.40088 18.595 5.63058 18.595 9.61461C18.595 13.5986 21.5411 16.8283 25.1754 16.8283Z" stroke="white" stroke-width="2" stroke-linecap="round" stroke-linejoin="round"/>
<path d="M36.7577 29.839C36.9193 30.3194 36.9837 30.8326 36.9466 31.343C36.9095 31.8534 36.7717 32.3489 36.5428 32.7952C36.3139 33.2416 35.9993 33.6281 35.6208 33.9281C35.2423 34.2281 34.8089 34.4344 34.3505 34.5327C31.3843 35.1452 28.3712 35.4423 25.3529 35.4196C22.3289 35.4475 19.3093 35.1578 16.3356 34.5544C15.8781 34.4547 15.4458 34.2474 15.0684 33.9469C14.691 33.6463 14.3776 33.2596 14.1497 32.8134C13.9218 32.3673 13.7849 31.8722 13.7484 31.3625C13.7119 30.8527 13.7767 30.3403 13.9383 29.8606L15.576 24.9397C15.8096 24.2375 16.1916 23.6059 16.6906 23.0965C17.1895 22.5871 17.7914 22.2144 18.4469 22.0088C20.6922 21.2997 23.0164 20.9357 25.3529 20.9272C27.6901 20.9272 30.0153 21.2914 32.259 22.0088C32.9116 22.2123 33.5106 22.5833 34.0064 23.0911C34.5022 23.5989 34.8806 24.2289 35.1101 24.9288L36.7577 29.839Z" stroke="white" stroke-width="2" stroke-linecap="round" stroke-linejoin="round"/>
<path d="M41.4441 18.3963C44.0867 18.3963 46.2289 16.0478 46.2289 13.1509C46.2289 10.2539 44.0867 7.90552 41.4441 7.90552C38.8014 7.90552 36.6592 10.2539 36.6592 13.1509C36.6592 16.0478 38.8014 18.3963 41.4441 18.3963Z" stroke="white" stroke-width="2" stroke-linecap="round" stroke-linejoin="round"/>
<path d="M39.5205 22.9498C39.8362 22.9498 40.1519 22.9498 40.5071 22.9498C42.1299 22.9519 43.7466 23.1698 45.3216 23.5987C45.7471 23.6974 46.1462 23.9017 46.4883 24.1961C46.8304 24.4905 47.1063 24.867 47.2947 25.2967L48.4391 28.1519C48.5342 28.454 48.564 28.776 48.5263 29.0929C48.4886 29.4097 48.3844 29.7125 48.2219 29.9777C48.0593 30.2429 47.8429 30.4632 47.5896 30.6211C47.3363 30.7791 47.0529 30.8705 46.7619 30.8882C45.0999 31.1737 43.4222 31.3363 41.7403 31.3749" stroke="white" stroke-width="2" stroke-linecap="round" stroke-linejoin="round"/>
<path d="M9.26217 18.3963C11.9048 18.3963 14.0471 16.0478 14.0471 13.1509C14.0471 10.2539 11.9048 7.90552 9.26217 7.90552C6.61956 7.90552 4.47729 10.2539 4.47729 13.1509C4.47729 16.0478 6.61956 18.3963 9.26217 18.3963Z" stroke="white" stroke-width="2" stroke-linecap="round" stroke-linejoin="round"/>
<path d="M11.1757 22.9498C10.8699 22.9498 10.5443 22.9498 10.1892 22.9498C8.56636 22.9527 6.9498 23.1706 5.37469 23.5987C4.94975 23.6989 4.55117 23.9038 4.20928 24.198C3.86739 24.4922 3.59117 24.868 3.40154 25.2967L2.26696 28.1519C2.16975 28.4539 2.1383 28.7767 2.17507 29.0944C2.21184 29.4121 2.31581 29.7159 2.47874 29.9818C2.64167 30.2476 2.85905 30.4679 3.11347 30.6253C3.36789 30.7827 3.65235 30.8727 3.94415 30.8882C5.60277 31.1745 7.27724 31.3371 8.95596 31.3749" stroke="white" stroke-width="2" stroke-linecap="round" stroke-linejoin="round"/>
</svg>
