<svg width="48" height="35" viewBox="0 0 48 35" fill="none" xmlns="http://www.w3.org/2000/svg">
<path d="M37.0534 34.9458C33.0052 34.9458 30.0724 33.5017 28.2548 30.6135C27.4286 29.3756 26.7677 27.849 26.272 26.0336C25.7763 24.2181 25.5285 22.3201 25.5285 20.3396C25.5285 16.0486 26.6025 12.1701 28.7505 8.70422C30.9811 5.23835 34.2445 2.51517 38.5405 0.534668L39.6559 2.76273C37.26 3.75298 35.1533 5.27961 33.3357 7.34262C31.6008 9.40564 30.5681 11.5099 30.2376 13.6555C29.9897 14.6457 29.8658 15.5947 29.8658 16.5024C29.8658 17.3276 29.9897 18.1116 30.2376 18.8543C32.0552 16.8738 34.451 15.8835 37.4252 15.8835C40.3168 15.8835 42.6714 16.75 44.4889 18.4829C46.3065 20.1333 47.2153 22.4439 47.2153 25.4146C47.2153 28.2204 46.2652 30.5309 44.365 32.3464C42.4648 34.0793 40.0276 34.9458 37.0534 34.9458ZM11.525 34.9458C7.47678 34.9458 4.5439 33.5017 2.72634 30.6135C1.90018 29.3756 1.23925 27.849 0.743547 26.0336C0.247849 24.2181 0 22.3201 0 20.3396C0 16.0486 1.07401 12.1701 3.22204 8.70422C5.45268 5.23835 8.71603 2.51517 13.0121 0.534668L14.1274 2.76273C11.7315 3.75298 9.62481 5.27961 7.80725 7.34262C6.0723 9.40564 5.0396 11.5099 4.70913 13.6555C4.46128 14.6457 4.33736 15.5947 4.33736 16.5024C4.33736 17.3276 4.46128 18.1116 4.70913 18.8543C6.52669 16.8738 8.92257 15.8835 11.8968 15.8835C14.7883 15.8835 17.1429 16.75 18.9605 18.4829C20.778 20.1333 21.6868 22.4439 21.6868 25.4146C21.6868 28.2204 20.7367 30.5309 18.8365 32.3464C16.9364 34.0793 14.4992 34.9458 11.525 34.9458Z" fill="#0068E5"/>
</svg>
