<svg width="48" height="35" viewBox="0 0 48 35" fill="none" xmlns="http://www.w3.org/2000/svg">
<path d="M37.5534 34.9458C33.5052 34.9458 30.5724 33.5017 28.7548 30.6135C27.9286 29.3756 27.2677 27.849 26.772 26.0336C26.2763 24.2181 26.0285 22.3201 26.0285 20.3396C26.0285 16.0486 27.1025 12.1701 29.2505 8.70422C31.4811 5.23835 34.7445 2.51517 39.0405 0.534668L40.1559 2.76273C37.76 3.75298 35.6533 5.27961 33.8357 7.34262C32.1008 9.40564 31.0681 11.5099 30.7376 13.6555C30.4897 14.6457 30.3658 15.5947 30.3658 16.5024C30.3658 17.3276 30.4897 18.1116 30.7376 18.8543C32.5552 16.8738 34.951 15.8835 37.9252 15.8835C40.8168 15.8835 43.1714 16.75 44.9889 18.4829C46.8065 20.1333 47.7153 22.4439 47.7153 25.4146C47.7153 28.2204 46.7652 30.5309 44.865 32.3464C42.9648 34.0793 40.5276 34.9458 37.5534 34.9458ZM12.025 34.9458C7.97678 34.9458 5.0439 33.5017 3.22634 30.6135C2.40018 29.3756 1.73925 27.849 1.24355 26.0336C0.747849 24.2181 0.5 22.3201 0.5 20.3396C0.5 16.0486 1.57401 12.1701 3.72204 8.70422C5.95268 5.23835 9.21603 2.51517 13.5121 0.534668L14.6274 2.76273C12.2315 3.75298 10.1248 5.27961 8.30725 7.34262C6.5723 9.40564 5.5396 11.5099 5.20913 13.6555C4.96128 14.6457 4.83736 15.5947 4.83736 16.5024C4.83736 17.3276 4.96128 18.1116 5.20913 18.8543C7.02669 16.8738 9.42257 15.8835 12.3968 15.8835C15.2883 15.8835 17.6429 16.75 19.4605 18.4829C21.278 20.1333 22.1868 22.4439 22.1868 25.4146C22.1868 28.2204 21.2367 30.5309 19.3365 32.3464C17.4364 34.0793 14.9992 34.9458 12.025 34.9458Z" fill="#E53935"/>
</svg>
