<svg width="48" height="36" viewBox="0 0 48 36" fill="none" xmlns="http://www.w3.org/2000/svg">
<path d="M37.5534 35.2056C33.5052 35.2056 30.5724 33.7614 28.7548 30.8732C27.9286 29.6354 27.2677 28.1088 26.772 26.2933C26.2763 24.4779 26.0285 22.5799 26.0285 20.5994C26.0285 16.3083 27.1025 12.4299 29.2505 8.96398C31.4811 5.49812 34.7445 2.77493 39.0405 0.794434L40.1559 3.02249C37.76 4.01274 35.6533 5.53938 33.8357 7.60239C32.1008 9.66541 31.0681 11.7697 30.7376 13.9152C30.4897 14.9055 30.3658 15.8545 30.3658 16.7622C30.3658 17.5874 30.4897 18.3713 30.7376 19.114C32.5552 17.1335 34.951 16.1433 37.9252 16.1433C40.8168 16.1433 43.1714 17.0097 44.9889 18.7427C46.8065 20.3931 47.7153 22.7037 47.7153 25.6744C47.7153 28.4801 46.7652 30.7907 44.865 32.6061C42.9648 34.3391 40.5276 35.2056 37.5534 35.2056ZM12.025 35.2056C7.97678 35.2056 5.0439 33.7614 3.22634 30.8732C2.40018 29.6354 1.73925 28.1088 1.24355 26.2933C0.747849 24.4779 0.5 22.5799 0.5 20.5994C0.5 16.3083 1.57401 12.4299 3.72204 8.96398C5.95268 5.49812 9.21603 2.77493 13.5121 0.794434L14.6274 3.02249C12.2315 4.01274 10.1248 5.53938 8.30725 7.60239C6.5723 9.66541 5.5396 11.7697 5.20913 13.9152C4.96128 14.9055 4.83736 15.8545 4.83736 16.7622C4.83736 17.5874 4.96128 18.3713 5.20913 19.114C7.02669 17.1335 9.42257 16.1433 12.3968 16.1433C15.2883 16.1433 17.6429 17.0097 19.4605 18.7427C21.278 20.3931 22.1868 22.7037 22.1868 25.6744C22.1868 28.4801 21.2367 30.7907 19.3365 32.6061C17.4364 34.3391 14.9992 35.2056 12.025 35.2056Z" fill="white"/>
</svg>
