<svg width="6" height="11" viewBox="0 0 6 11" fill="none" xmlns="http://www.w3.org/2000/svg">
<path fill-rule="evenodd" clip-rule="evenodd" d="M5.8079 0.481303C5.87995 0.556364 5.92008 0.655659 5.92008 0.758858C5.92008 0.862057 5.87995 0.961352 5.8079 1.03641L1.53221 5.23939L5.8079 9.44237C5.87415 9.50887 5.91449 9.59615 5.92187 9.68894C5.92924 9.78172 5.90318 9.87411 5.84824 9.94991L5.8079 9.99749C5.73114 10.0706 5.62842 10.1116 5.52151 10.1116C5.4146 10.1116 5.31188 10.0706 5.23512 9.99749L0.669003 5.50902C0.619262 5.46078 0.583123 5.40066 0.564127 5.33456L0.564127 5.23939C0.571391 5.14699 0.611353 5.06001 0.67707 4.99356L5.24319 0.481303C5.31859 0.408652 5.41996 0.367958 5.52554 0.367958C5.63113 0.367958 5.7325 0.408652 5.8079 0.481303Z" fill="#1F1F1F"/>
</svg>
