<svg width="529" height="662" viewBox="0 0 529 662" fill="none" xmlns="http://www.w3.org/2000/svg">
<path d="M190.979 731.434C430.951 606.289 480.077 444.456 427.404 313.906C390.071 221.39 260.845 185.151 236.499 70.6409C215.509 -28.1001 271.134 -102.861 349.295 -164.759" stroke="white" stroke-width="5" stroke-miterlimit="10"/>
<path d="M269.938 896.434C509.911 771.289 559.037 609.456 506.364 478.906C469.024 386.362 339.805 350.151 315.459 235.641C294.469 136.9 350.094 62.1388 428.255 0.240814" stroke="white" stroke-width="5" stroke-miterlimit="10"/>
<path d="M219.356 852.431C459.328 727.281 508.457 565.458 455.782 434.903C418.449 342.388 289.223 306.148 264.877 191.638C243.887 92.897 299.512 18.1358 377.673 -43.7622" stroke="white" stroke-width="5" stroke-miterlimit="10"/>
<ellipse rx="9.32117" ry="9.31129" transform="matrix(0.999619 -0.0275838 -0.027128 -0.999632 475.282 549.412)" fill="#FF9100"/>
<ellipse rx="17.1841" ry="17.1659" transform="matrix(0.999619 -0.0275843 -0.0271275 -0.999632 456.475 629.119)" fill="#0068E5"/>
<ellipse rx="16.0558" ry="16.0387" transform="matrix(0.999619 -0.0275838 -0.027128 -0.999632 308.748 22.7167)" fill="#EC407A"/>
</svg>
