<svg width="6" height="11" viewBox="0 0 6 11" fill="none" xmlns="http://www.w3.org/2000/svg">
<path fill-rule="evenodd" clip-rule="evenodd" d="M0.1921 9.99819C0.120052 9.92313 0.079919 9.82383 0.079919 9.72063C0.079919 9.61744 0.120052 9.51814 0.1921 9.44308L4.46779 5.2401L0.192099 1.03712C0.125849 0.970626 0.0855043 0.883344 0.0781298 0.790556C0.0707553 0.697767 0.0968207 0.605386 0.151762 0.529587L0.192099 0.482007C0.26886 0.408852 0.371575 0.367942 0.478489 0.367942C0.585404 0.367942 0.68812 0.408852 0.764881 0.482007L5.331 4.97047C5.38074 5.01872 5.41688 5.07883 5.43587 5.14494L5.43587 5.2401C5.42861 5.3325 5.38865 5.41948 5.32293 5.48593L0.756813 9.99819C0.681413 10.0708 0.580039 10.1115 0.474457 10.1115C0.368874 10.1115 0.267501 10.0708 0.1921 9.99819Z" fill="#1F1F1F"/>
</svg>
