<svg width="9" height="16" viewBox="0 0 9 16" fill="none" xmlns="http://www.w3.org/2000/svg">
<path fill-rule="evenodd" clip-rule="evenodd" d="M0.528344 15.6531C0.416097 15.5362 0.353574 15.3815 0.353574 15.2207C0.353574 15.0599 0.416097 14.9052 0.528343 14.7883L7.18958 8.24034L0.528343 1.69239C0.425129 1.5888 0.362275 1.45282 0.350786 1.30826C0.339297 1.1637 0.379905 1.01978 0.465501 0.901689L0.528343 0.827561C0.647931 0.713591 0.807954 0.649857 0.97452 0.649857C1.14109 0.649857 1.30111 0.713591 1.4207 0.827561L8.5344 7.82029C8.6119 7.89545 8.6682 7.98911 8.69779 8.09209L8.69779 8.24034C8.68647 8.3843 8.62422 8.51981 8.52183 8.62334L1.40813 15.6531C1.29066 15.7663 1.13273 15.8297 0.968237 15.8297C0.803747 15.8297 0.645813 15.7663 0.528344 15.6531Z" fill="white"/>
</svg>
