<svg width="9" height="16" viewBox="0 0 9 16" fill="none" xmlns="http://www.w3.org/2000/svg">
<path fill-rule="evenodd" clip-rule="evenodd" d="M0.22622 15.0138C0.113973 14.8969 0.0514496 14.7422 0.0514496 14.5814C0.0514496 14.4207 0.113973 14.266 0.226219 14.149L6.88746 7.60106L0.226219 1.05311C0.123005 0.949515 0.0601512 0.813536 0.0486622 0.668978C0.0371732 0.52442 0.0777814 0.380495 0.163377 0.262406L0.226219 0.188279C0.345807 0.0743084 0.50583 0.0105743 0.672396 0.0105743C0.838961 0.0105743 0.998986 0.0743084 1.11857 0.188279L8.23228 7.18101C8.30977 7.25616 8.36607 7.34982 8.39567 7.45281L8.39567 7.60106C8.38435 7.74502 8.32209 7.88053 8.21971 7.98406L1.10601 15.0138C0.988536 15.127 0.830604 15.1904 0.666113 15.1904C0.501623 15.1904 0.343689 15.127 0.22622 15.0138Z" fill="#1F1F1F"/>
</svg>
