<svg width="11" height="18" viewBox="0 0 11 18" fill="none" xmlns="http://www.w3.org/2000/svg">
<path d="M1.31875 16.9651L1.32551 16.9722L1.33254 16.979C1.54406 17.1828 1.82669 17.2955 2.11936 17.2955C2.41203 17.2955 2.69466 17.1828 2.90618 16.979L2.90621 16.979L2.9107 16.9745L10.0244 9.94475L10.0244 9.94477L10.0285 9.94069C10.2131 9.75395 10.3267 9.50808 10.3474 9.2453L10.3489 9.22573L10.3489 9.20611L10.3489 9.05786L10.3489 8.98744L10.3295 8.91976C10.2758 8.73286 10.174 8.56377 10.0351 8.42853C10.0346 8.42807 10.0341 8.4276 10.0336 8.42714L2.92233 1.43676L2.92237 1.43671L2.91677 1.43138C2.70334 1.22797 2.41947 1.11562 2.12564 1.11562C1.83182 1.11562 1.54794 1.22797 1.33452 1.43138L1.31527 1.44972L1.29808 1.47L1.23523 1.54413L1.22294 1.55863L1.21179 1.57401C1.0568 1.78784 0.982505 2.04972 1.00348 2.31364C1.02445 2.57752 1.13911 2.82423 1.32527 3.01106L1.32525 3.01108L1.32896 3.01473L7.62746 9.20611L1.32896 15.3975L1.32378 15.4026L1.31875 15.4078C1.11795 15.617 1.0047 15.8955 1.0047 16.1865C1.0047 16.4775 1.11795 16.7559 1.31875 16.9651Z" fill="white" stroke="white"/>
</svg>
