<svg width="32" height="33" viewBox="0 0 32 33" fill="none" xmlns="http://www.w3.org/2000/svg">
<mask id="mask0_1725_2567" style="mask-type:alpha" maskUnits="userSpaceOnUse" x="0" y="0" width="32" height="33">
<path fill-rule="evenodd" clip-rule="evenodd" d="M16 0.441406C24.837 0.441406 32 7.60481 32 16.4414C32 25.278 24.837 32.4414 16 32.4414C7.163 32.4414 0 25.278 0 16.4414C0 7.60481 7.163 0.441406 16 0.441406Z" fill="white"/>
</mask>
<g mask="url(#mask0_1725_2567)">
<path fill-rule="evenodd" clip-rule="evenodd" d="M-5 -4.55859H37V37.4414H-5V-4.55859Z" fill="white"/>
</g>
<mask id="mask1_1725_2567" style="mask-type:alpha" maskUnits="userSpaceOnUse" x="8" y="9" width="16" height="15">
<path fill-rule="evenodd" clip-rule="evenodd" d="M24 11.5396C23.561 12.2231 23.005 12.8228 22.363 13.3035C22.369 13.4488 22.372 13.597 22.372 13.7452C22.372 18.2491 19.07 23.4414 13.032 23.4414C11.179 23.4414 9.453 22.8768 8 21.9115C8.256 21.9427 8.518 21.9583 8.783 21.9583C10.321 21.9583 11.737 21.4132 12.86 20.4986C11.423 20.4723 10.212 19.4865 9.794 18.1331C9.994 18.173 10.2 18.1935 10.412 18.1935C10.711 18.1935 11.001 18.1535 11.277 18.0736C9.774 17.7616 8.642 16.3838 8.642 14.732V14.69C9.086 14.9436 9.593 15.0986 10.13 15.1152C9.249 14.5038 8.67 13.4605 8.67 12.2787C8.67 11.6546 8.831 11.0686 9.114 10.5635C10.734 12.6277 13.152 13.9831 15.88 14.1255C15.824 13.8759 15.796 13.6165 15.796 13.3493C15.796 11.4674 17.265 9.94141 19.077 9.94141C20.022 9.94141 20.876 10.3548 21.473 11.0169C22.222 10.8648 22.924 10.5811 23.559 10.191C23.313 10.9867 22.793 11.6546 22.115 12.0759C22.779 11.9939 23.412 11.8106 24 11.5396Z" fill="white"/>
</mask>
<g mask="url(#mask1_1725_2567)">
<path fill-rule="evenodd" clip-rule="evenodd" d="M3 3.44141H29V29.4414H3V3.44141Z" fill="#011226"/>
</g>
</svg>
