<svg width="165" height="37" viewBox="0 0 165 37" fill="none" xmlns="http://www.w3.org/2000/svg">
<path d="M153.35 8.42888V8.46821C151.697 7.29195 149.753 6.59335 147.729 6.44897C145.706 6.3046 143.682 6.72001 141.879 7.6497C140.076 8.57939 138.564 9.98746 137.508 11.7196C136.453 13.4517 135.894 15.441 135.894 17.4695C135.894 19.4979 136.453 21.4872 137.508 23.2193C138.564 24.9515 140.076 26.3595 141.879 27.2892C143.682 28.2189 145.706 28.6343 147.729 28.49C149.753 28.3456 151.697 27.647 153.35 26.4707V28.516H157.995V5.06201L153.35 8.42888ZM146.95 23.8826C145.693 23.8846 144.462 23.5168 143.412 22.8251C142.361 22.1333 141.538 21.1481 141.043 19.9919C140.548 18.8357 140.404 17.5596 140.628 16.3221C140.853 15.0847 141.436 13.9405 142.306 13.0319C143.175 12.1233 144.293 11.4904 145.519 11.2118C146.746 10.9331 148.027 11.0212 149.204 11.4649C150.38 11.9086 151.401 12.6884 152.138 13.7074C152.875 14.7264 153.297 15.9396 153.35 17.1961V17.7271C153.287 19.3824 152.585 20.949 151.392 22.0982C150.199 23.2473 148.607 23.8897 146.95 23.8905V23.8826Z" fill="#0068E5"/>
<path d="M134.616 28.5239V21.8452L125.412 28.5239H134.616Z" fill="#0068E5"/>
<path d="M165 0L160.339 3.37474V8.04351L164.996 4.65697L165 0Z" fill="#0068E5"/>
<path d="M160.339 10.95L160.331 28.5238H164.976L164.996 7.56348L160.339 10.95Z" fill="#0068E5"/>
<path d="M59.9861 6.43457C57.8017 6.43535 55.6665 7.08386 53.8507 8.2981C52.0349 9.51234 50.6199 11.2378 49.7847 13.2562C48.9494 15.2746 48.7315 17.4954 49.1584 19.6377C49.5853 21.78 50.6379 23.7476 52.1831 25.2916C53.7283 26.8357 55.6966 27.8869 57.8392 28.3123C59.9818 28.7377 62.2024 28.5182 64.2202 27.6815C66.2381 26.8448 67.9625 25.4286 69.1754 23.6119C70.3884 21.7952 71.0354 19.6596 71.0346 17.4752C71.0341 16.0248 70.7479 14.5887 70.1924 13.2489C69.6369 11.9091 68.8229 10.6919 67.7969 9.66667C66.771 8.64146 65.5532 7.82835 64.213 7.27378C62.8728 6.71922 61.4365 6.43405 59.9861 6.43457ZM59.9861 23.8904C58.7173 23.8904 57.477 23.5141 56.422 22.8092C55.3671 22.1043 54.5448 21.1024 54.0593 19.9302C53.5737 18.758 53.4467 17.4681 53.6942 16.2237C53.9417 14.9793 54.5527 13.8362 55.4499 12.939C56.3471 12.0419 57.4901 11.4309 58.7346 11.1833C59.979 10.9358 61.2688 11.0629 62.4411 11.5484C63.6133 12.0339 64.6152 12.8562 65.3201 13.9112C66.025 14.9661 66.4012 16.2064 66.4012 17.4752C66.4017 18.3178 66.2362 19.1523 65.914 19.9308C65.5917 20.7094 65.1192 21.4168 64.5234 22.0126C63.9276 22.6084 63.2202 23.0809 62.4417 23.4031C61.6631 23.7253 60.8287 23.8909 59.9861 23.8904Z" fill="#00204E"/>
<path d="M35.5527 6.43467C33.63 6.43402 31.7404 6.93534 30.0708 7.88903C28.4012 8.84272 27.0096 10.2157 26.0335 11.8723C25.0574 13.5288 24.5306 15.4115 24.5053 17.3341C24.4801 19.2567 24.9572 21.1526 25.8894 22.8342C26.8216 24.5158 28.1767 25.925 29.8207 26.9222C31.4646 27.9194 33.3404 28.4702 35.2624 28.5201C37.1845 28.57 39.0864 28.1172 40.7798 27.2066C42.4732 26.296 43.8996 24.959 44.9178 23.328L40.9059 21.0153C40.2567 21.9937 39.3512 22.775 38.2881 23.2737C37.225 23.7725 36.0454 23.9695 34.8779 23.8432C33.7105 23.717 32.6002 23.2724 31.6683 22.5579C30.7364 21.8434 30.0188 20.8867 29.5938 19.792H41.5431H46.3692C46.7174 18.1809 46.7005 16.5122 46.3196 14.9085C45.9387 13.3047 45.2036 11.8066 44.1681 10.5241C43.1327 9.24158 41.8232 8.20718 40.3358 7.49681C38.8483 6.78645 37.2207 6.41815 35.5724 6.41895L35.5527 6.43467ZM35.5527 11.0641C36.8457 11.0651 38.1082 11.457 39.1745 12.1885C40.2407 12.9199 41.0609 13.9566 41.5273 15.1626H29.5938C29.6568 14.9947 29.7276 14.8295 29.8062 14.667C30.331 13.5889 31.1478 12.6797 32.1637 12.0428C33.1795 11.4059 34.3537 11.0668 35.5527 11.0641Z" fill="#00204E"/>
<path d="M11.139 6.43458C8.81473 6.43108 6.54931 7.16511 4.66877 8.53101L2.89488 7.1937C2.72974 7.0716 2.52992 7.00546 2.32455 7.00491H0.0235986L0 36.5358H4.64517V26.4391C6.05551 27.4634 7.68826 28.1394 9.40991 28.4117C11.1316 28.684 12.8932 28.545 14.5508 28.006C16.2085 27.467 17.715 26.5433 18.9472 25.3105C20.1794 24.0776 21.1023 22.5706 21.6405 20.9127C22.1786 19.2549 22.3168 17.4931 22.0436 15.7716C21.7703 14.0501 21.0936 12.4177 20.0685 11.0079C19.0435 9.59807 17.6994 8.45088 16.146 7.66012C14.5926 6.86937 12.8742 6.45749 11.1311 6.45818L11.139 6.43458ZM11.139 23.8904C9.86985 23.8911 8.629 23.5155 7.57344 22.8109C6.51787 22.1063 5.69502 21.1044 5.20898 19.932C4.72295 18.7596 4.59558 17.4694 4.84298 16.2247C5.09039 14.9799 5.70144 13.8365 6.59885 12.9391C7.49626 12.0416 8.63969 11.4306 9.88448 11.1832C11.1293 10.9358 12.4195 11.0631 13.5918 11.5492C14.7642 12.0352 15.7661 12.8581 16.4707 13.9136C17.1753 14.9692 17.551 16.21 17.5502 17.4792C17.5502 18.3211 17.3844 19.1548 17.0622 19.9326C16.74 20.7105 16.2677 21.4172 15.6724 22.0126C15.077 22.6079 14.3703 23.0802 13.5924 23.4023C12.8146 23.7245 11.9809 23.8904 11.139 23.8904Z" fill="#00204E"/>
<path d="M84.4588 6.43457C82.1519 6.4328 79.9031 7.1581 78.0319 8.50741L76.2737 7.18189C76.1089 7.05929 75.9089 6.9931 75.7034 6.9931H73.3907L73.3671 36.524H78.0162V26.4627C79.4301 27.4778 81.0639 28.1444 82.7844 28.4081C84.5049 28.6717 86.2634 28.525 87.9164 27.9799C89.5694 27.4348 91.0702 26.5067 92.2964 25.2713C93.5225 24.0359 94.4394 22.5282 94.9721 20.8712C95.5048 19.2141 95.6383 17.4546 95.3617 15.7361C95.0852 14.0176 94.4064 12.3888 93.3807 10.9826C92.355 9.57631 91.0114 8.43237 89.4596 7.64405C87.9077 6.85574 86.1916 6.44535 84.451 6.44637L84.4588 6.43457ZM84.4588 23.8904C83.1897 23.8911 81.9489 23.5155 80.8933 22.8109C79.8377 22.1062 79.0149 21.1044 78.5288 19.932C78.0428 18.7596 77.9154 17.4694 78.1628 16.2247C78.4102 14.9799 79.0213 13.8365 79.9187 12.939C80.8161 12.0416 81.9596 11.4306 83.2043 11.1832C84.4491 10.9358 85.7393 11.0631 86.9117 11.5492C88.0841 12.0352 89.0859 12.858 89.7905 13.9136C90.4951 14.9692 90.8708 16.21 90.8701 17.4792C90.8701 18.3211 90.7042 19.1548 90.382 19.9326C90.0598 20.7105 89.5876 21.4172 88.9922 22.0126C88.3969 22.6079 87.6901 23.0801 86.9123 23.4023C86.1345 23.7245 85.3008 23.8904 84.4588 23.8904Z" fill="#00204E"/>
<path d="M126.686 19.8003C127.274 17.1138 126.841 14.3048 125.471 11.9201C124.102 9.53535 121.894 7.7456 119.278 6.89925C116.661 6.05289 113.823 6.21051 111.317 7.34143C108.81 8.47234 106.814 10.4956 105.717 13.0173C104.62 15.5391 104.501 18.3787 105.382 20.9836C106.264 23.5884 108.083 25.7719 110.486 27.1091C112.889 28.4462 115.704 28.8412 118.382 28.2173C121.06 27.5933 123.411 25.995 124.975 23.7335L121.227 21.0156C120.578 21.9943 119.673 22.7758 118.61 23.2747C117.547 23.7736 116.368 23.9707 115.201 23.8444C114.033 23.7182 112.923 23.2734 111.992 22.5588C111.06 21.8441 110.343 20.8871 109.919 19.7924H121.868L126.686 19.8003ZM115.889 11.0645C117.182 11.0655 118.445 11.4574 119.511 12.1888C120.577 12.9203 121.398 13.957 121.864 15.1629H109.919C109.982 14.9951 110.053 14.8299 110.131 14.6674C110.657 13.5875 111.475 12.6771 112.494 12.0401C113.512 11.403 114.688 11.065 115.889 11.0645Z" fill="#00204E"/>
<path d="M102.501 0H97.8516V28.524H102.501V0Z" fill="#00204E"/>
</svg>
