<svg xmlns="http://www.w3.org/2000/svg" width="2133.115" height="802.603" viewBox="0 0 2133.115 802.603">
  <g id="Group_Line" data-name="Group Line" transform="translate(148.557 -78.713)">
    <path id="Path_1" data-name="Path 1" d="M-343.53,802.32c70-359.55,261.24-485.66,451.11-467.62,134.55,12.79,231.46,166.46,389.55,153.92,136.34-10.82,212-111.79,262.24-237" transform="translate(196.445 78.71)" fill="none" stroke="#0a41aa" stroke-miterlimit="10" stroke-width="3"/>
    <path id="Path_2" data-name="Path 2" d="M-165.35,791.92c70-359.55,261.23-485.66,451.1-467.62C417.81,336.85,513.6,485.1,666.56,478.75" transform="translate(196.445 78.71)" fill="none" stroke="#0a41aa" stroke-miterlimit="10" stroke-width="3"/>
    <path id="Path_3" data-name="Path 3" d="M2.74,782.111c70-359.56,261.24-485.661,451.11-467.621C588.41,327.27,685.31,480.95,843.4,468.4" transform="translate(196.445 78.71)" fill="none" stroke="#0a41aa" stroke-miterlimit="10" stroke-width="3"/>
    <path id="Path_4" data-name="Path 4" d="M71.19,358.98a25.36,25.36,0,1,0-25.36-25.36A25.36,25.36,0,0,0,71.19,358.98Z" transform="translate(196.445 78.71)" fill="#cde6ff"/>
    <path id="Path_5" data-name="Path 5" d="M267.28,364.09a15.74,15.74,0,1,0-15.74-15.74A15.74,15.74,0,0,0,267.28,364.09Z" transform="translate(196.445 78.71)" fill="#00d9d3"/>
    <path id="Path_6" data-name="Path 6" d="M327.09,463.82a22.23,22.23,0,1,0-22.23-22.23A22.23,22.23,0,0,0,327.09,463.82Z" transform="translate(196.445 78.71)" fill="#ff9100"/>
    <path id="Path_7" data-name="Path 7" d="M422.24,332.6a19.67,19.67,0,1,0-19.67-19.67A19.671,19.671,0,0,0,422.24,332.6Z" transform="translate(196.445 78.71)" fill="#fff"/>
    <path id="Path_8" data-name="Path 8" d="M156.7,448.86a17.69,17.69,0,1,0-17.69-17.69A17.69,17.69,0,0,0,156.7,448.86Z" transform="translate(196.445 78.71)" fill="#fff"/>
    <path id="Path_9" data-name="Path 9" d="M399.12,493.54a18.43,18.43,0,1,0-18.43-18.43A18.43,18.43,0,0,0,399.12,493.54Z" transform="translate(196.445 78.71)" fill="#fff"/>
    <path id="Path_10" data-name="Path 10" d="M318.25,432.2h17.68a2.219,2.219,0,0,1,2.21,2.21v13.26a2.219,2.219,0,0,1-2.21,2.21H318.25a2.219,2.219,0,0,1-2.21-2.21V434.41a2.219,2.219,0,0,1,2.21-2.21Z" transform="translate(196.445 78.71)" fill="none" stroke="#fff" stroke-linecap="round" stroke-linejoin="round" stroke-width="1.5"/>
    <path id="Path_11" data-name="Path 11" d="M338.14,434.41l-11.05,7.73-11.05-7.73" transform="translate(196.445 78.71)" fill="none" stroke="#fff" stroke-linecap="round" stroke-linejoin="round" stroke-width="1.5"/>
    <path id="Path_12" data-name="Path 12" d="M414.74,305.55h15a1.88,1.88,0,0,1,1.87,1.88v11.24a1.872,1.872,0,0,1-1.87,1.88h-15a1.88,1.88,0,0,1-1.88-1.87V307.44a1.89,1.89,0,0,1,1.88-1.89Z" transform="translate(196.445 78.71)" fill="none" stroke="#0a41aa" stroke-linecap="round" stroke-linejoin="round" stroke-width="1.5"/>
    <path id="Path_13" data-name="Path 13" d="M431.61,307.45l-9.37,6.56-9.37-6.56" transform="translate(196.445 78.71)" fill="none" stroke="#0a41aa" stroke-linecap="round" stroke-linejoin="round" stroke-width="1.5"/>
    <path id="Path_14" data-name="Path 14" d="M448.17,412.87a16.52,16.52,0,1,0-16.52-16.52A16.52,16.52,0,0,0,448.17,412.87Z" transform="translate(196.445 78.71)" fill="#ec407a"/>
    <path id="Path_15" data-name="Path 15" d="M165.16,435.75v2.57a1.719,1.719,0,0,1-1.71,1.72h-.16a17.063,17.063,0,0,1-7.39-2.63,16.729,16.729,0,0,1-5.13-5.13,16.93,16.93,0,0,1-2.63-7.43,1.71,1.71,0,0,1,.909-1.671,1.716,1.716,0,0,1,.641-.189h2.72a1.711,1.711,0,0,1,1.71,1.47,11.159,11.159,0,0,0,.6,2.41,1.691,1.691,0,0,1-.38,1.8l-1.09,1.09a13.7,13.7,0,0,0,5.14,5.14l1.09-1.09a1.71,1.71,0,0,1,1.8-.39,11.188,11.188,0,0,0,2.41.6,1.709,1.709,0,0,1,1.47,1.73Z" transform="translate(196.445 78.71)" fill="none" stroke="#0a41aa" stroke-linecap="round" stroke-linejoin="round" stroke-width="1.5"/>
    <path id="Path_16" data-name="Path 16" d="M456.17,400.55V403a1.626,1.626,0,0,1-1,1.524,1.611,1.611,0,0,1-.628.126h-.15a16.389,16.389,0,0,1-14.48-14.52,1.621,1.621,0,0,1,.867-1.593,1.627,1.627,0,0,1,.613-.177h2.6a1.642,1.642,0,0,1,1.64,1.41,10.294,10.294,0,0,0,.57,2.3,1.641,1.641,0,0,1-.37,1.72l-1,1a13.069,13.069,0,0,0,4.91,4.91l1-1a1.652,1.652,0,0,1,1.73-.37,10.6,10.6,0,0,0,2.3.58,1.631,1.631,0,0,1,1.4,1.64Z" transform="translate(196.445 78.71)" fill="none" stroke="#fff" stroke-linecap="round" stroke-linejoin="round" stroke-width="1.5"/>
    <path id="Path_17" data-name="Path 17" d="M101.81,527.15a21.38,21.38,0,1,0-21.38-21.38A21.38,21.38,0,0,0,101.81,527.15Z" transform="translate(196.445 78.71)" fill="#1b5e1f"/>
    <path id="Path_18" data-name="Path 18" d="M84.62,544.44a6.29,6.29,0,1,0-6.29-6.29A6.29,6.29,0,0,0,84.62,544.44Z" transform="translate(196.445 78.71)" fill="#ec407a"/>
    <path id="Path_19" data-name="Path 19" d="M360.73,351.47a6.29,6.29,0,1,0-6.29-6.29A6.29,6.29,0,0,0,360.73,351.47Z" transform="translate(196.445 78.71)" fill="#cde6ff"/>
    <path id="Path_20" data-name="Path 20" d="M496.14,329.67a6.29,6.29,0,1,0-6.29-6.29A6.29,6.29,0,0,0,496.14,329.67Z" transform="translate(196.445 78.71)" fill="#cde6ff"/>
    <path id="Path_21" data-name="Path 21" d="M186.35,334.01a6.29,6.29,0,1,0-6.29-6.29A6.29,6.29,0,0,0,186.35,334.01Z" transform="translate(196.445 78.71)" fill="#fff"/>
    <path id="Path_22" data-name="Path 22" d="M109.8,496.65H93.82a2.28,2.28,0,0,0-2.28,2.28v15.98a2.28,2.28,0,0,0,2.28,2.28H109.8a2.28,2.28,0,0,0,2.28-2.28V498.93A2.28,2.28,0,0,0,109.8,496.65Z" transform="translate(196.445 78.71)" fill="none" stroke="#fff" stroke-linecap="round" stroke-linejoin="round" stroke-width="1.5"/>
    <path id="Path_23" data-name="Path 23" d="M106.38,494.36v4.57" transform="translate(196.445 78.71)" fill="none" stroke="#fff" stroke-linecap="round" stroke-linejoin="round" stroke-width="1.5"/>
    <path id="Path_24" data-name="Path 24" d="M97.25,494.36v4.57" transform="translate(196.445 78.71)" fill="none" stroke="#fff" stroke-linecap="round" stroke-linejoin="round" stroke-width="1.5"/>
    <path id="Path_25" data-name="Path 25" d="M91.54,503.49h20.54" transform="translate(196.445 78.71)" fill="none" stroke="#fff" stroke-linecap="round" stroke-linejoin="round" stroke-width="1.5"/>
    <path id="Path_26" data-name="Path 26" d="M99.33,507.57h4.96l-3.73,5.79" transform="translate(196.445 78.71)" fill="none" stroke="#fff" stroke-linecap="round" stroke-linejoin="round" stroke-width="1.5"/>
    <path id="Path_27" data-name="Path 27" d="M79.26,324.4H63.12a2.3,2.3,0,0,0-2.3,2.3v16.14a2.3,2.3,0,0,0,2.3,2.3H79.26a2.3,2.3,0,0,0,2.3-2.3V326.7A2.3,2.3,0,0,0,79.26,324.4Z" transform="translate(196.445 78.71)" fill="none" stroke="#0a41aa" stroke-linecap="round" stroke-linejoin="round" stroke-width="1.5"/>
    <path id="Path_28" data-name="Path 28" d="M75.8,322.09v4.61" transform="translate(196.445 78.71)" fill="none" stroke="#0a41aa" stroke-linecap="round" stroke-linejoin="round" stroke-width="1.5"/>
    <path id="Path_29" data-name="Path 29" d="M66.58,322.09v4.61" transform="translate(196.445 78.71)" fill="none" stroke="#0a41aa" stroke-linecap="round" stroke-linejoin="round" stroke-width="1.5"/>
    <path id="Path_30" data-name="Path 30" d="M60.82,331.311H81.56" transform="translate(196.445 78.71)" fill="none" stroke="#0a41aa" stroke-linecap="round" stroke-linejoin="round" stroke-width="1.5"/>
    <path id="Path_31" data-name="Path 31" d="M68.69,335.43h5l-3.76,5.85" transform="translate(196.445 78.71)" fill="none" stroke="#0a41aa" stroke-linecap="round" stroke-linejoin="round" stroke-width="1.5"/>
    <path id="Path_32" data-name="Path 32" d="M409.06,470.6l-6.32,4.52,6.32,4.51Z" transform="translate(196.445 78.71)" fill="none" stroke="#0a41aa" stroke-linecap="round" stroke-linejoin="round" stroke-width="1.5"/>
    <path id="Path_33" data-name="Path 33" d="M400.93,468.79H391a1.81,1.81,0,0,0-1.81,1.81v9.02a1.81,1.81,0,0,0,1.81,1.81h9.93a1.81,1.81,0,0,0,1.81-1.81V470.6A1.81,1.81,0,0,0,400.93,468.79Z" transform="translate(196.445 78.71)" fill="none" stroke="#0a41aa" stroke-linecap="round" stroke-linejoin="round" stroke-width="1.5"/>
    <path id="Path_34" data-name="Path 34" d="M276.41,344.2l-5.81,4.15,5.81,4.15Z" transform="translate(196.445 78.71)" fill="none" stroke="#fff" stroke-linecap="round" stroke-linejoin="round" stroke-width="1.5"/>
    <path id="Path_35" data-name="Path 35" d="M268.95,342.54h-9.13a1.66,1.66,0,0,0-1.66,1.66v8.3a1.66,1.66,0,0,0,1.66,1.66h9.13a1.66,1.66,0,0,0,1.66-1.66v-8.3A1.66,1.66,0,0,0,268.95,342.54Z" transform="translate(196.445 78.71)" fill="none" stroke="#fff" stroke-linecap="round" stroke-linejoin="round" stroke-width="1.5"/>
    <path id="Path_36" data-name="Path 36" d="M1786.64.29c-70,359.55-261.23,485.66-451.1,467.62-134.56-12.78-231.47-166.46-389.56-153.92-136.33,10.82-212,111.79-262.24,237" transform="translate(196.445 78.71)" fill="none" stroke="#0a41aa" stroke-miterlimit="10" stroke-width="3"/>
    <path id="Path_37" data-name="Path 37" d="M1786.64,780.99c-70-359.55-261.23-485.66-451.1-467.62-134.56,12.78-231.47,166.46-389.56,153.92-136.33-10.82-212-111.79-262.24-237" transform="translate(196.445 78.71)" fill="none" stroke="#0a41aa" stroke-miterlimit="10" stroke-width="3"/>
    <path id="Path_38" data-name="Path 38" d="M1608.47,10.69c-70,359.55-261.24,485.66-451.11,467.62-132-12.55-227.85-160.8-380.8-154.44" transform="translate(196.445 78.71)" fill="none" stroke="#0a41aa" stroke-miterlimit="10" stroke-width="3"/>
    <rect id="Rectangle_1" data-name="Rectangle 1" width="212" height="45" rx="6" transform="translate(1116.445 372.71)" fill="#fff"/>
    <path id="Path_39" data-name="Path 39" d="M998.816,310.88V322h-1.84v-8.336L993.76,322h-1.6l-3.232-8.336V322H987.1V310.88h2.208l3.68,8.88,3.616-8.88Zm10.324,2.3V322h-1.84v-1.92a2.937,2.937,0,0,1-1.17,1.52,3.528,3.528,0,0,1-1.94.528,3.215,3.215,0,0,1-2.46-.992,3.985,3.985,0,0,1-.93-2.832v-5.12h1.83v4.928a2.651,2.651,0,0,0,.6,1.856,2.2,2.2,0,0,0,1.67.64,2.275,2.275,0,0,0,1.74-.7,2.887,2.887,0,0,0,.66-2.048v-4.672Zm4.01-3.024V322h-1.83V310.16Zm6.64,10.256V322h-1.12a3.088,3.088,0,0,1-2.15-.672,3.039,3.039,0,0,1-.72-2.272v-4.32h-1.26v-1.552h1.26v-2.192h1.84v2.192h2.13v1.552h-2.13v4.352a1.53,1.53,0,0,0,.27,1.04,1.412,1.412,0,0,0,1,.288Zm1.45-9.792a1.027,1.027,0,0,1,.32-.768,1.326,1.326,0,0,1,1.69,0,.976.976,0,0,1,.34.768.929.929,0,0,1-.34.752,1.384,1.384,0,0,1-1.69,0A.976.976,0,0,1,1021.24,310.624Zm2.08,2.56V322h-1.83v-8.816Zm7.55,2.256v1.536h-6.59V315.44Zm10.01-4.736v1.472h-3.15V322h-1.84v-9.824h-3.13V310.7Zm6.29,2.336a3.222,3.222,0,0,1,2.47.992,3.982,3.982,0,0,1,.92,2.832V322h-1.82v-4.944a2.527,2.527,0,0,0-.61-1.824,2.148,2.148,0,0,0-1.66-.656,2.282,2.282,0,0,0-1.75.7,2.872,2.872,0,0,0-.65,2.032V322h-1.83V310.16h1.83v4.96a2.954,2.954,0,0,1,1.18-1.536A3.451,3.451,0,0,1,1047.17,313.04Zm7.35,1.872a3.387,3.387,0,0,1,1.28-1.36,3.617,3.617,0,0,1,1.92-.512v1.984h-.54a3,3,0,0,0-1.94.592,2.32,2.32,0,0,0-.72,1.92V322h-1.82v-8.816h1.82Zm12.76,2.256a4.5,4.5,0,0,1-.06.784h-6.79a2.8,2.8,0,0,0,.75,2.016,2.7,2.7,0,0,0,3.28.192,1.915,1.915,0,0,0,.79-1.232h1.95a3.753,3.753,0,0,1-.74,1.648,3.8,3.8,0,0,1-1.45,1.136,4.877,4.877,0,0,1-2,.4,4.642,4.642,0,0,1-2.27-.544A3.876,3.876,0,0,1,1059.2,320a5.458,5.458,0,0,1,0-4.816,3.877,3.877,0,0,1,1.54-1.568,4.642,4.642,0,0,1,2.27-.544,4.484,4.484,0,0,1,2.25.544,3.544,3.544,0,0,1,1.49,1.472A4.154,4.154,0,0,1,1067.28,317.168Zm-1.84-.048a2.67,2.67,0,0,0-.3-1.44,2.005,2.005,0,0,0-.9-.864,2.63,2.63,0,0,0-1.23-.288,2.548,2.548,0,0,0-1.79.656,2.713,2.713,0,0,0-.79,1.936Zm7.14-4.048a3.5,3.5,0,0,1,2.05.592,3.249,3.249,0,0,1,1.2,1.568v-2.048h1.82V322h-1.82v-2.048a3.249,3.249,0,0,1-1.2,1.568,3.5,3.5,0,0,1-2.05.592,3.969,3.969,0,0,1-2.07-.544,3.758,3.758,0,0,1-1.4-1.568,5.835,5.835,0,0,1,0-4.816,3.759,3.759,0,0,1,1.4-1.568A3.969,3.969,0,0,1,1072.58,313.072Zm.56,1.6a2.546,2.546,0,0,0-1.95.784,2.989,2.989,0,0,0-.72,2.128,3.048,3.048,0,0,0,.72,2.144,2.574,2.574,0,0,0,1.95.768,2.662,2.662,0,0,0,1.37-.352,2.549,2.549,0,0,0,.96-1.024,3.141,3.141,0,0,0,.36-1.536,3.108,3.108,0,0,0-.36-1.52,2.422,2.422,0,0,0-.96-1.024A2.578,2.578,0,0,0,1073.14,314.672Zm10.23-1.6a3.48,3.48,0,0,1,2.05.592,3.115,3.115,0,0,1,1.19,1.568V310.16h1.84V322h-1.84v-2.048a3.115,3.115,0,0,1-1.19,1.568,3.48,3.48,0,0,1-2.05.592,3.959,3.959,0,0,1-2.06-.544A3.713,3.713,0,0,1,1079.9,320a5.94,5.94,0,0,1,0-4.816,3.713,3.713,0,0,1,1.41-1.568A3.959,3.959,0,0,1,1083.37,313.072Zm.56,1.6a2.546,2.546,0,0,0-1.95.784,2.989,2.989,0,0,0-.72,2.128,3.048,3.048,0,0,0,.72,2.144,2.574,2.574,0,0,0,1.95.768,2.673,2.673,0,0,0,1.38-.352,2.55,2.55,0,0,0,.96-1.024,3.139,3.139,0,0,0,.35-1.536,3.1,3.1,0,0,0-.35-1.52,2.422,2.422,0,0,0-.96-1.024A2.589,2.589,0,0,0,1083.93,314.672Zm14.9,2.5a3.648,3.648,0,0,1-.07.784h-6.78a2.76,2.76,0,0,0,.75,2.016,2.7,2.7,0,0,0,3.28.192,1.916,1.916,0,0,0,.79-1.232h1.95a3.8,3.8,0,0,1-2.19,2.784,4.877,4.877,0,0,1-2,.4,4.653,4.653,0,0,1-2.28-.544,3.853,3.853,0,0,1-1.53-1.568,5.457,5.457,0,0,1,0-4.816,3.853,3.853,0,0,1,1.53-1.568,4.653,4.653,0,0,1,2.28-.544,4.484,4.484,0,0,1,2.25.544,3.6,3.6,0,0,1,1.49,1.472A4.154,4.154,0,0,1,1098.83,317.168Zm-1.84-.048a2.581,2.581,0,0,0-.31-1.44,1.937,1.937,0,0,0-.89-.864,2.689,2.689,0,0,0-1.23-.288,2.573,2.573,0,0,0-1.8.656,2.668,2.668,0,0,0-.78,1.936Zm7.13-4.048a3.48,3.48,0,0,1,2.05.592,3.115,3.115,0,0,1,1.19,1.568V310.16h1.84V322h-1.84v-2.048a3.115,3.115,0,0,1-1.19,1.568,3.48,3.48,0,0,1-2.05.592,3.959,3.959,0,0,1-2.06-.544,3.713,3.713,0,0,1-1.41-1.568,5.94,5.94,0,0,1,0-4.816,3.713,3.713,0,0,1,1.41-1.568A3.959,3.959,0,0,1,1104.12,313.072Zm.56,1.6a2.546,2.546,0,0,0-1.95.784,2.989,2.989,0,0,0-.72,2.128,3.048,3.048,0,0,0,.72,2.144,2.574,2.574,0,0,0,1.95.768,2.673,2.673,0,0,0,1.38-.352,2.55,2.55,0,0,0,.96-1.024,3.139,3.139,0,0,0,.35-1.536,3.1,3.1,0,0,0-.35-1.52,2.422,2.422,0,0,0-.96-1.024A2.589,2.589,0,0,0,1104.68,314.672Z" transform="translate(196.445 78.71)" fill="#333"/>
    <path id="Path_40" data-name="Path 40" d="M942.75,308.48a2.519,2.519,0,1,1,.189.968A2.536,2.536,0,0,1,942.75,308.48Zm2.52-4a4,4,0,1,0,2.828,1.172A4,4,0,0,0,945.27,304.48ZM942,314.3a4,4,0,0,0-4,4v1.64a.75.75,0,0,0,1.5,0V318.3a2.53,2.53,0,0,1,2.52-2.52h6.55a2.48,2.48,0,0,1,1.78.74,2.52,2.52,0,0,1,.74,1.78v1.64a.75.75,0,0,0,1.5,0V318.3a4,4,0,0,0-4-4Zm11.55.67a.724.724,0,0,1,.124-.265.751.751,0,0,1,.217-.2.74.74,0,0,1,.569-.079,4,4,0,0,1,3,3.89v1.64a.75.75,0,0,1-1.5,0v-1.64a2.53,2.53,0,0,0-1.89-2.44.731.731,0,0,1-.471-.359.728.728,0,0,1-.087-.291.712.712,0,0,1,.038-.3Zm-2.36-10.36a.759.759,0,0,0-.92.54.749.749,0,0,0,.54.91,2.524,2.524,0,0,1,1.37.9,2.493,2.493,0,0,1,.53,1.55,2.531,2.531,0,0,1-1.9,2.44.752.752,0,0,0-.579.623.753.753,0,0,0,.661.855.752.752,0,0,0,.3-.028,4,4,0,0,0,3-3.89,4.071,4.071,0,0,0-.84-2.47,4,4,0,0,0-2.16-1.47Z" transform="translate(196.445 78.71)" fill="#20a373" fill-rule="evenodd"/>
    <path id="Path_41" data-name="Path 41" d="M952.25,312.48a4,4,0,0,1,4-4h8a4,4,0,0,1,4,4v8a4,4,0,0,1-4,4h-8a4,4,0,0,1-4-4Z" transform="translate(196.445 78.71)" fill="#20a373"/>
    <path id="Path_42" data-name="Path 42" d="M962.3,314.76a.75.75,0,0,1,0-1.5h2.45a.762.762,0,0,1,.75.75v2.47a.75.75,0,0,1-1.5,0v-.65l-2.61,2.61a.748.748,0,0,1-1.06,0l-1.51-1.52-2.54,2.54a.75.75,0,0,1-1.06-1.06l3.07-3.07a.751.751,0,0,1,1.06,0l1.51,1.52,2.08-2.08Z" transform="translate(196.445 78.71)" fill="#e6ffef" fill-rule="evenodd"/>
    <rect id="Rectangle_2" data-name="Rectangle 2" width="268" height="45" rx="6" transform="translate(1232.445 521.71)" fill="#fff"/>
    <path id="Path_43" data-name="Path 43" d="M1107.99,465.736a2.786,2.786,0,0,1,1.65.976,2.7,2.7,0,0,1,.64,1.792,2.83,2.83,0,0,1-.94,2.24,4.09,4.09,0,0,1-2.74.816h-4.5v-11.3h4.42a3.876,3.876,0,0,1,2.59.768,2.541,2.541,0,0,1,.91,2.08,2.6,2.6,0,0,1-.56,1.744A2.709,2.709,0,0,1,1107.99,465.736Zm-4.06-.608h2.25a2.114,2.114,0,0,0,1.46-.448,1.575,1.575,0,0,0,.51-1.248,1.555,1.555,0,0,0-.51-1.232,2.213,2.213,0,0,0-1.52-.448h-2.19Zm2.3,4.928a2.429,2.429,0,0,0,1.6-.464,1.81,1.81,0,0,0,0-2.656,2.436,2.436,0,0,0-1.61-.48h-2.29v3.6Zm13.89-7.312v8.816h-1.84v-1.92a2.838,2.838,0,0,1-1.17,1.52,3.518,3.518,0,0,1-1.93.528,3.222,3.222,0,0,1-2.47-.992,4.028,4.028,0,0,1-.92-2.832v-5.12h1.82v4.928a2.609,2.609,0,0,0,.61,1.856,2.174,2.174,0,0,0,1.66.64,2.282,2.282,0,0,0,1.75-.7,2.931,2.931,0,0,0,.65-2.048v-4.672Zm3.23,0,2.64,6.48,2.45-6.48h2.03l-5.33,13.008h-2.03l1.9-4.4-3.71-8.608Zm16.51,3.984a3.656,3.656,0,0,1-.07.784h-6.78a2.76,2.76,0,0,0,.75,2.016,2.7,2.7,0,0,0,3.28.192,1.916,1.916,0,0,0,.79-1.232h1.95a3.753,3.753,0,0,1-.74,1.648,3.881,3.881,0,0,1-1.45,1.136,4.877,4.877,0,0,1-2,.4,4.68,4.68,0,0,1-2.28-.544,3.853,3.853,0,0,1-1.53-1.568,5.457,5.457,0,0,1,0-4.816,3.853,3.853,0,0,1,1.53-1.568,4.68,4.68,0,0,1,2.28-.544,4.484,4.484,0,0,1,2.25.544,3.6,3.6,0,0,1,1.49,1.472A4.153,4.153,0,0,1,1139.86,466.728Zm-1.84-.048a2.581,2.581,0,0,0-.31-1.44,1.936,1.936,0,0,0-.89-.864,2.659,2.659,0,0,0-1.23-.288,2.573,2.573,0,0,0-1.8.656,2.668,2.668,0,0,0-.78,1.936Zm5.42-2.208a3.389,3.389,0,0,1,1.28-1.36,3.618,3.618,0,0,1,1.92-.512v1.984h-.54a3,3,0,0,0-1.94.592,2.32,2.32,0,0,0-.72,1.92v4.464h-1.82v-8.816h1.82Zm10.14,2.7v4.384h-1.82v-11.3h3.84a4.11,4.11,0,0,1,2.93.928,3.319,3.319,0,0,1,.99,2.544,3.275,3.275,0,0,1-1.01,2.528,4.188,4.188,0,0,1-2.91.912Zm1.83-1.488q2.25,0,2.25-1.952a1.88,1.88,0,0,0-.54-1.456,2.39,2.39,0,0,0-1.71-.512h-1.83v3.92Zm13.9,1.04a4.5,4.5,0,0,1-.06.784h-6.79a2.8,2.8,0,0,0,.76,2.016,2.443,2.443,0,0,0,1.74.656,2.521,2.521,0,0,0,1.54-.464,1.941,1.941,0,0,0,.78-1.232h1.95a3.854,3.854,0,0,1-.73,1.648,3.917,3.917,0,0,1-1.46,1.136,4.844,4.844,0,0,1-2,.4,4.641,4.641,0,0,1-2.27-.544,3.876,3.876,0,0,1-1.54-1.568,5.458,5.458,0,0,1,0-4.816,3.877,3.877,0,0,1,1.54-1.568,4.641,4.641,0,0,1,2.27-.544,4.522,4.522,0,0,1,2.26.544,3.578,3.578,0,0,1,1.48,1.472A4.053,4.053,0,0,1,1169.31,466.728Zm-1.84-.048a2.67,2.67,0,0,0-.3-1.44,1.958,1.958,0,0,0-.9-.864,2.63,2.63,0,0,0-1.23-.288,2.548,2.548,0,0,0-1.79.656,2.714,2.714,0,0,0-.79,1.936Zm5.43-2.208a3.321,3.321,0,0,1,1.28-1.36,3.568,3.568,0,0,1,1.92-.512v1.984h-.55a2.975,2.975,0,0,0-1.93.592,2.32,2.32,0,0,0-.72,1.92v4.464h-1.83v-8.816h1.83Zm7.46-1.84a3.679,3.679,0,0,1,2.48.8,3.306,3.306,0,0,1,1.15,2.112h-1.73a1.8,1.8,0,0,0-.62-1.152,1.9,1.9,0,0,0-1.33-.448,1.574,1.574,0,0,0-1.07.336,1.092,1.092,0,0,0-.37.88.884.884,0,0,0,.27.672,1.9,1.9,0,0,0,.68.4,11.568,11.568,0,0,0,1.16.32,11.019,11.019,0,0,1,1.6.464,2.508,2.508,0,0,1,1.06.768,2.06,2.06,0,0,1,.45,1.408,2.216,2.216,0,0,1-.85,1.792,3.451,3.451,0,0,1-2.26.688,4.324,4.324,0,0,1-2.67-.768,3.142,3.142,0,0,1-1.21-2.144h1.77a1.678,1.678,0,0,0,.64,1.168,2.287,2.287,0,0,0,1.47.448,1.482,1.482,0,0,0,1.03-.336,1.162,1.162,0,0,0,.38-.88.937.937,0,0,0-.29-.736,1.884,1.884,0,0,0-.72-.416,8.524,8.524,0,0,0-1.18-.32,13.947,13.947,0,0,1-1.57-.448,2.556,2.556,0,0,1-1.02-.72,2.1,2.1,0,0,1-.42-1.376,2.244,2.244,0,0,1,.83-1.808A3.576,3.576,0,0,1,1180.36,462.632Zm9.59,0a4.816,4.816,0,0,1,2.3.544,3.839,3.839,0,0,1,1.6,1.568,5.288,5.288,0,0,1,0,4.816,3.838,3.838,0,0,1-1.6,1.568,4.816,4.816,0,0,1-2.3.544,4.884,4.884,0,0,1-2.31-.544,4.083,4.083,0,0,1-1.6-1.568,4.947,4.947,0,0,1-.57-2.416,4.857,4.857,0,0,1,.57-2.4,4.084,4.084,0,0,1,1.6-1.568A4.884,4.884,0,0,1,1189.95,462.632Zm0,1.584a2.714,2.714,0,0,0-1.3.32,2.452,2.452,0,0,0-.96.992,3.439,3.439,0,0,0-.35,1.616,3.476,3.476,0,0,0,.35,1.632,2.478,2.478,0,0,0,.96.976,2.714,2.714,0,0,0,1.3.32,2.647,2.647,0,0,0,1.29-.32,2.332,2.332,0,0,0,.95-.976,3.353,3.353,0,0,0,.37-1.632,3.318,3.318,0,0,0-.37-1.616,2.311,2.311,0,0,0-.95-.992A2.647,2.647,0,0,0,1189.95,464.216Zm11.16-1.616a3.2,3.2,0,0,1,2.46.992,3.985,3.985,0,0,1,.93,2.832v5.136h-1.82v-4.944a2.527,2.527,0,0,0-.61-1.824,2.162,2.162,0,0,0-1.66-.656,2.282,2.282,0,0,0-1.75.7,2.826,2.826,0,0,0-.65,2.032v4.688h-1.83v-8.816h1.83v1.936a2.954,2.954,0,0,1,1.18-1.536A3.405,3.405,0,0,1,1201.11,462.6Zm9.06.032a3.5,3.5,0,0,1,2.05.592,3.248,3.248,0,0,1,1.2,1.568v-2.048h1.82v8.816h-1.82v-2.048a3.248,3.248,0,0,1-1.2,1.568,3.5,3.5,0,0,1-2.05.592,3.934,3.934,0,0,1-2.06-.544,3.714,3.714,0,0,1-1.41-1.568,5.94,5.94,0,0,1,0-4.816,3.715,3.715,0,0,1,1.41-1.568A3.934,3.934,0,0,1,1210.17,462.632Zm.56,1.6a2.546,2.546,0,0,0-1.95.784,2.989,2.989,0,0,0-.72,2.128,3.048,3.048,0,0,0,.72,2.144,2.574,2.574,0,0,0,1.95.768,2.725,2.725,0,0,0,1.38-.352,2.693,2.693,0,0,0,.96-1.024,3.252,3.252,0,0,0,.35-1.536,3.218,3.218,0,0,0-.35-1.52,2.55,2.55,0,0,0-.96-1.024A2.639,2.639,0,0,0,1210.73,464.232Zm22.16-3.792v11.12h-1.84v-8.336l-3.21,8.336h-1.6l-3.23-8.336v8.336h-1.83V460.44h2.21l3.68,8.88,3.62-8.88Zm1.94-.256a1.027,1.027,0,0,1,.32-.768,1.2,1.2,0,0,1,.85-.3,1.182,1.182,0,0,1,.85.3,1,1,0,0,1,.33.768.951.951,0,0,1-.33.752,1.223,1.223,0,0,1-.85.288,1.24,1.24,0,0,1-.85-.288A.976.976,0,0,1,1234.83,460.184Zm2.08,2.56v8.816h-1.82v-8.816Zm5.11-.112a3.679,3.679,0,0,1,2.48.8,3.351,3.351,0,0,1,1.15,2.112h-1.73a1.842,1.842,0,0,0-.62-1.152,1.934,1.934,0,0,0-1.33-.448,1.556,1.556,0,0,0-1.07.336,1.092,1.092,0,0,0-.37.88.884.884,0,0,0,.27.672,1.854,1.854,0,0,0,.67.4q.42.144,1.17.32a11.417,11.417,0,0,1,1.6.464,2.508,2.508,0,0,1,1.06.768,2.108,2.108,0,0,1,.44,1.408,2.208,2.208,0,0,1-.84,1.792,3.452,3.452,0,0,1-2.26.688,4.325,4.325,0,0,1-2.67-.768,3.191,3.191,0,0,1-1.22-2.144h1.78a1.641,1.641,0,0,0,.64,1.168,2.268,2.268,0,0,0,1.47.448,1.439,1.439,0,0,0,1.02-.336,1.137,1.137,0,0,0,.39-.88.973.973,0,0,0-.29-.736,1.886,1.886,0,0,0-.72-.416,8.943,8.943,0,0,0-1.18-.32,13.34,13.34,0,0,1-1.57-.448,2.52,2.52,0,0,1-1.03-.72,2.158,2.158,0,0,1-.41-1.376,2.215,2.215,0,0,1,.83-1.808A3.539,3.539,0,0,1,1242.02,462.632Zm8.45,0a3.679,3.679,0,0,1,2.48.8,3.306,3.306,0,0,1,1.15,2.112h-1.73a1.8,1.8,0,0,0-.62-1.152,1.9,1.9,0,0,0-1.33-.448,1.556,1.556,0,0,0-1.07.336,1.092,1.092,0,0,0-.37.88.884.884,0,0,0,.27.672,1.945,1.945,0,0,0,.67.4q.42.144,1.17.32a11.019,11.019,0,0,1,1.6.464,2.508,2.508,0,0,1,1.06.768,2.059,2.059,0,0,1,.45,1.408,2.216,2.216,0,0,1-.85,1.792,3.451,3.451,0,0,1-2.26.688,4.324,4.324,0,0,1-2.67-.768,3.191,3.191,0,0,1-1.22-2.144h1.78a1.678,1.678,0,0,0,.64,1.168,2.268,2.268,0,0,0,1.47.448,1.482,1.482,0,0,0,1.03-.336,1.162,1.162,0,0,0,.38-.88.972.972,0,0,0-.29-.736,1.884,1.884,0,0,0-.72-.416,8.941,8.941,0,0,0-1.18-.32,13.942,13.942,0,0,1-1.57-.448,2.489,2.489,0,0,1-1.02-.72,2.1,2.1,0,0,1-.42-1.376,2.244,2.244,0,0,1,.83-1.808A3.576,3.576,0,0,1,1250.47,462.632Zm5.3-2.448a1.027,1.027,0,0,1,.32-.768,1.182,1.182,0,0,1,.85-.3,1.2,1.2,0,0,1,.85.3,1,1,0,0,1,.33.768.951.951,0,0,1-.33.752,1.24,1.24,0,0,1-.85.288,1.223,1.223,0,0,1-.85-.288A.976.976,0,0,1,1255.77,460.184Zm2.08,2.56v8.816h-1.82v-8.816Zm7.14-.144a3.215,3.215,0,0,1,2.46.992,3.985,3.985,0,0,1,.93,2.832v5.136h-1.83v-4.944a2.568,2.568,0,0,0-.6-1.824,2.17,2.17,0,0,0-1.67-.656,2.26,2.26,0,0,0-1.74.7,2.828,2.828,0,0,0-.66,2.032v4.688h-1.82v-8.816h1.82v1.936a2.971,2.971,0,0,1,1.19-1.536A3.405,3.405,0,0,1,1264.99,462.6Zm9.06.032a3.448,3.448,0,0,1,2.04.592,3.133,3.133,0,0,1,1.2,1.568v-2.048h1.83v8.912a4.507,4.507,0,0,1-.51,2.176,3.616,3.616,0,0,1-1.44,1.5,4.419,4.419,0,0,1-2.24.544,4.824,4.824,0,0,1-3.01-.88,3.84,3.84,0,0,1-1.43-2.384h1.81a2.112,2.112,0,0,0,.87,1.216,2.761,2.761,0,0,0,1.63.448,2.5,2.5,0,0,0,1.79-.672,2.569,2.569,0,0,0,.7-1.952v-2.144a3.133,3.133,0,0,1-1.2,1.568,3.448,3.448,0,0,1-2.04.592,3.97,3.97,0,0,1-2.07-.544,3.78,3.78,0,0,1-1.41-1.568,5.941,5.941,0,0,1,0-4.816,3.781,3.781,0,0,1,1.41-1.568A3.97,3.97,0,0,1,1274.05,462.632Zm.56,1.6a2.568,2.568,0,0,0-1.96.784,2.989,2.989,0,0,0-.72,2.128,3.048,3.048,0,0,0,.72,2.144,2.6,2.6,0,0,0,1.96.768,2.662,2.662,0,0,0,1.37-.352,2.549,2.549,0,0,0,.96-1.024,3.138,3.138,0,0,0,.35-1.536,3.1,3.1,0,0,0-.35-1.52,2.422,2.422,0,0,0-.96-1.024A2.578,2.578,0,0,0,1274.61,464.232Z" transform="translate(196.445 78.71)" fill="#333"/>
    <path id="Path_44" data-name="Path 44" d="M1059.5,457.75a3.231,3.231,0,0,1,.55-1.806,3.188,3.188,0,0,1,1.46-1.2,3.224,3.224,0,0,1,1.87-.185,3.241,3.241,0,0,1,2.37,4.432,3.223,3.223,0,0,1-1.19,1.458,3.258,3.258,0,0,1-4.11-.4A3.245,3.245,0,0,1,1059.5,457.75Zm3.25-4.75a4.823,4.823,0,1,1,.04.04Zm-4,12a4.747,4.747,0,0,0-4.75,4.75v2a.75.75,0,0,0,1.5,0v-2a3.314,3.314,0,0,1,.24-1.245,3.41,3.41,0,0,1,.71-1.056,3.233,3.233,0,0,1,1.05-.7,3.275,3.275,0,0,1,1.25-.245h8a3.275,3.275,0,0,1,1.25.245,3.233,3.233,0,0,1,1.05.7,3.41,3.41,0,0,1,.71,1.056,3.314,3.314,0,0,1,.24,1.245v2a.75.75,0,0,0,1.5,0v-2a4.747,4.747,0,0,0-4.75-4.75Z" transform="translate(196.445 78.71)" fill="#e26d00" fill-rule="evenodd"/>
    <path id="Path_45" data-name="Path 45" d="M1066.79,462.75a4,4,0,0,1,4-4h8a4,4,0,0,1,4,4v8a4,4,0,0,1-4,4h-8a4,4,0,0,1-4-4Z" transform="translate(196.445 78.71)" fill="#e26d00"/>
    <path id="Path_46" data-name="Path 46" d="M1075.5,462.25a.75.75,0,0,0-1.5,0v6a.75.75,0,0,0,1.5,0Zm-.75,9.75a.776.776,0,0,0,.42-.126.719.719,0,0,0,.27-.337.8.8,0,0,0,.05-.433.728.728,0,0,0-.21-.384.741.741,0,0,0-.38-.206.769.769,0,0,0-.44.043.761.761,0,0,0-.33.276.7.7,0,0,0-.13.417.8.8,0,0,0,.05.307.852.852,0,0,0,.17.261.811.811,0,0,0,.26.171.8.8,0,0,0,.31.051Z" transform="translate(196.445 78.71)" fill="#fff3e9" fill-rule="evenodd"/>
    <rect id="Rectangle_3" data-name="Rectangle 3" width="245" height="45" rx="6" transform="translate(1496.445 362.71)" fill="#fff"/>
    <path id="Path_47" data-name="Path 47" d="M1376.42,313.53h-1.82l-5.49-8.336v8.336h-1.83V302.25h1.83l5.49,8.368V302.25h1.82Zm6.24-8.928a4.827,4.827,0,0,1,2.3.544,3.844,3.844,0,0,1,1.6,1.568,5.289,5.289,0,0,1,0,4.816,3.832,3.832,0,0,1-1.6,1.568,5.134,5.134,0,0,1-4.6,0,3.951,3.951,0,0,1-1.6-1.568,4.84,4.84,0,0,1-.58-2.416,4.755,4.755,0,0,1,.58-2.4,3.964,3.964,0,0,1,1.6-1.568A4.828,4.828,0,0,1,1382.66,304.6Zm0,1.584a2.714,2.714,0,0,0-1.3.32,2.458,2.458,0,0,0-.96.992,3.943,3.943,0,0,0,0,3.248,2.471,2.471,0,0,0,.96.976,2.8,2.8,0,0,0,2.6,0,2.3,2.3,0,0,0,.94-.976,3.749,3.749,0,0,0,0-3.248,2.3,2.3,0,0,0-.94-.992A2.714,2.714,0,0,0,1382.66,306.186Zm11.81-2.48v3.424h4.16v1.408h-4.16v3.5h4.64v1.488h-6.47v-11.3h6.47v1.472Zm11.62,9.824-2.16-3.12-1.88,3.12h-2.04l2.92-4.576-2.95-4.24h2.07l2.11,3.04,1.87-3.04h2.02l-2.92,4.448,3.03,4.368Zm11.53-4.832a3.656,3.656,0,0,1-.07.784h-6.78a2.76,2.76,0,0,0,.75,2.016,2.455,2.455,0,0,0,1.74.656,2.514,2.514,0,0,0,1.54-.464,1.865,1.865,0,0,0,.78-1.232h1.96a3.787,3.787,0,0,1-2.2,2.784,4.81,4.81,0,0,1-2,.4,4.642,4.642,0,0,1-2.27-.544,3.847,3.847,0,0,1-1.53-1.568,5.457,5.457,0,0,1,0-4.816,3.86,3.86,0,0,1,1.53-1.568,4.653,4.653,0,0,1,2.27-.544,4.506,4.506,0,0,1,2.26.544,3.6,3.6,0,0,1,1.49,1.472A4.154,4.154,0,0,1,1417.62,308.7Zm-1.84-.048a2.581,2.581,0,0,0-.31-1.44,1.946,1.946,0,0,0-.89-.864,2.7,2.7,0,0,0-1.24-.288,2.565,2.565,0,0,0-1.79.656,2.669,2.669,0,0,0-.78,1.936Zm7.52-4.048a4.342,4.342,0,0,1,2.83.912,3.847,3.847,0,0,1,1.39,2.448h-1.93a2.033,2.033,0,0,0-.79-1.3,2.392,2.392,0,0,0-1.53-.48,2.3,2.3,0,0,0-1.76.752,3.033,3.033,0,0,0-.71,2.176,3.092,3.092,0,0,0,.71,2.192,2.3,2.3,0,0,0,1.76.752,2.392,2.392,0,0,0,1.53-.48,2.093,2.093,0,0,0,.79-1.312h1.93a3.908,3.908,0,0,1-1.39,2.464,4.342,4.342,0,0,1-2.83.912,4.614,4.614,0,0,1-2.27-.544,3.87,3.87,0,0,1-1.54-1.568,5.458,5.458,0,0,1,0-4.816,3.883,3.883,0,0,1,1.54-1.568A4.625,4.625,0,0,1,1423.3,304.6Zm17-2.368v1.472h-3.15v9.824h-1.84v-9.824h-3.14v-1.472Zm1.1-.08a1.027,1.027,0,0,1,.32-.768,1.2,1.2,0,0,1,.85-.3,1.186,1.186,0,0,1,.85.3,1,1,0,0,1,.33.768.95.95,0,0,1-.33.752,1.223,1.223,0,0,1-.85.288,1.24,1.24,0,0,1-.85-.288A.974.974,0,0,1,1441.4,302.154Zm2.08,2.56v8.816h-1.82v-8.816Zm6.64,7.232v1.584H1449a2.506,2.506,0,0,1-2.86-2.944v-4.32h-1.27v-1.552h1.27v-2.192h1.84v2.192h2.13v1.552h-2.13v4.352a1.528,1.528,0,0,0,.27,1.04,1.368,1.368,0,0,0,.99.288Zm3.53-10.256v11.84h-1.82V301.69Zm10.4,7.008a4.5,4.5,0,0,1-.06.784h-6.78a2.76,2.76,0,0,0,.75,2.016,2.455,2.455,0,0,0,1.74.656,2.514,2.514,0,0,0,1.54-.464,1.9,1.9,0,0,0,.78-1.232h1.95a3.738,3.738,0,0,1-.73,1.648,3.917,3.917,0,0,1-1.46,1.136,4.843,4.843,0,0,1-2,.4,4.642,4.642,0,0,1-2.27-.544,3.933,3.933,0,0,1-1.54-1.568,5.458,5.458,0,0,1,0-4.816,3.946,3.946,0,0,1,1.54-1.568,4.653,4.653,0,0,1,2.27-.544,4.506,4.506,0,0,1,2.26.544,3.662,3.662,0,0,1,1.49,1.472A4.147,4.147,0,0,1,1464.05,308.7Zm-1.84-.048a2.582,2.582,0,0,0-.3-1.44,1.921,1.921,0,0,0-.9-.864,2.63,2.63,0,0,0-1.23-.288,2.565,2.565,0,0,0-1.79.656,2.669,2.669,0,0,0-.78,1.936Zm6.5-4.048a3.661,3.661,0,0,1,2.48.8,3.306,3.306,0,0,1,1.15,2.112h-1.72a1.853,1.853,0,0,0-.63-1.152,1.9,1.9,0,0,0-1.33-.448,1.574,1.574,0,0,0-1.07.336,1.125,1.125,0,0,0-.37.88.855.855,0,0,0,.28.672,1.855,1.855,0,0,0,.67.4,11.142,11.142,0,0,0,1.17.32,11.551,11.551,0,0,1,1.6.464,2.541,2.541,0,0,1,1.05.768,2.061,2.061,0,0,1,.45,1.408,2.186,2.186,0,0,1-.85,1.792,3.422,3.422,0,0,1-2.25.688,4.376,4.376,0,0,1-2.68-.768,3.177,3.177,0,0,1-1.21-2.144h1.77a1.713,1.713,0,0,0,.64,1.168,2.316,2.316,0,0,0,1.48.448,1.473,1.473,0,0,0,1.02-.336,1.126,1.126,0,0,0,.38-.88.967.967,0,0,0-.28-.736,2.048,2.048,0,0,0-.72-.416,9.322,9.322,0,0,0-1.19-.32,13.738,13.738,0,0,1-1.57-.448,2.556,2.556,0,0,1-1.02-.72,2.1,2.1,0,0,1-.42-1.376,2.225,2.225,0,0,1,.84-1.808A3.528,3.528,0,0,1,1468.71,304.6Zm15.98-2.368v1.472h-4.85v3.5h4v1.408h-4v4.912h-1.82v-11.3Zm5.66,2.368a4.828,4.828,0,0,1,2.3.544,3.9,3.9,0,0,1,1.6,1.568,5.289,5.289,0,0,1,0,4.816,3.891,3.891,0,0,1-1.6,1.568,5.155,5.155,0,0,1-4.61,0,4.078,4.078,0,0,1-1.6-1.568,4.946,4.946,0,0,1-.57-2.416,4.859,4.859,0,0,1,.57-2.4,4.092,4.092,0,0,1,1.6-1.568A4.867,4.867,0,0,1,1490.35,304.6Zm0,1.584a2.714,2.714,0,0,0-1.3.32,2.458,2.458,0,0,0-.96.992,3.943,3.943,0,0,0,0,3.248,2.471,2.471,0,0,0,.96.976,2.7,2.7,0,0,0,1.3.32,2.636,2.636,0,0,0,1.29-.32,2.326,2.326,0,0,0,.95-.976,3.749,3.749,0,0,0,0-3.248,2.316,2.316,0,0,0-.95-.992A2.647,2.647,0,0,0,1490.35,306.186Zm14.36-1.472v8.816h-1.84v-1.92a2.883,2.883,0,0,1-1.17,1.52,3.528,3.528,0,0,1-1.94.528,3.211,3.211,0,0,1-2.46-.992,3.985,3.985,0,0,1-.93-2.832v-5.12h1.83v4.928a2.651,2.651,0,0,0,.6,1.856,2.2,2.2,0,0,0,1.67.64,2.256,2.256,0,0,0,1.74-.7,2.887,2.887,0,0,0,.66-2.048v-4.672Zm7.11-.144a3.222,3.222,0,0,1,2.47.992,4.031,4.031,0,0,1,.92,2.832v5.136h-1.82v-4.944a2.527,2.527,0,0,0-.61-1.824,2.148,2.148,0,0,0-1.66-.656,2.282,2.282,0,0,0-1.75.7,2.871,2.871,0,0,0-.65,2.032v4.688h-1.83v-8.816h1.83v1.936a2.953,2.953,0,0,1,1.18-1.536A3.459,3.459,0,0,1,1511.82,304.57Zm9.06.032a3.487,3.487,0,0,1,2.05.592,3.046,3.046,0,0,1,1.18,1.568V301.69h1.84v11.84h-1.84v-2.048a3.038,3.038,0,0,1-1.18,1.568,3.48,3.48,0,0,1-2.05.592,3.934,3.934,0,0,1-2.06-.544,3.708,3.708,0,0,1-1.41-1.568,5.94,5.94,0,0,1,0-4.816,3.72,3.72,0,0,1,1.41-1.568A3.943,3.943,0,0,1,1520.88,304.6Zm.56,1.6a2.549,2.549,0,0,0-1.95.784,2.99,2.99,0,0,0-.72,2.128,3.047,3.047,0,0,0,.72,2.144,2.574,2.574,0,0,0,1.95.768,2.725,2.725,0,0,0,1.38-.352,2.686,2.686,0,0,0,.96-1.024,3.511,3.511,0,0,0,0-3.056,2.55,2.55,0,0,0-.96-1.024A2.639,2.639,0,0,0,1521.44,306.2Z" transform="translate(196.445 78.71)" fill="#333"/>
    <path id="Path_48" data-name="Path 48" d="M1323.31,298.47a2.813,2.813,0,0,1,.47-1.565,2.807,2.807,0,0,1,4.93,2.635,2.747,2.747,0,0,1-1.04,1.261,2.777,2.777,0,0,1-1.56.469,2.8,2.8,0,0,1-2.8-2.8Zm2.8-4.47a4.478,4.478,0,0,0-4.13,2.76,4.489,4.489,0,0,0,.97,4.871,4.47,4.47,0,1,0,3.16-7.631Zm-3.64,10.91a4.471,4.471,0,0,0-4.47,4.47v1.82a.82.82,0,0,0,.25.588.831.831,0,0,0,1.42-.588v-1.82a2.828,2.828,0,0,1,.82-2,2.7,2.7,0,0,1,.92-.611,2.77,2.77,0,0,1,1.08-.209h7.28a2.8,2.8,0,0,1,2.8,2.8v1.82a.821.821,0,0,0,.25.588.831.831,0,0,0,1.42-.588v-1.82a4.471,4.471,0,0,0-4.47-4.47Zm12.84.74a.8.8,0,0,1,.14-.289.7.7,0,0,1,.24-.213.769.769,0,0,1,.3-.106.814.814,0,0,1,.32.018,4.469,4.469,0,0,1,3.36,4.32v1.82a.821.821,0,0,1-.25.588.831.831,0,0,1-1.42-.588v-1.82a2.794,2.794,0,0,0-.59-1.711,2.824,2.824,0,0,0-1.51-1,.731.731,0,0,1-.29-.143.87.87,0,0,1-.22-.244.838.838,0,0,1-.1-.308A.714.714,0,0,1,1335.31,305.65Zm-2.62-11.54a.852.852,0,0,0-.6.124.848.848,0,0,0-.28,1.1.834.834,0,0,0,.46.4,2.808,2.808,0,0,1,0,5.44.844.844,0,0,0-.51.384.869.869,0,0,0-.09.631.858.858,0,0,0,.39.508.833.833,0,0,0,.63.087,4.471,4.471,0,0,0,0-8.66Z" transform="translate(196.445 78.71)" fill="#e26d00" fill-rule="evenodd"/>
    <path id="Path_49" data-name="Path 49" d="M1333.29,303.02a4.332,4.332,0,0,1,.34-1.7,4.286,4.286,0,0,1,.96-1.444,4.433,4.433,0,0,1,3.14-1.3h8.9a4.433,4.433,0,0,1,3.14,1.3,4.286,4.286,0,0,1,.96,1.444,4.332,4.332,0,0,1,.34,1.7v8.89a4.438,4.438,0,0,1-4.44,4.44h-8.9a4.438,4.438,0,0,1-4.44-4.44Z" transform="translate(196.445 78.71)" fill="#e26d00"/>
    <path id="Path_50" data-name="Path 50" d="M1343.01,302.46a.853.853,0,0,0-.24-.587.838.838,0,0,0-1.18,0,.853.853,0,0,0-.24.587v6.65a.83.83,0,1,0,1.66,0Zm-.83,10.84a.839.839,0,0,0,.59-1.427.838.838,0,0,0-1.18,0,.839.839,0,0,0,.59,1.427Z" transform="translate(196.445 78.71)" fill="#fff3e9" fill-rule="evenodd"/>
    <rect id="Rectangle_4" data-name="Rectangle 4" width="231" height="45" rx="6" transform="translate(1510.445 452.71)" fill="#fff"/>
    <path id="Path_51" data-name="Path 51" d="M1345.24,385.75a.75.75,0,0,0-1.5,0v1.05H1338v-1.05a.75.75,0,0,0-1.5,0v1.05h-1.95a2.556,2.556,0,0,0-2.55,2.55v12.6a2.556,2.556,0,0,0,2.55,2.55h12.6a2.556,2.556,0,0,0,2.55-2.55v-12.6a2.556,2.556,0,0,0-2.55-2.55h-2Zm3,6.45v-2.85a1.029,1.029,0,0,0-.29-.707,1,1,0,0,0-.71-.293h-2v1a.75.75,0,0,1-1.5,0v-1H1338v1a.75.75,0,0,1-1.5,0v-1h-1.95a1,1,0,0,0-.4.061.99.99,0,0,0-.34.214.929.929,0,0,0-.23.33,1.069,1.069,0,0,0-.08.4v2.85Zm-14.7,1.5h14.7v8.25a.9.9,0,0,1-.06.4,1.11,1.11,0,0,1-.21.342,1.046,1.046,0,0,1-.34.229.94.94,0,0,1-.39.081h-12.6a1,1,0,0,1-.41-.065,1.02,1.02,0,0,1-.35-.227,1.056,1.056,0,0,1-.29-.758Z" transform="translate(196.445 78.71)" fill="#20a373" fill-rule="evenodd"/>
    <path id="Path_52" data-name="Path 52" d="M1344.89,394.75a4,4,0,0,1,4-4h8a4,4,0,0,1,4,4v8a4,4,0,0,1-4,4h-8a4,4,0,0,1-4-4Z" transform="translate(196.445 78.71)" fill="#20a373"/>
    <path id="Path_53" data-name="Path 53" d="M1354.94,397.04a.75.75,0,0,1,0-1.5h2.45a.751.751,0,0,1,.75.75v2.46a.75.75,0,0,1-1.5,0v-.65l-2.6,2.61a.771.771,0,0,1-1.07,0l-1.51-1.51-2.54,2.53a.761.761,0,0,1-.24.166.754.754,0,0,1-.58,0,.761.761,0,0,1-.24-.166.748.748,0,0,1,0-1.06l3.07-3.07a.751.751,0,0,1,1.06,0l1.52,1.52,2.07-2.08Z" transform="translate(196.445 78.71)" fill="#e6ffef" fill-rule="evenodd"/>
    <path id="Path_54" data-name="Path 54" d="M1391.82,392.84v11.12h-1.84v-8.336l-3.22,8.336h-1.6l-3.23-8.336v8.336h-1.83V392.84h2.21l3.68,8.88,3.62-8.88Zm10.38,6.288a4.5,4.5,0,0,1-.06.784h-6.79a2.8,2.8,0,0,0,.76,2.016,2.46,2.46,0,0,0,1.74.656,2.521,2.521,0,0,0,1.54-.464,1.942,1.942,0,0,0,.78-1.232h1.95a3.855,3.855,0,0,1-.73,1.648,3.917,3.917,0,0,1-1.46,1.136,4.844,4.844,0,0,1-2,.4,4.641,4.641,0,0,1-2.27-.544,3.94,3.94,0,0,1-1.54-1.568,5.458,5.458,0,0,1,0-4.816,3.94,3.94,0,0,1,1.54-1.568,4.641,4.641,0,0,1,2.27-.544,4.522,4.522,0,0,1,2.26.544,3.578,3.578,0,0,1,1.48,1.472A4.053,4.053,0,0,1,1402.2,399.128Zm-1.84-.048a2.67,2.67,0,0,0-.3-1.44,1.958,1.958,0,0,0-.9-.864,2.63,2.63,0,0,0-1.23-.288,2.565,2.565,0,0,0-1.79.656,2.713,2.713,0,0,0-.79,1.936Zm11.8.048a4.424,4.424,0,0,1-.07.784h-6.78a2.759,2.759,0,0,0,.75,2.016,2.459,2.459,0,0,0,1.74.656,2.52,2.52,0,0,0,1.54-.464,1.864,1.864,0,0,0,.78-1.232h1.96a3.787,3.787,0,0,1-2.2,2.784,4.81,4.81,0,0,1-2,.4,4.642,4.642,0,0,1-2.27-.544,3.853,3.853,0,0,1-1.53-1.568,5.458,5.458,0,0,1,0-4.816,3.853,3.853,0,0,1,1.53-1.568,4.642,4.642,0,0,1,2.27-.544,4.5,4.5,0,0,1,2.26.544,3.6,3.6,0,0,1,1.49,1.472A4.154,4.154,0,0,1,1412.16,399.128Zm-1.84-.048a2.581,2.581,0,0,0-.31-1.44,1.936,1.936,0,0,0-.89-.864,2.7,2.7,0,0,0-1.24-.288,2.565,2.565,0,0,0-1.79.656,2.667,2.667,0,0,0-.78,1.936Zm8.03,3.3v1.584h-1.12a3.106,3.106,0,0,1-2.15-.672,3.039,3.039,0,0,1-.72-2.272V396.7h-1.26v-1.552h1.26v-2.192h1.84v2.192h2.13V396.7h-2.13v4.352a1.526,1.526,0,0,0,.28,1.04,1.368,1.368,0,0,0,.99.288Zm1.45-9.792a1.027,1.027,0,0,1,.32-.768,1.182,1.182,0,0,1,.85-.3,1.2,1.2,0,0,1,.85.3,1,1,0,0,1,.33.768.951.951,0,0,1-.33.752,1.24,1.24,0,0,1-.85.288,1.222,1.222,0,0,1-.85-.288A.976.976,0,0,1,1419.8,392.584Zm2.08,2.56v8.816h-1.82v-8.816Zm7.14-.144a3.215,3.215,0,0,1,2.46.992,3.985,3.985,0,0,1,.93,2.832v5.136h-1.83v-4.944a2.568,2.568,0,0,0-.6-1.824,2.17,2.17,0,0,0-1.67-.656,2.275,2.275,0,0,0-1.74.7,2.829,2.829,0,0,0-.66,2.032v4.688h-1.82v-8.816h1.82v1.936a2.971,2.971,0,0,1,1.19-1.536A3.405,3.405,0,0,1,1429.02,395Zm9.06.032a3.5,3.5,0,0,1,2.05.592,3.249,3.249,0,0,1,1.2,1.568v-2.048h1.82v8.912a4.507,4.507,0,0,1-.51,2.176,3.616,3.616,0,0,1-1.44,1.5,4.419,4.419,0,0,1-2.24.544,4.824,4.824,0,0,1-3.01-.88,3.783,3.783,0,0,1-1.42-2.384h1.8a2.113,2.113,0,0,0,.87,1.216,2.761,2.761,0,0,0,1.63.448,2.5,2.5,0,0,0,1.79-.672,2.574,2.574,0,0,0,.71-1.952v-2.144a3.249,3.249,0,0,1-1.2,1.568,3.5,3.5,0,0,1-2.05.592,3.97,3.97,0,0,1-2.07-.544,3.758,3.758,0,0,1-1.4-1.568,5.835,5.835,0,0,1,0-4.816,3.758,3.758,0,0,1,1.4-1.568A3.97,3.97,0,0,1,1438.08,395.032Zm.56,1.6a2.546,2.546,0,0,0-1.95.784,2.989,2.989,0,0,0-.72,2.128,3.048,3.048,0,0,0,.72,2.144,2.574,2.574,0,0,0,1.95.768,2.662,2.662,0,0,0,1.37-.352,2.549,2.549,0,0,0,.96-1.024,3.141,3.141,0,0,0,.36-1.536,3.108,3.108,0,0,0-.36-1.52,2.422,2.422,0,0,0-.96-1.024A2.578,2.578,0,0,0,1438.64,396.632Zm9.59-1.6a3.644,3.644,0,0,1,2.48.8,3.317,3.317,0,0,1,1.16,2.112h-1.73a1.807,1.807,0,0,0-.63-1.152,1.891,1.891,0,0,0-1.32-.448,1.6,1.6,0,0,0-1.08.336,1.117,1.117,0,0,0-.36.88.884.884,0,0,0,.27.672,1.854,1.854,0,0,0,.67.4q.42.144,1.17.32a11.42,11.42,0,0,1,1.6.464,2.478,2.478,0,0,1,1.05.768,2.059,2.059,0,0,1,.45,1.408,2.188,2.188,0,0,1-.85,1.792,3.4,3.4,0,0,1-2.25.688,4.325,4.325,0,0,1-2.67-.768,3.153,3.153,0,0,1-1.22-2.144h1.78a1.642,1.642,0,0,0,.64,1.168,2.268,2.268,0,0,0,1.47.448,1.439,1.439,0,0,0,1.02-.336,1.137,1.137,0,0,0,.39-.88.972.972,0,0,0-.29-.736,1.884,1.884,0,0,0-.72-.416,8.726,8.726,0,0,0-1.19-.32,13.129,13.129,0,0,1-1.56-.448,2.521,2.521,0,0,1-1.03-.72,2.158,2.158,0,0,1-.41-1.376,2.215,2.215,0,0,1,.83-1.808A3.528,3.528,0,0,1,1448.23,395.032Zm13.34,0a4.856,4.856,0,0,1,2.31.544,3.957,3.957,0,0,1,1.6,1.568,5.371,5.371,0,0,1,0,4.816,3.957,3.957,0,0,1-1.6,1.568,5.155,5.155,0,0,1-4.61,0,4.02,4.02,0,0,1-1.6-1.568,4.951,4.951,0,0,1-.58-2.416,4.86,4.86,0,0,1,.58-2.4,4.02,4.02,0,0,1,1.6-1.568A4.816,4.816,0,0,1,1461.57,395.032Zm0,1.584a2.647,2.647,0,0,0-1.29.32,2.332,2.332,0,0,0-.96.992,3.321,3.321,0,0,0-.35,1.616,3.358,3.358,0,0,0,.35,1.632,2.354,2.354,0,0,0,.96.976,2.647,2.647,0,0,0,1.29.32,2.714,2.714,0,0,0,1.3-.32,2.311,2.311,0,0,0,.94-.976,3.246,3.246,0,0,0,.37-1.632,3.211,3.211,0,0,0-.37-1.616,2.291,2.291,0,0,0-.94-.992A2.714,2.714,0,0,0,1461.57,396.616ZM1472.74,395a3.215,3.215,0,0,1,2.46.992,3.985,3.985,0,0,1,.93,2.832v5.136h-1.83v-4.944a2.568,2.568,0,0,0-.6-1.824,2.17,2.17,0,0,0-1.67-.656,2.26,2.26,0,0,0-1.74.7,2.828,2.828,0,0,0-.66,2.032v4.688h-1.82v-8.816h1.82v1.936a2.971,2.971,0,0,1,1.19-1.536A3.405,3.405,0,0,1,1472.74,395Zm16.53-2.336v1.472h-3.15v9.824h-1.84v-9.824h-3.13v-1.472Zm3.19,4.208a3.322,3.322,0,0,1,1.28-1.36,3.569,3.569,0,0,1,1.92-.512v1.984h-.54a3,3,0,0,0-1.94.592,2.319,2.319,0,0,0-.72,1.92v4.464h-1.82v-8.816h1.82Zm8.1-1.84a3.5,3.5,0,0,1,2.05.592,3.134,3.134,0,0,1,1.2,1.568v-2.048h1.82v8.816h-1.82v-2.048a3.134,3.134,0,0,1-1.2,1.568,3.5,3.5,0,0,1-2.05.592,3.934,3.934,0,0,1-2.06-.544,3.715,3.715,0,0,1-1.41-1.568,5.94,5.94,0,0,1,0-4.816,3.715,3.715,0,0,1,1.41-1.568A3.934,3.934,0,0,1,1500.56,395.032Zm.56,1.6a2.546,2.546,0,0,0-1.95.784,2.988,2.988,0,0,0-.72,2.128,3.048,3.048,0,0,0,.72,2.144,2.574,2.574,0,0,0,1.95.768,2.725,2.725,0,0,0,1.38-.352,2.693,2.693,0,0,0,.96-1.024,3.254,3.254,0,0,0,.35-1.536,3.219,3.219,0,0,0-.35-1.52,2.55,2.55,0,0,0-.96-1.024A2.639,2.639,0,0,0,1501.12,396.632Zm10.62-1.6a4.323,4.323,0,0,1,2.83.912,3.853,3.853,0,0,1,1.4,2.448h-1.94a2.057,2.057,0,0,0-.78-1.3,2.421,2.421,0,0,0-1.54-.48,2.319,2.319,0,0,0-1.76.752,3.031,3.031,0,0,0-.7,2.176,3.089,3.089,0,0,0,.7,2.192,2.319,2.319,0,0,0,1.76.752,2.421,2.421,0,0,0,1.54-.48,2.124,2.124,0,0,0,.78-1.312h1.94a3.919,3.919,0,0,1-1.4,2.464,4.323,4.323,0,0,1-2.83.912,4.642,4.642,0,0,1-2.27-.544,3.94,3.94,0,0,1-1.54-1.568,5.457,5.457,0,0,1,0-4.816,3.94,3.94,0,0,1,1.54-1.568A4.642,4.642,0,0,1,1511.74,395.032Zm10.98,8.928-3.17-3.92v3.92h-1.82V392.12h1.82V398.9l3.14-3.76h2.19l-3.84,4.384,3.94,4.432Z" transform="translate(196.445 78.71)" fill="#333"/>
  </g>
</svg>
