<svg xmlns="http://www.w3.org/2000/svg" width="481.04" height="447.98" viewBox="0 0 481.04 447.98">
  <g id="Group_Blue" data-name="Group Blue" transform="translate(-689.245 -264.64)">
    <path id="Path_55" data-name="Path 55" d="M731.99,633.91c123.706,0,223.99-100.284,223.99-223.99S855.7,185.93,731.99,185.93,508,286.213,508,409.92,608.284,633.91,731.99,633.91Z" transform="translate(196.445 78.71)" fill="#0068e5"/>
    <path id="Path_56" data-name="Path 56" d="M948.35,456.71H514.42" transform="translate(196.445 78.71)" fill="none" stroke="#fff" stroke-miterlimit="10" stroke-width="3"/>
    <path id="Path_57" data-name="Path 57" d="M948.35,375.25H514.42" transform="translate(196.445 78.71)" fill="none" stroke="#fff" stroke-miterlimit="10" stroke-width="3"/>
    <path id="Path_58" data-name="Path 58" d="M528.55,370.62v86.09" transform="translate(196.445 78.71)" fill="none" stroke="#fff" stroke-miterlimit="10" stroke-width="3"/>
    <path id="Path_59" data-name="Path 59" d="M611.84,370.62v86.09" transform="translate(196.445 78.71)" fill="none" stroke="#fff" stroke-miterlimit="10" stroke-width="3"/>
    <path id="Path_60" data-name="Path 60" d="M733.71,370.62v86.09" transform="translate(196.445 78.71)" fill="none" stroke="#cde6ff" stroke-miterlimit="10" stroke-width="3"/>
    <path id="Path_61" data-name="Path 61" d="M855.89,370.62v86.09" transform="translate(196.445 78.71)" fill="none" stroke="#fff" stroke-miterlimit="10" stroke-width="3"/>
    <path id="Path_62" data-name="Path 62" d="M939.18,370.62v86.09" transform="translate(196.445 78.71)" fill="none" stroke="#fff" stroke-miterlimit="10" stroke-width="3"/>
    <path id="Path_63" data-name="Path 63" d="M812.74,415.98a79.14,79.14,0,1,0-79.14,79.14A79.14,79.14,0,0,0,812.74,415.98Z" transform="translate(196.445 78.71)" fill="#0a41aa" stroke="#fff" stroke-miterlimit="10" stroke-width="3"/>
    <path id="Path_64" data-name="Path 64" d="M873.68,341.44h-34.1a17.19,17.19,0,0,0-17.19,17.19v34.1a17.19,17.19,0,0,0,17.19,17.19h34.1a17.19,17.19,0,0,0,17.19-17.19v-34.1A17.19,17.19,0,0,0,873.68,341.44Z" transform="translate(196.445 78.71)" fill="#0a41aa" stroke="#fff" stroke-miterlimit="10" stroke-width="3"/>
    <path id="Path_65" data-name="Path 65" d="M955.15,422.04H839.58a17.19,17.19,0,0,0-17.19,17.19v34.1a17.19,17.19,0,0,0,17.19,17.19H955.15a17.19,17.19,0,0,0,17.19-17.19v-34.1A17.19,17.19,0,0,0,955.15,422.04Z" transform="translate(196.445 78.71)" fill="#0a41aa" stroke="#fff" stroke-miterlimit="10" stroke-width="3"/>
    <path id="Path_66" data-name="Path 66" d="M872.63,466.35l-.67,1.89a.078.078,0,0,1-.08,0h-.63a.058.058,0,0,1-.06-.07l2-5.66a.345.345,0,0,0,0-.12,2.253,2.253,0,0,0,0-.26h.96l2.19,6v.06h-.6a.093.093,0,0,1-.04.009.09.09,0,0,1-.04-.009l-.68-1.9Zm2.15-.71-.21-.62c-.09-.26-.19-.53-.28-.81s-.2-.55-.28-.81-.16-.47-.2-.63a2.276,2.276,0,0,1-.16.55q-.105.33-.24.72c-.09.26-.19.53-.28.8l-.28.8Z" transform="translate(196.445 78.71)" fill="#cde6ff"/>
    <path id="Path_67" data-name="Path 67" d="M877.28,464.82v-1h.66a.5.5,0,0,1,0,.19v.28a1.884,1.884,0,0,1,1.94-.54,1.262,1.262,0,0,1,.49.27,1.617,1.617,0,0,1,.37.55,2.506,2.506,0,0,1,.14.9v2.761a.043.043,0,0,1,0,.025.045.045,0,0,1-.012.021.061.061,0,0,1-.022.013.053.053,0,0,1-.025,0h-.65a.069.069,0,0,1-.07-.07v-2.67a1.47,1.47,0,0,0-.23-.85.844.844,0,0,0-.73-.33,1.452,1.452,0,0,0-.65.15,1.7,1.7,0,0,0-.51.42v3.3a.046.046,0,0,1,0,.026.044.044,0,0,1-.012.021.049.049,0,0,1-.022.013.053.053,0,0,1-.025,0h-.66a.053.053,0,0,1-.025,0,.049.049,0,0,1-.022-.013.044.044,0,0,1-.012-.021.046.046,0,0,1,0-.026Z" transform="translate(196.445 78.71)" fill="#cde6ff"/>
    <path id="Path_68" data-name="Path 68" d="M885.27,466.35l-.67,1.89a.073.073,0,0,1-.035.009.07.07,0,0,1-.035-.009h-.63a.058.058,0,0,1-.06-.07l2-5.66v-.12a2.281,2.281,0,0,0,0-.26h.97l2.19,6v.06h-.71a.081.081,0,0,1-.07,0l-.68-1.9Zm2.16-.71-.21-.62-.29-.81-.28-.81c-.08-.26-.15-.47-.19-.63a1.964,1.964,0,0,1-.17.55c-.08.22-.15.46-.24.72s-.18.53-.28.8-.18.54-.27.8Z" transform="translate(196.445 78.71)" fill="#cde6ff"/>
    <path id="Path_69" data-name="Path 69" d="M891.88,468.39a2.69,2.69,0,0,1-.91-.15,2.016,2.016,0,0,1-1.22-1.16,2.864,2.864,0,0,1-.17-1,2.445,2.445,0,0,1,.18-1,2,2,0,0,1,.52-.76,2.442,2.442,0,0,1,.8-.51,2.825,2.825,0,0,1,1-.18h.59v-2.12h.73v6.08a2.384,2.384,0,0,0,0,.24.052.052,0,0,1,.008.03.054.054,0,0,1-.008.03,4.384,4.384,0,0,1-.79.27A4.127,4.127,0,0,1,891.88,468.39Zm.82-3.95a1.043,1.043,0,0,0-.27-.07,1.757,1.757,0,0,0-.34,0,2.061,2.061,0,0,0-.72.13,1.529,1.529,0,0,0-.54.35,1.78,1.78,0,0,0-.34.54,1.826,1.826,0,0,0-.12.67,2.022,2.022,0,0,0,.13.77,1.415,1.415,0,0,0,.35.52,1.463,1.463,0,0,0,.51.29,2.012,2.012,0,0,0,.59.1h.39a1.074,1.074,0,0,0,.36-.1Z" transform="translate(196.445 78.71)" fill="#cde6ff"/>
    <path id="Path_70" data-name="Path 70" d="M896.6,463.67a2.068,2.068,0,0,1,.88.18,1.933,1.933,0,0,1,.67.49,2.275,2.275,0,0,1,.42.75,3,3,0,0,1,0,1.9,2.143,2.143,0,0,1-.43.74,1.893,1.893,0,0,1-.67.48,2.07,2.07,0,0,1-.86.18,2.11,2.11,0,0,1-1-.21,2.018,2.018,0,0,1-.66-.54,2.287,2.287,0,0,1-.39-.76,3.139,3.139,0,0,1-.12-.85,2.742,2.742,0,0,1,.15-.92,2.106,2.106,0,0,1,.42-.75,1.994,1.994,0,0,1,.68-.51A2.094,2.094,0,0,1,896.6,463.67Zm0,.67a1.188,1.188,0,0,0-.54.12,1.344,1.344,0,0,0-.41.34,1.547,1.547,0,0,0-.27.53,2.114,2.114,0,0,0-.1.68,2.411,2.411,0,0,0,.09.67,1.622,1.622,0,0,0,.27.54,1,1,0,0,0,.43.36,1.221,1.221,0,0,0,.59.13,1.336,1.336,0,0,0,.48-.09,1.151,1.151,0,0,0,.42-.31,1.733,1.733,0,0,0,.3-.52,2.357,2.357,0,0,0,.11-.75,2.62,2.62,0,0,0-.08-.63,1.649,1.649,0,0,0-.24-.54,1.17,1.17,0,0,0-.42-.38,1.279,1.279,0,0,0-.67-.15Z" transform="translate(196.445 78.71)" fill="#cde6ff"/>
    <path id="Path_71" data-name="Path 71" d="M900.41,461.61h.05v2.19a2.762,2.762,0,0,1,1-.19,2.2,2.2,0,0,1,.87.17,1.827,1.827,0,0,1,.67.45,2.056,2.056,0,0,1,.43.69,2.483,2.483,0,0,1,.15.87,2.583,2.583,0,0,1-.22,1.11,2.307,2.307,0,0,1-1.4,1.27,3.143,3.143,0,0,1-1,.16,4.538,4.538,0,0,1-.66,0,2.513,2.513,0,0,1-.61-.14.083.083,0,0,1-.044-.03.081.081,0,0,1-.016-.05v-6.45a.043.043,0,0,1,0-.025.05.05,0,0,1,.013-.022.044.044,0,0,1,.021-.012.042.042,0,0,1,.025,0Zm2.4,4.31a1.606,1.606,0,0,0-.39-1.14,1.357,1.357,0,0,0-1.06-.43,3.619,3.619,0,0,0-.51,0,2.3,2.3,0,0,0-.38.12v3.13a1.345,1.345,0,0,0,.28.06h.34a1.721,1.721,0,0,0,.64-.11,1.4,1.4,0,0,0,.55-.33,1.68,1.68,0,0,0,.39-.57A2.05,2.05,0,0,0,902.81,465.92Z" transform="translate(196.445 78.71)" fill="#cde6ff"/>
    <path id="Path_72" data-name="Path 72" d="M905.11,466.12a2.136,2.136,0,0,0,.09.63,1.477,1.477,0,0,0,.29.5,1.34,1.34,0,0,0,.49.33,1.811,1.811,0,0,0,.69.13,2.475,2.475,0,0,0,.6-.07,2.316,2.316,0,0,0,.56-.19v.53a.105.105,0,0,1,.012.05.111.111,0,0,1-.012.05,2.64,2.64,0,0,1-.56.19,3.2,3.2,0,0,1-.75.08,2.3,2.3,0,0,1-1-.21,1.788,1.788,0,0,1-.67-.53,2.178,2.178,0,0,1-.38-.74,3.459,3.459,0,0,1-.11-.84,2.875,2.875,0,0,1,.14-.93,2.4,2.4,0,0,1,.4-.76,1.89,1.89,0,0,1,1.52-.71,1.793,1.793,0,0,1,.84.18,1.817,1.817,0,0,1,.56.46,1.754,1.754,0,0,1,.31.61,2.036,2.036,0,0,1,.1.62,2.484,2.484,0,0,1,0,.3.468.468,0,0,1,0,.19h-.06a1.609,1.609,0,0,1-.38,0h-2.61Zm1.74-.58h.6v-.06a1.48,1.48,0,0,0-.05-.31,1.1,1.1,0,0,0-.17-.37,1.392,1.392,0,0,0-.34-.3,1.075,1.075,0,0,0-.54-.12,1.179,1.179,0,0,0-.51.1,1.146,1.146,0,0,0-.37.27,1.256,1.256,0,0,0-.24.4,1.882,1.882,0,0,0-.12.45Z" transform="translate(196.445 78.71)" fill="#cde6ff"/>
    <path id="Path_73" data-name="Path 73" d="M915.47,468.12s0,.08-.05.09a2.126,2.126,0,0,1-.55.14h-.71a3.776,3.776,0,0,1-1.15-.18,2.905,2.905,0,0,1-1-.56,2.653,2.653,0,0,1-.72-1,3.55,3.55,0,0,1-.28-1.46,3.322,3.322,0,0,1,.24-1.28,2.847,2.847,0,0,1,.65-1,3.092,3.092,0,0,1,1-.64,3.683,3.683,0,0,1,1.35-.24,5.079,5.079,0,0,1,.76,0,1.61,1.61,0,0,1,.43.12v.7a.049.049,0,0,1-.06.05,2.539,2.539,0,0,0-1.2-.22,2.911,2.911,0,0,0-1,.17,2.263,2.263,0,0,0-.77.49,2.179,2.179,0,0,0-.51.77,3.129,3.129,0,0,0,.07,2.22,2.075,2.075,0,0,0,.61.77,2.269,2.269,0,0,0,.79.4,3.008,3.008,0,0,0,.8.12,3.775,3.775,0,0,0,.62,0,1.937,1.937,0,0,0,.54-.13h.06Z" transform="translate(196.445 78.71)" fill="#cde6ff"/>
    <path id="Path_74" data-name="Path 74" d="M918.2,463.67a2.113,2.113,0,0,1,.89.18,1.912,1.912,0,0,1,.66.49,2.13,2.13,0,0,1,.43.75,2.751,2.751,0,0,1,.15.93,2.983,2.983,0,0,1-.16,1,2.165,2.165,0,0,1-.44.74,1.87,1.87,0,0,1-.67.48,1.992,1.992,0,0,1-.86.18,2.06,2.06,0,0,1-1-.21,2.1,2.1,0,0,1-.67-.54,2.281,2.281,0,0,1-.38-.76,2.78,2.78,0,0,1-.13-.85,2.743,2.743,0,0,1,.15-.92,2.136,2.136,0,0,1,.43-.75,2.018,2.018,0,0,1,.67-.51A2.136,2.136,0,0,1,918.2,463.67Zm0,.67a1.188,1.188,0,0,0-.54.12,1.412,1.412,0,0,0-.42.34,2,2,0,0,0-.27.53,2.45,2.45,0,0,0-.1.68,2.115,2.115,0,0,0,.1.67,1.811,1.811,0,0,0,.26.54,1.137,1.137,0,0,0,.43.36,1.245,1.245,0,0,0,.59.13,1.364,1.364,0,0,0,.49-.09,1.336,1.336,0,0,0,.42-.31,1.523,1.523,0,0,0,.29-.52,2.1,2.1,0,0,0,.11-.75,2.574,2.574,0,0,0-.07-.63,1.9,1.9,0,0,0-.25-.54,1.179,1.179,0,0,0-.42-.38,1.207,1.207,0,0,0-.65-.15Z" transform="translate(196.445 78.71)" fill="#cde6ff"/>
    <path id="Path_75" data-name="Path 75" d="M921.35,468.29a.053.053,0,0,1-.05-.06v-4.41c0-.09,0,0,.05,0h.59a.07.07,0,0,1,.035-.009.073.073,0,0,1,.035.009.922.922,0,0,1,0,.21v.24a2,2,0,0,1,1.4-.59,1.332,1.332,0,0,1,1.24.68,2.917,2.917,0,0,1,.67-.48,1.865,1.865,0,0,1,.88-.2,2.024,2.024,0,0,1,.53.08,1.391,1.391,0,0,1,.48.28,1.474,1.474,0,0,1,.36.55,2.411,2.411,0,0,1,.14.87v2.79H927a.042.042,0,0,1-.025,0,.047.047,0,0,1-.022-.012.061.061,0,0,1-.013-.022.052.052,0,0,1,0-.025v-2.64a1.417,1.417,0,0,0-.23-.81.792.792,0,0,0-.72-.34,1.341,1.341,0,0,0-.64.15,1.585,1.585,0,0,0-.51.39,1.412,1.412,0,0,1,0,.26v3.07a.062.062,0,0,1-.07.06h-.65a.043.043,0,0,1-.025,0,.048.048,0,0,1-.022-.012.061.061,0,0,1-.013-.022.053.053,0,0,1,0-.025v-2.75a1.249,1.249,0,0,0-.24-.82.828.828,0,0,0-.69-.3,1.322,1.322,0,0,0-.6.13,1.938,1.938,0,0,0-.53.39v3.36h-.06Z" transform="translate(196.445 78.71)" fill="#cde6ff"/>
    <path id="Path_76" data-name="Path 76" d="M930.74,463.67a2.368,2.368,0,0,1,.91.17,2.082,2.082,0,0,1,.69.46,2.177,2.177,0,0,1,.43.7,2.76,2.76,0,0,1,.14.869,2.6,2.6,0,0,1-.22,1.111,2.436,2.436,0,0,1-.61.79,2.668,2.668,0,0,1-.86.46,3.269,3.269,0,0,1-1,.16h-.47v1.86a.075.075,0,0,1-.013.043.072.072,0,0,1-.037.027h-.68a.053.053,0,0,1-.05-.06v-6a1.614,1.614,0,0,0,0-.22c.16-.07.39-.14.69-.24A3.643,3.643,0,0,1,930.74,463.67Zm-.1.68a3.068,3.068,0,0,0-.45,0,1.749,1.749,0,0,0-.41.11v3.159l.26.051h.27a2.175,2.175,0,0,0,.66-.1,1.6,1.6,0,0,0,.58-.331,1.485,1.485,0,0,0,.41-.559,1.794,1.794,0,0,0,.16-.8,1.655,1.655,0,0,0-.38-1.141,1.4,1.4,0,0,0-1.06-.389Z" transform="translate(196.445 78.71)" fill="#cde6ff"/>
    <path id="Path_77" data-name="Path 77" d="M937.13,467.55v.23a.81.81,0,0,0,0,.22,3.815,3.815,0,0,1-.92.33,4.612,4.612,0,0,1-.82.08,2.514,2.514,0,0,1-.69-.1,1.489,1.489,0,0,1-.55-.27,1.274,1.274,0,0,1-.37-.46,1.549,1.549,0,0,1-.13-.64,1.138,1.138,0,0,1,.17-.63,1.249,1.249,0,0,1,.44-.45,2.015,2.015,0,0,1,.65-.26,4.26,4.26,0,0,1,.82-.08h.64v-.23a1.523,1.523,0,0,0,0-.27,1.054,1.054,0,0,0-.15-.3.919.919,0,0,0-.32-.25,1.213,1.213,0,0,0-.55-.11,2.7,2.7,0,0,0-.64.08,2.127,2.127,0,0,0-.54.2h-.07v-.56a.094.094,0,0,1,0-.08,3.047,3.047,0,0,1,.61-.2,3.2,3.2,0,0,1,.71-.08,2.01,2.01,0,0,1,.77.14,1.459,1.459,0,0,1,.52.38,1.725,1.725,0,0,1,.3.55,2.566,2.566,0,0,1,.1.68Zm-.76-1.37h-.63a1.891,1.891,0,0,0-1,.22.7.7,0,0,0-.33.61,1.053,1.053,0,0,0,.05.31.7.7,0,0,0,.19.27.979.979,0,0,0,.35.18,1.519,1.519,0,0,0,.51.07,2.083,2.083,0,0,0,.85-.16Z" transform="translate(196.445 78.71)" fill="#cde6ff"/>
    <path id="Path_78" data-name="Path 78" d="M938.43,464.82v-.56a2.253,2.253,0,0,1,0-.26v-.18c0-.04,0,0,.06,0h.58a.085.085,0,0,1,.08,0v.19a1.637,1.637,0,0,0,0,.28,1.884,1.884,0,0,1,1.94-.54,1.317,1.317,0,0,1,.49.27,1.474,1.474,0,0,1,.36.55,2.286,2.286,0,0,1,.15.9v2.761a.062.062,0,0,1-.07.059h-.65a.062.062,0,0,1-.06-.07v-2.67a1.4,1.4,0,0,0-.24-.85.81.81,0,0,0-.72-.33,1.423,1.423,0,0,0-.65.15,1.618,1.618,0,0,0-.52.42v3.3s0,.06-.05.06h-.66a.052.052,0,0,1-.025,0,.05.05,0,0,1-.022-.013.045.045,0,0,1-.012-.021.047.047,0,0,1,0-.026Z" transform="translate(196.445 78.71)" fill="#cde6ff"/>
    <path id="Path_79" data-name="Path 79" d="M943.52,463.77a.045.045,0,0,1,.03-.01.047.047,0,0,1,.03.01c.19.52.36,1,.51,1.36s.27.73.38,1,.19.52.25.71.11.34.15.44c.14-.43.32-.92.52-1.48s.45-1.25.73-2a.091.091,0,0,1,.04-.01.1.1,0,0,1,.04.01h.66v.06c-.18.5-.37,1-.57,1.57s-.41,1.09-.63,1.64-.44,1.09-.66,1.63-.45,1.06-.68,1.56a.108.108,0,0,1-.041.046.1.1,0,0,1-.059.014l-.7.06v-.07c.14-.29.29-.61.45-1l.48-1.09a.243.243,0,0,0,0-.12,1.883,1.883,0,0,0-.17-.41c-.07-.18-.16-.39-.26-.63l-.31-.77c-.11-.27-.23-.55-.34-.84s-.23-.57-.34-.85-.21-.54-.31-.78Z" transform="translate(196.445 78.71)" fill="#cde6ff"/>
    <path id="Path_80" data-name="Path 80" d="M858.66,440.48v23.08l5.9-4.71V443.69Z" transform="translate(196.445 78.71)" fill="#cde6ff"/>
    <path id="Path_81" data-name="Path 81" d="M855.93,458.52l-4.77,2.08V442.48l4.77,1.42Z" transform="translate(196.445 78.71)" fill="#cde6ff"/>
    <path id="Path_82" data-name="Path 82" d="M844.8,457.98l3.63-.95V445.46l-3.63-.57Z" transform="translate(196.445 78.71)" fill="#cde6ff"/>
    <path id="Path_83" data-name="Path 83" d="M884,443.69l-5.03,8.25-5.09-8.25h-2.69v15.16h2.54V447.78l5.17,8.32,5.21-8.38v11.13h2.51V443.69Z" transform="translate(196.445 78.71)" fill="#cde6ff"/>
    <path id="Path_84" data-name="Path 84" d="M895.1,458.86v-1.37a3.878,3.878,0,0,1-3.31,1.63,3,3,0,0,1-3.28-3.06c0-2,1.26-3.14,3.75-3.53l2.76-.43v-.18c0-1.12-.85-1.75-2.3-1.75a5.228,5.228,0,0,0-3.6,1.52v-2.45a5.87,5.87,0,0,1,3.77-1.26c3,0,4.57,1.52,4.57,4v6.83Zm-2.73-1.78a2.461,2.461,0,0,0,2.65-2.47v-.58l-2.37.39c-1.14.19-1.73.69-1.73,1.45a1.281,1.281,0,0,0,.924,1.171A1.264,1.264,0,0,0,892.37,457.08Z" transform="translate(196.445 78.71)" fill="#cde6ff"/>
    <path id="Path_85" data-name="Path 85" d="M905.79,450.65a1.413,1.413,0,0,0-.65-.09c-1.84,0-3,1.43-3,3.62v4.68h-2.49V448.24h2.47v1.82a3.431,3.431,0,0,1,3.16-2,.94.94,0,0,1,.48.07Z" transform="translate(196.445 78.71)" fill="#cde6ff"/>
    <path id="Path_86" data-name="Path 86" d="M907.4,443.69v15.16h2.49v-4.2l.54-.5,3.79,4.7h3.08l-4.96-6,4.61-4.61h-3.07l-3.99,4.01v-8.56Z" transform="translate(196.445 78.71)" fill="#cde6ff"/>
    <path id="Path_87" data-name="Path 87" d="M926.74,457.99a7.767,7.767,0,0,1-4.1,1.13,5.38,5.38,0,0,1-5.72-5.59,5.259,5.259,0,0,1,5.33-5.55c3.1,0,5.09,2.34,5.09,5.48a4.1,4.1,0,0,1-.06.87h-7.87a3.151,3.151,0,0,0,3.41,2.64,6.448,6.448,0,0,0,3.92-1.42Zm-1.84-5.52a2.6,2.6,0,0,0-2.69-2.45,2.861,2.861,0,0,0-2.8,2.45Z" transform="translate(196.445 78.71)" fill="#cde6ff"/>
    <path id="Path_88" data-name="Path 88" d="M933.66,456.82a2,2,0,0,0,1.17-.32v2.23a3.831,3.831,0,0,1-1.9.39c-2.15,0-3.4-1.3-3.4-3.53v-5.23h-1.89l4.38-5.57v3.45h2.81v2.12h-2.81v4.77C932.02,456.32,932.54,456.82,933.66,456.82Z" transform="translate(196.445 78.71)" fill="#cde6ff"/>
    <path id="Path_89" data-name="Path 89" d="M946.9,453.551a5.66,5.66,0,1,1-5.65-5.57,5.5,5.5,0,0,1,5.65,5.57Zm-8.81,0a3.192,3.192,0,1,0,.895-2.3,3.192,3.192,0,0,0-.895,2.3Z" transform="translate(196.445 78.71)" fill="#cde6ff"/>
    <path id="Path_90" data-name="Path 90" d="M946.98,446.12h1.91v.42h-.73v2.22h-.42v-2.21h-.73Z" transform="translate(196.445 78.71)" fill="#cde6ff"/>
    <path id="Path_91" data-name="Path 91" d="M949.91,446.83v1.93h-.44v-2.64h.46l.89,1.35.87-1.35h.46v2.64h-.41v-1.94l-.79,1.21h-.21Z" transform="translate(196.445 78.71)" fill="#cde6ff"/>
    <path id="Path_92" data-name="Path 92" d="M955.14,341.44h-34.1a17.19,17.19,0,0,0-17.19,17.19v34.1a17.19,17.19,0,0,0,17.19,17.19h34.1a17.19,17.19,0,0,0,17.19-17.19v-34.1A17.19,17.19,0,0,0,955.14,341.44Z" transform="translate(196.445 78.71)" fill="#0a41aa" stroke="#fff" stroke-miterlimit="10" stroke-width="3"/>
    <path id="Path_93" data-name="Path 93" d="M875.86,377.29a2.389,2.389,0,0,1,4.55,0Zm6.77,1.64a4.435,4.435,0,0,0,.09-.89v-.47a2.165,2.165,0,0,0,0-.28,4.61,4.61,0,0,0-4.06-3.82h-.93a4.61,4.61,0,0,0-4.06,3.82,2.613,2.613,0,0,0,0,.28v.93a1.084,1.084,0,0,0,.07.43,4.621,4.621,0,0,0,4,3.67h1.4a4.63,4.63,0,0,0,1.39-.54l.11-.07.11-.07.11-.07.08-.06.07-.06a2.29,2.29,0,0,0,.24-.21l.08-.07.08-.08.09-.09.08-.09.09-.11.08-.1a.789.789,0,0,1,.08-.11l-1.79-1.27a2.452,2.452,0,0,1-3.335.589,2.379,2.379,0,0,1-.875-1.089Z" transform="translate(196.445 78.71)" fill="#cde6ff"/>
    <path id="Path_94" data-name="Path 94" d="M873.36,378.13a2.729,2.729,0,0,0-.76-.66,6.548,6.548,0,0,0-2.39-.68,3.324,3.324,0,0,1-.82-.15c-.46-.1-.76-.26-.76-.55,0-.67.75-.81,1.26-.81s1.45.15,1.45.72h2.22a2.078,2.078,0,0,0-.93-1.79,4.639,4.639,0,0,0-2.76-.76c-2,0-3.66,1.27-3.66,2.83a2,2,0,0,0,.83,1.62l.18.12a5.177,5.177,0,0,0,2.09.67c.73.1,2.1.3,2.1,1.12,0,.65-.95.89-1.44.89-.73,0-1.48-.41-1.48-1.17h-2.43a2.8,2.8,0,0,0,1,2.06,3.461,3.461,0,0,0,1.17.71h.07a4.719,4.719,0,0,0,1.72.3,4.857,4.857,0,0,0,1.48-.23,3.647,3.647,0,0,0,1.22-.6,3,3,0,0,0,.85-.88,2.256,2.256,0,0,0,.21-.48v-.37a2.684,2.684,0,0,0,0-.4,2.621,2.621,0,0,0-.5-1.53" transform="translate(196.445 78.71)" fill="#cde6ff"/>
    <path id="Path_95" data-name="Path 95" d="M866.44,377.41v4.91h-2.59v-4.38a2,2,0,1,0-4-.12v4.5h-2.58v-8.63h2.58v.67a3.932,3.932,0,0,1,2.56-.94,4,4,0,0,1,4,3.99" transform="translate(196.445 78.71)" fill="#cde6ff"/>
    <path id="Path_96" data-name="Path 96" d="M850.61,377.29a2.389,2.389,0,0,1,4.55,0Zm6.78,1.64a5.21,5.21,0,0,0,.08-.89v-.47a2.165,2.165,0,0,0,0-.28,4.61,4.61,0,0,0-4.06-3.82h-.93a4.618,4.618,0,0,0-4.06,3.82,2.613,2.613,0,0,0,0,.28v.93a1.084,1.084,0,0,0,.07.43,4.621,4.621,0,0,0,4,3.67h1.42a4.628,4.628,0,0,0,1.39-.54l.12-.07.1-.07.11-.07.08-.06.07-.06a2.29,2.29,0,0,0,.24-.21l.08-.07.08-.08.09-.09.08-.09.09-.11.08-.1.08-.11-1.79-1.27a2.391,2.391,0,0,1-4.17-.49Z" transform="translate(196.445 78.71)" fill="#cde6ff"/>
    <path id="Path_97" data-name="Path 97" d="M848.11,378.13a2.6,2.6,0,0,0-.76-.66,6.548,6.548,0,0,0-2.39-.68,3.324,3.324,0,0,1-.82-.15c-.46-.1-.76-.26-.76-.55,0-.67.75-.81,1.26-.81s1.45.15,1.45.72h2.22a2.078,2.078,0,0,0-.93-1.79,4.621,4.621,0,0,0-2.75-.76c-2,0-3.67,1.27-3.67,2.83a2,2,0,0,0,.83,1.62l.18.12a5.192,5.192,0,0,0,2.09.67c.73.1,2.1.3,2.1,1.12,0,.65-.95.89-1.43.89-.74,0-1.49-.41-1.49-1.17h-2.43a2.779,2.779,0,0,0,1,2.06,3.345,3.345,0,0,0,1.16.71h.07a4.784,4.784,0,0,0,1.72.3,4.888,4.888,0,0,0,1.48-.23,3.667,3.667,0,0,0,1.22-.6,2.844,2.844,0,0,0,.85-.88,2.3,2.3,0,0,0,.21-.48v-.37a2.668,2.668,0,0,0,0-.4,2.621,2.621,0,0,0-.5-1.53" transform="translate(196.445 78.71)" fill="#cde6ff"/>
    <path id="Path_98" data-name="Path 98" d="M836.08,373.55a4.751,4.751,0,0,1,1.53.64l-1.59,1.89a2.15,2.15,0,0,0-2.67,3.18l-1.59,1.9a4.6,4.6,0,0,1-.15-6.07l5.33-6.35,1.86,1.57Z" transform="translate(196.445 78.71)" fill="#cde6ff"/>
    <path id="Path_99" data-name="Path 99" d="M838.64,380.99a4.589,4.589,0,0,1-6,.9l1.59-1.89a2.16,2.16,0,0,0,2.67-3.19l1.59-1.89a4.6,4.6,0,0,1,.15,6.07Z" transform="translate(196.445 78.71)" fill="#cde6ff"/>
    <path id="Path_100" data-name="Path 100" d="M881.98,374.06h.11c.07,0,.12,0,.12-.1s0-.1-.11-.1h-.12Zm-.14.36v-.65h.27c.14,0,.25,0,.25.19a.173.173,0,0,1-.037.093.166.166,0,0,1-.083.057.216.216,0,0,1,.1.17.655.655,0,0,0,0,.14h-.14a.565.565,0,0,1,0-.13c0-.09,0-.13-.12-.13h-.1v.26Zm-.25-.32a.513.513,0,0,0,.029.2.5.5,0,0,0,.272.293.487.487,0,0,0,.2.045.485.485,0,0,0,.365-.154.477.477,0,0,0,.1-.175.471.471,0,0,0,.022-.2.5.5,0,1,0-1,0Zm1.12.01a.635.635,0,0,1-.036.252.622.622,0,0,1-.134.216.623.623,0,0,1-.46.192.66.66,0,0,1,0-1.31.632.632,0,0,1,.246.05.622.622,0,0,1,.342.353A.631.631,0,0,1,882.71,374.11Z" transform="translate(196.445 78.71)" fill="#cde6ff"/>
    <path id="Path_101" data-name="Path 101" d="M592.96,490.521h34.1a17.191,17.191,0,0,0,17.19-17.191v-34.1a17.19,17.19,0,0,0-17.19-17.189h-34.1a17.19,17.19,0,0,0-17.19,17.189v34.1A17.191,17.191,0,0,0,592.96,490.521Z" transform="translate(196.445 78.71)" fill="#0a41aa" stroke="#fff" stroke-miterlimit="10" stroke-width="3"/>
    <path id="Path_102" data-name="Path 102" d="M511.49,409.93H627.06a17.19,17.19,0,0,0,17.19-17.19v-34.1a17.19,17.19,0,0,0-17.19-17.19H511.49a17.19,17.19,0,0,0-17.19,17.19v34.1A17.19,17.19,0,0,0,511.49,409.93Z" transform="translate(196.445 78.71)" fill="#0a41aa" stroke="#fff" stroke-miterlimit="10" stroke-width="3"/>
    <path id="Path_103" data-name="Path 103" d="M618.31,383.19a.419.419,0,0,0,.175-.032.434.434,0,0,0,.147-.1.435.435,0,0,0,.118-.327q0-.48-.6-.48h-.65v1.71h.24v-.75h.3l.47.74h.23l-.5-.76Zm-.28-.17h-.29v-.57h.36c.18,0,.39,0,.39.27S618.29,383.02,618.03,383.02Z" transform="translate(196.445 78.71)" fill="#fff"/>
    <path id="Path_104" data-name="Path 104" d="M618.06,381.55a1.59,1.59,0,1,0,1.493.991,1.59,1.59,0,0,0-1.493-.991Zm0,3a1.4,1.4,0,1,1,1.37-1.4,1.37,1.37,0,0,1-1.37,1.4Z" transform="translate(196.445 78.71)" fill="#cde6ff"/>
    <path id="Path_105" data-name="Path 105" d="M518.88,367.07h3.77v13.74h6.99v3.48H518.88Z" transform="translate(196.445 78.71)" fill="#cde6ff"/>
    <path id="Path_106" data-name="Path 106" d="M531.31,372.62h3.62v11.67h-3.62Zm1.81-5.8a2.1,2.1,0,1,1-1.485.615A2.1,2.1,0,0,1,533.12,366.82Z" transform="translate(196.445 78.71)" fill="#cde6ff"/>
    <path id="Path_107" data-name="Path 107" d="M550.1,367.07h3.62v10.29l4.11-4.75h4.44l-4.76,5.4,4.66,6.28h-4.55l-3.85-5.77h-.05v5.77H550.1Z" transform="translate(196.445 78.71)" fill="#cde6ff"/>
    <path id="Path_108" data-name="Path 108" d="M536.94,372.621h3.48v1.6h.05a3.808,3.808,0,0,1,3.43-1.89c3.68,0,4.35,2.42,4.35,5.56v6.4h-3.62v-5.67c0-1.36,0-3.1-1.89-3.1s-2.17,1.48-2.17,3v5.77h-3.63Z" transform="translate(196.445 78.71)" fill="#cde6ff"/>
    <path id="Path_109" data-name="Path 109" d="M569.9,377.1a2.169,2.169,0,0,0-2.22-2.22,2.4,2.4,0,0,0-2.56,2.22Zm3.07,5.17a6.36,6.36,0,0,1-5,2.32c-3.63,0-6.53-2.41-6.53-6.16s2.9-6.17,6.53-6.17c3.38,0,5.51,2.42,5.51,6.17v1.12h-8.41a2.712,2.712,0,0,0,2.73,2.28,3.087,3.087,0,0,0,2.58-1.43Z" transform="translate(196.445 78.71)" fill="#cde6ff"/>
    <path id="Path_110" data-name="Path 110" d="M581.08,375.44a3,3,0,1,0,2.9,3,2.75,2.75,0,0,0-2.9-3Zm6.24,8.85h-3.34v-1.55a4.558,4.558,0,0,1-3.61,1.84c-3.48,0-5.77-2.51-5.77-6.07,0-3.26,2-6.26,5.36-6.26a4.393,4.393,0,0,1,3.73,1.55v-6.73h3.63Z" transform="translate(196.445 78.71)" fill="#cde6ff"/>
    <path id="Path_111" data-name="Path 111" d="M613.6,363.45H592.74a1.791,1.791,0,0,0-1.8,1.77v20.93a1.789,1.789,0,0,0,1.8,1.77h20.85a1.79,1.79,0,0,0,.686-.128,1.81,1.81,0,0,0,.586-.382,1.78,1.78,0,0,0,.394-.576,1.811,1.811,0,0,0,.144-.684V365.22a1.791,1.791,0,0,0-1.8-1.77Z" transform="translate(196.445 78.71)" fill="#cde6ff"/>
    <path id="Path_112" data-name="Path 112" d="M594.57,372.62h3.63V384.3h-3.63Zm1.82-5.8a2.1,2.1,0,1,1-.806.161A2.106,2.106,0,0,1,596.39,366.82Z" transform="translate(196.445 78.71)" fill="#0a41aa"/>
    <path id="Path_113" data-name="Path 113" d="M600.48,372.62h3.48v1.6a3.8,3.8,0,0,1,3.43-1.88c3.67,0,4.35,2.41,4.35,5.56v6.4h-3.62v-5.68c0-1.35,0-3.09-1.89-3.09s-2.18,1.47-2.18,3v5.78h-3.62Z" transform="translate(196.445 78.71)" fill="#0a41aa"/>
    <path id="Path_114" data-name="Path 114" d="M511.5,490.521h34.1a17.191,17.191,0,0,0,17.19-17.191v-34.1a17.19,17.19,0,0,0-17.19-17.189H511.5a17.19,17.19,0,0,0-17.19,17.189v34.1A17.191,17.191,0,0,0,511.5,490.521Z" transform="translate(196.445 78.71)" fill="#0a41aa" stroke="#fff" stroke-miterlimit="10" stroke-width="3"/>
    <path id="Path_115" data-name="Path 115" d="M556.74,455.9a2,2,0,0,1,.51,1.44v3.2H556v-2.83a1.14,1.14,0,0,0-.31-.85,1.083,1.083,0,0,0-.382-.243,1.07,1.07,0,0,0-.448-.067,1.289,1.289,0,0,0-1,.42,1.535,1.535,0,0,0-.36,1v2.58h-1.26v-7.1h1.24v3a1.907,1.907,0,0,1,1.84-1,1.815,1.815,0,0,1,1.38.53Zm-7.22.57a1.293,1.293,0,0,0-1,.42,1.76,1.76,0,0,0,0,2.21,1.294,1.294,0,0,0,.454.319,1.309,1.309,0,0,0,.546.1,1.614,1.614,0,0,0,1.38-.61l.77.65a2.247,2.247,0,0,1-.91.76,3,3,0,0,1-1.3.27,2.789,2.789,0,0,1-1.34-.32,2.308,2.308,0,0,1-.91-.92,2.7,2.7,0,0,1-.33-1.35,2.748,2.748,0,0,1,.33-1.37,2.252,2.252,0,0,1,.92-.92,2.7,2.7,0,0,1,1.35-.33,3,3,0,0,1,1.24.24,2.3,2.3,0,0,1,.89.7l-.75.72a1.719,1.719,0,0,0-1.34-.57Zm-3.43-1.05v5.13h-1.24v-.81a1.858,1.858,0,0,1-.71.65,2.152,2.152,0,0,1-1,.22,2.437,2.437,0,0,1-1.27-.33,2.256,2.256,0,0,1-.85-.93,2.909,2.909,0,0,1-.31-1.37,2.828,2.828,0,0,1,.31-1.36,2.2,2.2,0,0,1,.85-.91,2.419,2.419,0,0,1,1.27-.33,2.184,2.184,0,0,1,1,.23,1.823,1.823,0,0,1,.71.64v-.82Zm-1.69,3.76a1.55,1.55,0,0,0,.45-1v-.37a1.548,1.548,0,0,0-.45-1,1.459,1.459,0,0,0-2,.06,1.7,1.7,0,0,0-.41,1.13,1.67,1.67,0,0,0,.41,1.12,1.461,1.461,0,0,0,2,.06Zm-4.93-3.1a2.884,2.884,0,0,1,.61,2v.38h-3.77a1.529,1.529,0,0,0,.51.85,1.469,1.469,0,0,0,1,.32,1.917,1.917,0,0,0,.75-.15,2.028,2.028,0,0,0,.63-.43l.67.7a2.576,2.576,0,0,1-.94.65,3.156,3.156,0,0,1-1.21.23,2.937,2.937,0,0,1-1.38-.32,2.258,2.258,0,0,1-.92-.92,3,3,0,0,1,0-2.71,2.481,2.481,0,0,1,.92-.93,2.739,2.739,0,0,1,1.35-.33,2.321,2.321,0,0,1,1.74.66Zm-.52,1.5a1.219,1.219,0,0,0-1.31-1.23,1.31,1.31,0,0,0-.91.33,1.388,1.388,0,0,0-.45.9Zm-5.26-1.94a2.123,2.123,0,0,1,1-.27v1.18a1.659,1.659,0,0,0-1.26.37,1.388,1.388,0,0,0-.47,1.12v2.51h-1.22v-5.12h1.24v1a1.8,1.8,0,0,1,.7-.77Zm-2.87,4.59a2.438,2.438,0,0,1-1.28.37,1.522,1.522,0,0,1-1.08-.39,1.474,1.474,0,0,1-.42-1.14v-4.85l1.23-.15v1.56h1.47v.91h-1.46v2.31a.745.745,0,0,0,.14.5.5.5,0,0,0,.182.121.506.506,0,0,0,.218.029,1.768,1.768,0,0,0,.72-.21l.29.94Zm-5.08-4.81h1.23v2.87a2.35,2.35,0,0,1-4.69,0v-2.87h1.23v2.92a1.119,1.119,0,0,0,1.943.859,1.11,1.11,0,0,0,.234-.4,1.122,1.122,0,0,0,.053-.46Zm-6-1.22a3.394,3.394,0,0,1,1.28,1.24,3.349,3.349,0,0,1,.47,1.74,3.406,3.406,0,0,1-.47,1.75,3.5,3.5,0,0,1-1.28,1.25,3.791,3.791,0,0,1-3.62,0,3.5,3.5,0,0,1-1.28-1.25,3.4,3.4,0,0,1-.47-1.75,3.339,3.339,0,0,1,.47-1.74,3.379,3.379,0,0,1,1.28-1.24,3.865,3.865,0,0,1,3.62,0Zm-2.93,1a2.247,2.247,0,0,0-1.13,2,2.223,2.223,0,0,0,.31,1.16,2.365,2.365,0,0,0,.83.83,2.2,2.2,0,0,0,2.25,0,2.356,2.356,0,0,0,.81-3.15,2.19,2.19,0,0,0-1.93-1.13,2.277,2.277,0,0,0-1.14.3Zm-11.78-4.32c1.76,0,4.41.54,5.64,1.78a2.546,2.546,0,0,1,.73,1.83c0,1.6-1.29,4.06-2.71,5.49a5.008,5.008,0,0,1-3.48,1.7,4.572,4.572,0,0,1-3-1.39,7.671,7.671,0,0,1-2.23-5.13,4.066,4.066,0,0,1,1.18-3,5.437,5.437,0,0,1,3.82-1.28Zm2.17,6.39a2.545,2.545,0,0,0,.76-1.73,1.517,1.517,0,0,0-.45-1.09,2.769,2.769,0,0,0-3.66-.06,1.938,1.938,0,0,0-.55,1.42,2.5,2.5,0,0,0,.72,1.67,2.183,2.183,0,0,0,1.46.61,2.366,2.366,0,0,0,1.67-.82Z" transform="translate(196.445 78.71)" fill="#cde6ff" fill-rule="evenodd"/>
    <path id="Path_116" data-name="Path 116" d="M616.55,453.02l-1.36,1-.05-.07a3.464,3.464,0,0,0-2.94-1.52,3.84,3.84,0,0,0,0,7.67,3.449,3.449,0,0,0,2.93-1.52l.06-.08,1.37,1-.05.07a5.1,5.1,0,0,1-4.31,2.13,5.47,5.47,0,1,1,0-10.94,5,5,0,0,1,4.35,2.26Z" transform="translate(196.445 78.71)" fill="#cde6ff"/>
    <path id="Path_117" data-name="Path 117" d="M618.86,461.55h-1.57V450.71h1.57Z" transform="translate(196.445 78.71)" fill="#cde6ff"/>
    <path id="Path_118" data-name="Path 118" d="M628.05,461.55h-1.56v-.86a2.724,2.724,0,0,1-2.26,1,3.8,3.8,0,0,1,0-7.59,2.741,2.741,0,0,1,2.26,1.06v-.87h1.56Zm-5.8-3.6a2.157,2.157,0,1,0,.117-.878A2.169,2.169,0,0,0,622.25,457.95Z" transform="translate(196.445 78.71)" fill="#cde6ff"/>
    <path id="Path_119" data-name="Path 119" d="M634.67,454.35l-.37,1.56a2.841,2.841,0,0,0-1.19-.26,1.715,1.715,0,0,0-.709.148,1.7,1.7,0,0,0-.585.428,1.708,1.708,0,0,0-.416,1.354v4h-1.57v-7.21h1.55v.81a2.414,2.414,0,0,1,2.09-1A3.137,3.137,0,0,1,634.67,454.35Z" transform="translate(196.445 78.71)" fill="#cde6ff"/>
    <path id="Path_120" data-name="Path 120" d="M637.47,451.841a1.11,1.11,0,1,1-1.11-1.11,1.091,1.091,0,0,1,.426.081,1.078,1.078,0,0,1,.362.241,1.1,1.1,0,0,1,.322.788Zm-.32,9.709h-1.57v-7.209h1.57Z" transform="translate(196.445 78.71)" fill="#cde6ff"/>
    <path id="Path_121" data-name="Path 121" d="M601.22,451.21l-5.85,1.59a16.28,16.28,0,0,1,.36,3.48,17.05,17.05,0,0,1-.36,3.49l5.85,1.58A22.833,22.833,0,0,0,601.22,451.21Z" transform="translate(196.445 78.71)" fill="#cde6ff"/>
    <path id="Path_122" data-name="Path 122" d="M586.4,449.55l-3.86,6.71,6.11-4.58A6.931,6.931,0,0,0,586.4,449.55Z" transform="translate(196.445 78.71)" fill="#cde6ff"/>
    <path id="Path_123" data-name="Path 123" d="M586.4,463l-3.86-6.72,6.11,4.58A7.066,7.066,0,0,1,586.4,463Z" transform="translate(196.445 78.71)" fill="#cde6ff"/>
    <path id="Path_124" data-name="Path 124" d="M593.44,448.11l-10.9,8.17,12.83-3.48A13.814,13.814,0,0,0,593.44,448.11Z" transform="translate(196.445 78.71)" fill="#cde6ff"/>
    <path id="Path_125" data-name="Path 125" d="M593.44,464.46l-10.9-8.18,12.83,3.48A13.863,13.863,0,0,1,593.44,464.46Z" transform="translate(196.445 78.71)" fill="#cde6ff"/>
    <path id="Path_126" data-name="Path 126" d="M766.05,409.81a16.117,16.117,0,0,0-6.88-1,8.36,8.36,0,0,0-14.21-8.1,21.79,21.79,0,0,0-39.85,8.76,15.421,15.421,0,0,0-3.94.92,15.85,15.85,0,0,0,5.7,30.71h54.1a16.17,16.17,0,0,0,5.08-31.32Z" transform="translate(196.445 78.71)" fill="#fff"/>
    <path id="Path_127" data-name="Path 127" d="M927.59,374.98h-5.56a.472.472,0,0,0-.216.053.478.478,0,0,0-.168.148.471.471,0,0,0-.056.429l1.34,3.46a.241.241,0,0,1,.012.113.218.218,0,0,1-.043.1.228.228,0,0,1-.088.072.237.237,0,0,1-.111.021l-1.71-.11a.223.223,0,0,0-.108.025.212.212,0,0,0-.082.075l-1.33,1.88a.222.222,0,0,1-.064.069.246.246,0,0,1-.086.038.233.233,0,0,1-.18-.037l-2-1.34a.241.241,0,0,0-.26,0l-2.72,1.85a.229.229,0,0,1-.132.038.226.226,0,0,1-.13-.042.238.238,0,0,1-.082-.109.229.229,0,0,1-.006-.137l.76-2.71a.233.233,0,0,0-.015-.168.229.229,0,0,0-.125-.112l-1.44-.58a.231.231,0,0,1-.137-.157.241.241,0,0,1,0-.107.235.235,0,0,1,.048-.1l1.28-1.57a.221.221,0,0,0,0-.27l-1.07-1.55a.226.226,0,0,1-.04-.112.224.224,0,0,1,.021-.117.229.229,0,0,1,.189-.131l1.67-.12a.237.237,0,0,0,.086-.025.242.242,0,0,0,.071-.056.255.255,0,0,0,.043-.079.229.229,0,0,0,.01-.09l-.13-2.32a.237.237,0,0,1,.02-.115.245.245,0,0,1,.075-.091.227.227,0,0,1,.109-.041.221.221,0,0,1,.116.017l2.06.85a.218.218,0,0,0,.14.014.223.223,0,0,0,.12-.074l1.42-1.58a.233.233,0,0,1,.094-.063.236.236,0,0,1,.112-.01.226.226,0,0,1,.1.045.232.232,0,0,1,.07.088l.85,2.2a.456.456,0,0,0,.123.165.472.472,0,0,0,.183.1.463.463,0,0,0,.394-.08l3.34-2.48a.468.468,0,0,0,.161-.243.46.46,0,0,0-.018-.291.451.451,0,0,0-.189-.222.457.457,0,0,0-.284-.064l-2.2.3a.218.218,0,0,1-.24-.15l-1.16-3a.461.461,0,0,0-.569-.262.455.455,0,0,0-.191.122l-2.51,2.73a.234.234,0,0,1-.13.04.229.229,0,0,1-.13-.04l-3.31-1.4a.47.47,0,0,0-.216-.031.456.456,0,0,0-.205.073.453.453,0,0,0-.209.368l-.12,3.41a.221.221,0,0,1-.21.22l-3,.2a.449.449,0,0,0-.35.71l2,3a.232.232,0,0,1,0,.28l-2,2.34a.445.445,0,0,0-.1.19.464.464,0,0,0,0,.213.463.463,0,0,0,.267.317l2.34,1a.23.23,0,0,1,.13.27l-1.5,5.84a.46.46,0,0,0,.71.49l5.62-4a.238.238,0,0,1,.27,0l2.56,1.8a.448.448,0,0,0,.165.074.448.448,0,0,0,.348-.066.442.442,0,0,0,.127-.128l1.6-2.46a.222.222,0,0,1,.22-.09l3.83.46c.31,0,.62-.21.51-.5l-1.64-4.1a.238.238,0,0,1,.01-.178.236.236,0,0,1,.13-.122l2.91-1.37a.473.473,0,0,0,.23-.218.47.47,0,0,0-.43-.682Z" transform="translate(196.445 78.71)" fill="#cde6ff"/>
    <path id="Path_128" data-name="Path 128" d="M967.42,374.99H963.1a.16.16,0,0,0-.16.16v1.91a.16.16,0,0,0,.16.16h1.85a.16.16,0,0,1,.16.16c0,1-.22,2.75-2,2.75-1.45,0-2-1.76-2-3.82,0-2.45.61-4,2-4a1.462,1.462,0,0,1,1.4,1.14.15.15,0,0,0,.15.11h2.24a.136.136,0,0,0,.063-.009.142.142,0,0,0,.053-.034.162.162,0,0,0,.035-.054.168.168,0,0,0,.009-.063,3.73,3.73,0,0,0-3.9-3.37c-1.94,0-3.75,1.17-4.33,4.08v-3.75a.082.082,0,0,0-.08-.08h-2.37a.082.082,0,0,0-.057.024.079.079,0,0,0-.023.056v6.69a.079.079,0,0,1-.029.038.083.083,0,0,1-.092,0,.079.079,0,0,1-.029-.038l-3.11-6.76a.073.073,0,0,0-.035-.009.07.07,0,0,0-.035.009h-2.23a.071.071,0,0,0-.05.021.07.07,0,0,0-.02.049v3.76a5.95,5.95,0,0,0-11.51.85h-4.29a.081.081,0,0,0-.08.07v2.07a.079.079,0,0,0,.023.057.081.081,0,0,0,.057.023h2a.083.083,0,0,1,.05.027.081.081,0,0,1,.02.053c0,1-.17,2.82-2,2.82-1.45,0-2-1.76-2-3.82,0-2.45.61-4,2-4a1.482,1.482,0,0,1,1.41,1.19.078.078,0,0,0,.029.044.079.079,0,0,0,.051.016h2.31a.072.072,0,0,0,.029-.006.074.074,0,0,0,.039-.044.076.076,0,0,0,0-.03,3.731,3.731,0,0,0-3.91-3.45c-2.35,0-4.52,1.74-4.52,6.22,0,3.08,1.21,6.12,4.56,6.12,2.47,0,4.06-1.92,4.41-4.22a5.94,5.94,0,0,0,11.33.11v3.79a.082.082,0,0,0,.02.054.079.079,0,0,0,.05.026h2.38a.079.079,0,0,0,.07-.08v-6.46a.09.09,0,0,1,.029-.038.083.083,0,0,1,.092,0,.09.09,0,0,1,.029.038l3.11,6.65h2.17a.079.079,0,0,0,.056-.023.082.082,0,0,0,.024-.057v-3.76c.46,2.26,1.76,4.09,4.36,4.09,2.82,0,4.48-2.49,4.48-5.21v-2a.168.168,0,0,0,.02-.079.158.158,0,0,0-.019-.08.168.168,0,0,0-.131-.091Zm-22.37,4.94a3.719,3.719,0,1,1,3.38-3.7,3.4,3.4,0,0,1-3.38,3.7Z" transform="translate(196.445 78.71)" fill="#cde6ff"/>
    <path id="Path_129" data-name="Path 129" d="M815.26,240.01a12.35,12.35,0,1,0,0,20.13v2.28h5.2V236.19Zm-7.15,17.28a7.17,7.17,0,1,1,7.15-7.46v.59a7.15,7.15,0,0,1-7.15,6.87Z" transform="translate(196.445 78.71)" fill="#fff"/>
    <path id="Path_130" data-name="Path 130" d="M794.32,262.47V255l-10.29,7.47Z" transform="translate(196.445 78.71)" fill="#fff"/>
    <path id="Path_131" data-name="Path 131" d="M828.29,230.58l-5.21,3.77v5.22l5.21-3.78Z" transform="translate(196.445 78.71)" fill="#fff"/>
    <path id="Path_132" data-name="Path 132" d="M823.08,242.82l-.01,19.65h5.2l.02-23.43Z" transform="translate(196.445 78.71)" fill="#fff"/>
    <path id="Path_133" data-name="Path 133" d="M710.87,237.77a12.349,12.349,0,1,0,8.733,3.617A12.348,12.348,0,0,0,710.87,237.77Zm0,19.52a7.17,7.17,0,1,1,5.07-2.1A7.168,7.168,0,0,1,710.87,257.29Z" transform="translate(196.445 78.71)" fill="#fff"/>
    <path id="Path_134" data-name="Path 134" d="M683.56,237.77a12.35,12.35,0,1,0,10.48,18.9l-4.51-2.58a7.16,7.16,0,0,1-12.64-1.37h18.75a12.379,12.379,0,0,0-12.08-15Zm0,5.19a7.159,7.159,0,0,1,6.68,4.58H676.89a5.2,5.2,0,0,1,.24-.56,7.148,7.148,0,0,1,6.43-4.02Z" transform="translate(196.445 78.71)" fill="#fff"/>
    <path id="Path_135" data-name="Path 135" d="M656.25,237.77a12.291,12.291,0,0,0-7.23,2.35l-2-1.5a1,1,0,0,0-.63-.21h-2.58v33H649V260.12a12.35,12.35,0,1,0,7.25-22.35Zm0,19.52a7.17,7.17,0,1,1,5.07-2.1A7.168,7.168,0,0,1,656.25,257.29Z" transform="translate(196.445 78.71)" fill="#fff"/>
    <path id="Path_136" data-name="Path 136" d="M738.24,237.77a12.32,12.32,0,0,0-7.2,2.32l-2-1.48a1.069,1.069,0,0,0-.64-.21h-2.57v33h5.2V260.15a12.35,12.35,0,1,0,7.2-22.39Zm0,19.52a7.17,7.17,0,1,1,5.064-2.1A7.167,7.167,0,0,1,738.24,257.29Z" transform="translate(196.445 78.71)" fill="#fff"/>
    <path id="Path_137" data-name="Path 137" d="M785.45,252.72a12.371,12.371,0,1,0-1.91,4.41l-4.19-3a7.17,7.17,0,0,1-12.65-1.37h18.75Zm-12.07-9.77a7.178,7.178,0,0,1,6.68,4.59H766.74a5.658,5.658,0,0,1,.24-.56,7.182,7.182,0,0,1,6.4-4.03Z" transform="translate(196.445 78.71)" fill="#fff"/>
    <path id="Path_138" data-name="Path 138" d="M758.41,230.58h-5.2v31.89h5.2Z" transform="translate(196.445 78.71)" fill="#fff"/>
    <path id="Path_139" data-name="Path 139" d="M644.67,298.57a3.752,3.752,0,0,1-.48,1.86,3.611,3.611,0,0,1-1.46,1.4,4.957,4.957,0,0,1-2.42.54,5.968,5.968,0,0,1-2.5-.5,4.642,4.642,0,0,1-1.74-1.4,4.067,4.067,0,0,1-.74-2.04h1.94a2.881,2.881,0,0,0,.4,1.18,2.941,2.941,0,0,0,1,.94,3.255,3.255,0,0,0,1.58.36,2.49,2.49,0,0,0,1.84-.64,2.218,2.218,0,0,0,.64-1.64,2.083,2.083,0,0,0-.46-1.4,2.991,2.991,0,0,0-1.1-.84,13.865,13.865,0,0,0-1.8-.68,20.377,20.377,0,0,1-2.16-.82,3.868,3.868,0,0,1-1.38-1.18,3.458,3.458,0,0,1-.56-2.06,3.608,3.608,0,0,1,.52-1.94,3.555,3.555,0,0,1,1.52-1.3,5.564,5.564,0,0,1,2.34-.46,4.982,4.982,0,0,1,3.3,1.02,3.829,3.829,0,0,1,1.42,2.56h-1.96a2.652,2.652,0,0,0-.86-1.48,2.712,2.712,0,0,0-1.9-.64,2.574,2.574,0,0,0-1.76.58,1.984,1.984,0,0,0-.66,1.6,2.063,2.063,0,0,0,.42,1.34,3.246,3.246,0,0,0,1.08.8q.641.28,1.76.64a17.416,17.416,0,0,1,2.18.84,3.662,3.662,0,0,1,1.42,1.22A3.571,3.571,0,0,1,644.67,298.57Zm15.947-7.5a4.02,4.02,0,0,1,3.08,1.24,4.894,4.894,0,0,1,1.18,3.54v6.38h-1.82v-6.22a3.509,3.509,0,0,0-.8-2.48,2.77,2.77,0,0,0-2.16-.86,3,3,0,0,0-2.32.96,3.993,3.993,0,0,0-.86,2.78v5.82H655.1v-6.22a3.509,3.509,0,0,0-.8-2.48,2.807,2.807,0,0,0-2.16-.86,3.022,3.022,0,0,0-2.34.96,3.993,3.993,0,0,0-.86,2.78v5.82h-1.82V291.25h1.82v2.5a3.542,3.542,0,0,1,1.42-1.98,4.17,4.17,0,0,1,2.38-.7,4.086,4.086,0,0,1,2.42.72,3.791,3.791,0,0,1,1.48,2.08,3.92,3.92,0,0,1,1.54-2.06A4.22,4.22,0,0,1,660.617,291.07Zm11.586.04a4.468,4.468,0,0,1,2.7.8,4.151,4.151,0,0,1,1.56,2.14v-2.8h1.82v10.98h-1.82v-2.8a4.143,4.143,0,0,1-1.56,2.14,4.461,4.461,0,0,1-2.7.8,4.971,4.971,0,0,1-2.6-.68,4.782,4.782,0,0,1-1.8-1.94,7.352,7.352,0,0,1,0-6,4.762,4.762,0,0,1,1.8-1.96A4.981,4.981,0,0,1,672.2,291.11Zm.52,1.62a3.54,3.54,0,0,0-2.7,1.08,4.114,4.114,0,0,0-1,2.94,4.185,4.185,0,0,0,1,2.96,3.574,3.574,0,0,0,2.7,1.06,3.675,3.675,0,0,0,1.92-.5,3.476,3.476,0,0,0,1.34-1.4,4.921,4.921,0,0,0,0-4.24,3.32,3.32,0,0,0-1.34-1.4A3.684,3.684,0,0,0,672.723,292.73Zm10.277.74a3.977,3.977,0,0,1,1.58-1.76,4.644,4.644,0,0,1,2.48-.64v1.98h-.56a3.857,3.857,0,0,0-2.52.8,3.131,3.131,0,0,0-.98,2.6v5.78h-1.82V291.25H683Zm11.1,7.16v1.6h-1.36a3.526,3.526,0,0,1-2.52-.8,3.638,3.638,0,0,1-.82-2.68v-5.92h-1.64v-1.58h1.64v-2.74h1.84v2.74h2.84v1.58h-2.84v5.96a2.128,2.128,0,0,0,.38,1.46,1.947,1.947,0,0,0,1.36.38Zm14.1-5.46a7.773,7.773,0,0,1-.86,3.74,5.948,5.948,0,0,1-2.54,2.46,8.592,8.592,0,0,1-4,.86h-4.48v-14.1h4.48a8.6,8.6,0,0,1,4,.86,5.7,5.7,0,0,1,2.54,2.44A7.7,7.7,0,0,1,708.2,295.17Zm-7.54,5.42a5.809,5.809,0,0,0,4.22-1.42,6.209,6.209,0,0,0,0-8,5.718,5.718,0,0,0-4.22-1.44h-2.52v10.86Zm14.5-9.48a4.468,4.468,0,0,1,2.7.8,4.15,4.15,0,0,1,1.56,2.14v-2.8h1.82v10.98h-1.82v-2.8a4.142,4.142,0,0,1-1.56,2.14,4.461,4.461,0,0,1-2.7.8,4.971,4.971,0,0,1-2.6-.68,4.781,4.781,0,0,1-1.8-1.94,7.351,7.351,0,0,1,0-6,4.761,4.761,0,0,1,1.8-1.96A4.981,4.981,0,0,1,715.152,291.11Zm.52,1.62a3.54,3.54,0,0,0-2.7,1.08,4.118,4.118,0,0,0-1,2.94,4.19,4.19,0,0,0,1,2.96,3.574,3.574,0,0,0,2.7,1.06,3.675,3.675,0,0,0,1.92-.5,3.469,3.469,0,0,0,1.34-1.4,4.922,4.922,0,0,0,0-4.24,3.314,3.314,0,0,0-1.34-1.4A3.684,3.684,0,0,0,715.672,292.73Zm13.7,7.9v1.6h-1.36a3.526,3.526,0,0,1-2.52-.8,3.638,3.638,0,0,1-.82-2.68v-5.92h-1.64v-1.58h1.64v-2.74h1.84v2.74h2.84v1.58h-2.84v5.96a2.133,2.133,0,0,0,.38,1.46,1.948,1.948,0,0,0,1.36.38Zm6.721-9.52a4.468,4.468,0,0,1,2.7.8,4.15,4.15,0,0,1,1.56,2.14v-2.8h1.82v10.98h-1.82v-2.8a4.142,4.142,0,0,1-1.56,2.14,4.461,4.461,0,0,1-2.7.8,4.972,4.972,0,0,1-2.6-.68,4.781,4.781,0,0,1-1.8-1.94,7.351,7.351,0,0,1,0-6,4.761,4.761,0,0,1,1.8-1.96A4.981,4.981,0,0,1,736.09,291.11Zm.52,1.62a3.54,3.54,0,0,0-2.7,1.08,4.114,4.114,0,0,0-1,2.94,4.185,4.185,0,0,0,1,2.96,3.574,3.574,0,0,0,2.7,1.06,3.675,3.675,0,0,0,1.92-.5,3.476,3.476,0,0,0,1.34-1.4,4.922,4.922,0,0,0,0-4.24,3.32,3.32,0,0,0-1.34-1.4A3.685,3.685,0,0,0,736.61,292.73Zm15.218,3.82v5.68h-1.82v-14.1h4.48a5.082,5.082,0,0,1,3.62,1.14,4.009,4.009,0,0,1,1.2,3.08,3.963,3.963,0,0,1-1.24,3.1,5.226,5.226,0,0,1-3.58,1.1Zm2.5-1.52a3.338,3.338,0,0,0,2.38-.7,3.046,3.046,0,0,0,0-3.98,3.343,3.343,0,0,0-2.38-.7h-2.5v5.38Zm8.926-7.6v14.8h-1.82v-14.8Zm7.426,3.68a4.472,4.472,0,0,1,2.7.8,4.162,4.162,0,0,1,1.56,2.14v-2.8h1.82v10.98h-1.82v-2.8a4.154,4.154,0,0,1-1.56,2.14,4.465,4.465,0,0,1-2.7.8,4.969,4.969,0,0,1-2.6-.68,4.781,4.781,0,0,1-1.8-1.94,7.351,7.351,0,0,1,0-6,4.761,4.761,0,0,1,1.8-1.96A4.978,4.978,0,0,1,770.68,291.11Zm.52,1.62a3.54,3.54,0,0,0-2.7,1.08,4.114,4.114,0,0,0-1,2.94,4.185,4.185,0,0,0,1,2.96,3.574,3.574,0,0,0,2.7,1.06,3.675,3.675,0,0,0,1.92-.5,3.476,3.476,0,0,0,1.34-1.4,4.922,4.922,0,0,0,0-4.24,3.32,3.32,0,0,0-1.34-1.4A3.684,3.684,0,0,0,771.2,292.73Zm13.7,7.9v1.6h-1.36a3.526,3.526,0,0,1-2.52-.8,3.643,3.643,0,0,1-.82-2.68v-5.92h-1.64v-1.58h1.64v-2.74h1.84v2.74h2.84v1.58h-2.84v5.96a2.133,2.133,0,0,0,.38,1.46,1.948,1.948,0,0,0,1.36.38Zm7.081-11.98a3.019,3.019,0,0,0-2.04.5,2.387,2.387,0,0,0-.56,1.8v.3h2.6v1.6h-2.6v9.38h-1.82v-9.38h-1.58v-1.6h1.58v-.44q0-3.939,4.42-3.76Zm6.956,2.46a5.773,5.773,0,0,1,2.82.68,4.794,4.794,0,0,1,1.96,1.96,6.61,6.61,0,0,1,0,6,4.818,4.818,0,0,1-1.96,1.94,5.762,5.762,0,0,1-2.82.68,5.876,5.876,0,0,1-2.84-.68,4.98,4.98,0,0,1-1.96-1.94,6.61,6.61,0,0,1,0-6,4.953,4.953,0,0,1,1.96-1.96A5.888,5.888,0,0,1,798.933,291.11Zm0,1.6a3.868,3.868,0,0,0-1.82.44,3.382,3.382,0,0,0-1.34,1.36,4.567,4.567,0,0,0-.5,2.24,4.637,4.637,0,0,0,.5,2.24,3.4,3.4,0,0,0,1.34,1.34,3.857,3.857,0,0,0,1.82.44,3.74,3.74,0,0,0,1.8-.44,3.239,3.239,0,0,0,1.34-1.34,4.484,4.484,0,0,0,.52-2.24,4.417,4.417,0,0,0-.52-2.24,3.221,3.221,0,0,0-1.34-1.36A3.752,3.752,0,0,0,798.933,292.71Zm9.692.76a3.977,3.977,0,0,1,1.58-1.76,4.644,4.644,0,0,1,2.48-.64v1.98h-.56a3.857,3.857,0,0,0-2.52.8,3.131,3.131,0,0,0-.98,2.6v5.78H806.8V291.25h1.82Zm19.356-2.4a4.021,4.021,0,0,1,3.08,1.24,4.9,4.9,0,0,1,1.18,3.54v6.38h-1.82v-6.22a3.514,3.514,0,0,0-.8-2.48,2.769,2.769,0,0,0-2.16-.86,3,3,0,0,0-2.32.96,3.988,3.988,0,0,0-.86,2.78v5.82h-1.82v-6.22a3.514,3.514,0,0,0-.8-2.48,2.81,2.81,0,0,0-2.16-.86,3.019,3.019,0,0,0-2.34.96,3.988,3.988,0,0,0-.86,2.78v5.82h-1.82V291.25h1.82v2.5a3.538,3.538,0,0,1,1.42-1.98,4.165,4.165,0,0,1,2.38-.7,4.089,4.089,0,0,1,2.42.72,3.8,3.8,0,0,1,1.48,2.08,3.916,3.916,0,0,1,1.54-2.06A4.217,4.217,0,0,1,827.981,291.07Z" transform="translate(196.445 78.71)" fill="#fff"/>
    <path id="Path_140" data-name="Path 140" d="M733.71,515.83v70.55" transform="translate(196.445 78.71)" fill="none" stroke="#cde6ff" stroke-linecap="round" stroke-miterlimit="10" stroke-width="3"/>
  </g>
</svg>
