<svg width="104" height="20" viewBox="0 0 104 20" fill="none" xmlns="http://www.w3.org/2000/svg">
<g clip-path="url(#clip0_1780_2266)">
<path fill-rule="evenodd" clip-rule="evenodd" d="M18.6994 11.389C18.5605 12.3612 18.4216 13.4723 18.1439 14.4445C18.005 15.0001 17.8661 15.4167 17.5883 15.8334C17.3105 16.389 16.8939 16.9445 16.4772 17.3612C15.6439 18.0556 14.6716 18.6112 13.5605 18.889C12.5883 19.1667 11.6161 19.1667 10.6439 19.1667H0.921631V0.694524H9.11608C9.94941 0.694524 10.7827 0.694525 11.4772 0.833414C12.3105 0.972303 13.1439 1.11119 13.8383 1.38897C14.5327 1.66675 15.2272 1.94453 15.9216 2.50008C16.4772 2.91675 17.0327 3.61119 17.4494 4.30564C17.8661 5.13897 18.1439 6.11119 18.4216 7.2223C18.8383 8.4723 18.8383 9.86119 18.6994 11.389ZM13.9772 7.63897C13.8383 6.94452 13.5605 6.11119 13.1439 5.55564C12.7272 4.86119 12.1716 4.44452 11.3383 4.16675C10.6439 4.02786 9.81052 3.88897 9.11608 3.88897H4.94941V15.9723H9.11608C9.53274 15.9723 10.0883 15.9723 10.6439 15.8334C11.1994 15.6945 11.6161 15.5556 12.1716 15.4167C12.5883 15.139 12.8661 14.8612 13.2827 14.4445C13.5605 14.0279 13.6994 13.4723 13.9772 13.0556C14.255 12.0834 14.3939 11.1112 14.3939 10.0001C14.255 9.16675 14.255 8.4723 13.9772 7.63897ZM26.0605 19.1667H24.5327C23.9772 19.1667 23.4216 19.0279 23.005 18.889C22.1716 18.7501 21.4772 18.1945 20.9216 17.5001C20.505 16.8056 20.2272 15.9723 20.2272 15.139C20.2272 14.4445 20.3661 13.889 20.6439 13.1945C20.9216 12.639 21.3383 12.0834 21.8939 11.6667C22.1716 11.5279 22.4494 11.389 22.8661 11.2501C23.2827 11.1112 23.5605 11.1112 23.9772 10.9723C24.3939 10.9723 24.6716 10.8334 25.0883 10.8334H30.9216V10.5556C30.9216 10.139 30.9216 9.7223 30.7827 9.44453C30.6439 9.16675 30.505 8.88897 30.2272 8.75008C29.6716 8.75008 29.3939 8.61119 28.9772 8.61119C28.5605 8.61119 28.1439 8.61119 27.7272 8.61119H21.1994V5.69453H27.7272H28.5605H29.3939C30.6439 5.69453 31.6161 5.9723 32.4494 6.38897C33.2827 6.80564 33.9772 7.63897 34.255 8.75008C34.3939 9.16675 34.5327 9.7223 34.5327 10.139C34.5327 10.5556 34.5327 11.1112 34.5327 11.5279V19.1667H26.0605ZM30.7827 13.7501H25.6439C25.2272 13.7501 24.9494 13.889 24.6716 14.0279C24.3939 14.1667 24.255 14.5834 24.255 15.0001C24.255 15.2779 24.255 15.5556 24.3939 15.6945C24.5327 15.8334 24.6716 15.9723 24.9494 16.1112C25.0883 16.1112 25.3661 16.2501 25.6439 16.2501H26.3383H30.9216L30.7827 13.7501ZM43.1439 19.1667C42.3105 19.1667 41.3383 19.0279 40.505 18.6112C39.6716 18.3334 39.1161 17.639 38.8383 16.6667C38.6994 16.2501 38.5605 15.8334 38.5605 15.2779C38.5605 14.8612 38.5605 14.3056 38.5605 13.889V8.33341H36.0605V5.41675H38.5605V0.416748H42.4494V5.41675H46.0605V8.33341H42.4494V13.1945C42.4494 13.4723 42.4494 13.889 42.4494 14.3056C42.4494 14.7223 42.5883 15.139 42.7272 15.4167C42.8661 15.6945 43.1439 15.8334 43.4216 15.8334C43.6994 15.9723 43.9772 15.9723 44.255 15.9723C44.5327 15.9723 44.8105 15.9723 45.2272 15.9723H46.0605V18.889H43.1439V19.1667ZM53.005 19.1667H51.4772C50.9216 19.1667 50.3661 19.0279 49.9494 18.889C49.1161 18.7501 48.4216 18.1945 47.8661 17.5001C47.4494 16.8056 47.1716 15.9723 47.1716 15.139C47.1716 14.4445 47.3105 13.889 47.5883 13.1945C47.8661 12.639 48.2827 12.0834 48.8383 11.6667C49.1161 11.5279 49.3939 11.389 49.8105 11.2501C50.2272 11.1112 50.505 11.1112 50.9216 10.9723C51.6161 10.8334 52.3105 10.8334 53.005 10.8334H57.7272V10.5556C57.7272 10.139 57.7272 9.7223 57.5883 9.44453C57.4494 9.16675 57.3105 8.88897 57.0327 8.75008C56.755 8.61119 56.4772 8.4723 56.0605 8.4723C55.6439 8.4723 55.2272 8.4723 54.8105 8.4723H48.2827V5.55564H54.8105H55.6439H56.4772C57.7272 5.55564 58.6994 5.83341 59.5327 6.25008C60.505 6.80564 61.0605 7.63897 61.3383 8.61119C61.4772 9.02786 61.6161 9.58342 61.6161 10.0001C61.6161 10.4167 61.6161 10.9723 61.6161 11.389V19.0279C61.6161 19.1667 53.005 19.1667 53.005 19.1667ZM57.7272 13.7501H52.5883C52.1716 13.7501 51.8939 13.889 51.6161 14.0279C51.3383 14.1667 51.1994 14.5834 51.1994 15.0001C51.1994 15.2779 51.3383 15.5556 51.3383 15.6945C51.4772 15.8334 51.6161 15.9723 51.8939 16.1112C52.0327 16.2501 52.3105 16.2501 52.5883 16.2501H53.2827H57.8661V13.7501H57.7272Z" fill="white"/>
<path fill-rule="evenodd" clip-rule="evenodd" d="M77.5883 19.1667C77.4494 18.7501 77.3105 18.3334 77.3105 17.9167L77.1716 16.5279C77.1716 15.8334 76.8938 15.139 76.7549 14.4445C76.4772 13.889 76.1994 13.4723 75.7827 13.0556C75.3661 12.7779 74.8105 12.5001 74.2549 12.3612C73.5605 12.2223 72.7272 12.0834 72.0327 12.0834H68.6994V19.1667H64.5327V0.694524H73.9772C74.6716 0.694524 75.366 0.694525 76.1994 0.833414C76.8938 0.833414 77.5883 0.972304 78.2827 1.11119C80.5049 1.66675 82.0327 3.61119 81.8938 5.83341C81.8938 7.08341 81.616 8.19452 81.0605 9.16675C80.366 10.139 79.3938 10.9723 78.2827 11.2501C78.6994 11.389 79.1161 11.5279 79.3938 11.6667C79.9494 11.9445 80.5049 12.3612 80.7827 12.9167C80.9216 13.1945 81.0605 13.4723 81.3383 13.889C81.616 14.4445 81.7549 15.139 81.7549 15.8334C81.7549 16.5279 81.8938 17.0834 81.8938 17.7779C81.8938 18.1945 82.0327 18.7501 82.1716 19.3056L77.5883 19.1667ZM77.1716 5.13897C77.0327 4.86119 76.7549 4.58341 76.616 4.44452C76.3383 4.30564 76.0605 4.16675 75.6438 4.02786C75.2272 4.02786 74.9494 3.88897 74.5327 3.88897H68.6994V8.88897H74.5327C75.5049 8.88897 76.1994 8.75008 76.7549 8.33341C77.3105 7.91675 77.5883 7.2223 77.5883 6.25008C77.4494 5.83341 77.3105 5.41675 77.1716 5.13897ZM97.7272 15.4167C97.3105 16.2501 96.8938 16.9445 96.1994 17.5001C95.5049 18.0556 94.6716 18.4723 93.8383 18.7501C92.866 19.0279 91.8938 19.1667 90.7827 19.1667C88.4216 19.1667 86.616 18.6112 85.366 17.3612C84.116 16.1112 83.4216 14.4445 83.4216 12.0834C83.4216 10.9723 83.5605 10.139 83.9772 9.16675C84.3938 8.33341 84.8105 7.63897 85.5049 6.94452C86.1994 6.38897 87.0327 5.83341 87.8661 5.55563C88.8383 5.27786 89.8105 5.00008 90.9216 5.13897C93.2827 5.13897 95.0883 5.69452 96.4772 6.94452C97.866 8.19452 98.4216 10.0001 98.4216 12.2223C98.2827 13.6112 98.1438 14.5834 97.7272 15.4167ZM94.1161 10.8334C93.9772 10.2779 93.8383 9.86119 93.5605 9.58341C93.2827 9.16675 92.866 8.88897 92.4494 8.75008C92.0327 8.61119 91.4772 8.4723 90.7827 8.4723C90.0883 8.4723 89.5327 8.61119 89.1161 8.75008C88.6994 9.02786 88.2827 9.30564 88.0049 9.58341C87.7272 10.0001 87.5883 10.4167 87.4494 10.8334C87.1716 11.9445 87.1716 13.0556 87.4494 14.0279C87.5883 14.4445 87.7272 14.8612 88.0049 15.2779C88.2827 15.6945 88.6994 15.9723 89.1161 16.1112C89.5327 16.2501 90.0883 16.389 90.7827 16.389C91.4772 16.389 92.0327 16.2501 92.4494 16.1112C92.866 15.9723 93.2827 15.5556 93.5605 15.2779C93.8383 14.8612 93.9772 14.4445 94.1161 14.0279C94.3938 12.9167 94.3938 11.8056 94.1161 10.8334ZM114.116 15.5556C113.56 16.6667 112.727 17.5001 111.755 18.0556C110.922 18.4723 110.227 18.7501 109.394 18.889C108.56 19.0279 107.727 19.0279 106.755 19.0279H100.505V0.694524H104.394V5.69452H107.866C110.088 5.69452 111.894 6.25008 113.144 7.36119C114.394 8.4723 114.949 10.139 114.949 12.2223C114.949 13.4723 114.672 14.5834 114.116 15.5556ZM110.088 9.58341C109.533 8.88897 108.56 8.61119 107.172 8.61119H104.255V16.389H107.172C108.422 16.389 109.394 15.9723 109.949 15.2779C110.505 14.5834 110.922 13.6112 110.922 12.5001C111.06 11.1112 110.783 10.139 110.088 9.58341ZM130.505 15.4167C130.088 16.2501 129.672 16.9445 128.977 17.5001C128.283 18.0556 127.449 18.4723 126.616 18.7501C125.644 19.0279 124.672 19.1667 123.56 19.1667C121.199 19.1667 119.394 18.6112 118.144 17.3612C116.894 16.1112 116.199 14.4445 116.199 12.0834C116.199 10.9723 116.338 10.139 116.755 9.16675C117.172 8.33341 117.588 7.63897 118.283 6.94452C118.977 6.38897 119.81 5.83341 120.644 5.55563C121.616 5.27786 122.588 5.00008 123.699 5.13897C126.06 5.13897 127.866 5.69452 129.255 6.94452C130.644 8.19452 131.199 10.0001 131.199 12.2223C131.06 13.6112 130.922 14.5834 130.505 15.4167ZM126.894 10.8334C126.755 10.2779 126.616 9.86119 126.338 9.58341C126.06 9.16675 125.783 8.88897 125.227 8.75008C124.672 8.4723 124.116 8.4723 123.56 8.4723C122.866 8.4723 122.31 8.61119 121.894 8.75008C121.477 9.02786 121.06 9.30564 120.783 9.58341C120.505 10.0001 120.366 10.4167 120.227 10.8334C119.949 11.9445 120.088 13.0556 120.227 14.0279C120.366 14.4445 120.505 14.8612 120.783 15.2779C121.06 15.6945 121.477 15.9723 121.894 16.1112C122.31 16.2501 122.866 16.389 123.56 16.389C124.255 16.389 124.81 16.2501 125.227 16.1112C125.644 15.9723 126.06 15.5556 126.338 15.2779C126.616 14.8612 126.755 14.4445 126.894 14.0279C127.172 12.9167 127.172 11.8056 126.894 10.8334ZM138.977 19.1667C138.005 19.1667 137.172 19.0279 136.338 18.6112C135.505 18.1945 134.949 17.639 134.672 16.6667C134.533 16.2501 134.394 15.8334 134.394 15.2779C134.394 14.8612 134.394 14.3056 134.394 13.889V8.33341H131.894V5.41675H134.394V0.416748H138.283V5.41675H141.894V8.33341H138.283V13.1945C138.283 13.4723 138.283 13.889 138.283 14.3056C138.283 14.7223 138.422 15.139 138.56 15.4167C138.699 15.6945 138.977 15.8334 139.255 15.8334C139.533 15.9723 139.81 15.9723 140.088 15.9723C140.366 15.9723 140.644 15.9723 141.06 15.9723H141.894V18.889H138.977V19.1667Z" fill="white"/>
</g>
<defs>
<clipPath id="clip0_1780_2266">
<rect width="141.667" height="20" fill="white" transform="translate(0.921631)"/>
</clipPath>
</defs>
</svg>
