<svg width="131" height="40" viewBox="0 0 131 40" fill="none" xmlns="http://www.w3.org/2000/svg">
<g clip-path="url(#clip0_1780_2200)">
<path d="M53.3452 26.936V21.0103H47.7657V26.936H45.2916V13.3379H47.7657V18.6519H53.3452V13.3379H55.8201V26.936H53.3452Z" fill="#231F20"/>
<path d="M55.8199 13.3377H53.345V18.6516H47.7655V13.3377H45.2914V26.9358H47.7655V21.0109H53.345V26.9358H55.8199V13.3377Z" fill="white"/>
<path d="M58.402 26.936V13.3379H67.6832V15.5823H60.8728V18.748H66.8189V20.972H60.8728V24.6917H67.6816V26.936H58.402Z" fill="#231F20"/>
<path d="M67.6828 13.3377H58.4015V26.9358H67.682V24.6914H60.8723V20.9718H66.8193V18.7478H60.8723V15.5821H67.6828V13.3377Z" fill="white"/>
<path d="M77.6773 26.936L74.6322 21.9895L71.5805 26.936H68.9166L73.1919 20.0123L68.9541 13.3379H71.6563L74.7063 18.0979L77.6619 13.3379H80.3469L76.1654 20.0335L80.4007 26.936H77.6773Z" fill="#231F20"/>
<path d="M80.3467 13.3377H77.6617L74.7061 18.0977L71.6569 13.3377H68.9547L73.1917 20.0121L68.9172 26.9358H71.5803L74.632 21.9893L77.6771 26.9358H80.4013L76.1652 20.0333L80.3467 13.3377Z" fill="white"/>
<path d="M90.2156 26.936L89.3317 24.3283H83.9249L83.0435 26.936H80.5507L85.3245 13.3379H88.0283L92.8021 26.936H90.2156ZM86.6279 16.3692L84.6915 22.106H88.5652L86.6279 16.3692Z" fill="#231F20"/>
<path d="M84.6918 22.1057L86.6282 16.3698L88.5646 22.1057H84.6918ZM88.0277 13.3377H85.3247L80.5509 26.9358H83.0437L83.9252 24.3289H89.3312L90.2159 26.9358H92.8024L88.0277 13.3377Z" fill="white"/>
<path d="M103.948 26.936L102.515 25.4395C102.11 26.2281 100.808 27.1666 99.0995 27.1861C97.5297 27.2049 96.1277 26.8033 95.0523 25.6693C93.6365 24.1939 93.2894 22.3708 93.2894 20.1468C93.2894 17.922 93.5778 16.1591 95.0531 14.6829C96.0902 13.6475 97.6421 13.0887 99.0995 13.0887C100.77 13.0887 102.207 13.7046 103.127 14.6447C103.799 15.333 104.296 16.199 104.374 17.3876H101.841C101.803 16.8491 101.537 16.4882 101.249 16.1387C100.77 15.5823 100.022 15.3143 99.0824 15.3143C98.2946 15.3143 97.3896 15.6605 96.8543 16.234C95.9175 17.2124 95.8026 18.902 95.8026 20.1468C95.8026 21.394 95.9354 23.1398 96.8739 24.1182C97.414 24.6917 98.2946 24.9809 99.0824 24.9809C99.9622 24.9809 100.653 24.6738 101.116 24.1939C101.841 23.4274 101.996 22.5842 101.996 21.5463H98.7549V19.4934H104.394V26.936H103.948Z" fill="white"/>
<path d="M99.0994 13.0878C97.6412 13.0878 96.0893 13.6475 95.0531 14.6829C93.5778 16.1582 93.2886 17.922 93.2886 20.1459C93.2886 22.3707 93.6364 24.1931 95.0523 25.6692C96.1032 26.7772 97.4661 27.1853 98.9935 27.1853C99.0286 27.1853 99.0644 27.1853 99.0994 27.1853C100.808 27.1658 102.11 26.2273 102.514 25.4387L103.948 26.9352H104.393V19.4934H98.754V21.5463H101.996C101.996 22.5834 101.841 23.4265 101.115 24.1931C100.653 24.6729 99.9622 24.9809 99.0823 24.9809C98.2938 24.9809 97.4131 24.6909 96.8738 24.1173C95.9354 23.139 95.8018 21.394 95.8018 20.1459C95.8018 18.9012 95.9174 17.2124 96.8543 16.2332C97.3895 15.6605 98.2938 15.3135 99.0823 15.3135C100.022 15.3135 100.769 15.5815 101.248 16.1387C101.537 16.4874 101.802 16.8483 101.841 17.3867H104.373C104.296 16.1982 103.799 15.3322 103.127 14.6438C102.206 13.7045 100.769 13.0878 99.0994 13.0878Z" fill="white"/>
<path d="M115.936 25.6518C114.899 26.688 113.481 27.1858 112.024 27.1858C110.569 27.1858 109.149 26.688 108.112 25.6518C106.634 24.174 106.385 22.3712 106.385 20.1472C106.385 17.9224 106.634 16.0993 108.112 14.6248C109.149 13.5885 110.569 13.0883 112.024 13.0883C113.481 13.0883 114.899 13.5885 115.936 14.6248C117.413 16.0993 117.663 17.9224 117.663 20.1472C117.663 22.3712 117.413 24.174 115.936 25.6518ZM114.175 16.2345C113.636 15.661 112.809 15.3327 112.024 15.3327C111.241 15.3327 110.411 15.661 109.876 16.2345C108.939 17.2129 108.898 18.9016 108.898 20.1472C108.898 21.3945 108.939 23.0629 109.876 24.0404C110.411 24.618 111.241 24.9423 112.024 24.9423C112.809 24.9423 113.636 24.618 114.175 24.0404C115.113 23.0629 115.153 21.3945 115.153 20.1472C115.153 18.9016 115.113 17.2129 114.175 16.2345Z" fill="white"/>
<path d="M108.898 20.1468C108.898 18.902 108.939 17.2124 109.876 16.234C110.41 15.6605 111.241 15.333 112.023 15.333C112.809 15.333 113.636 15.6605 114.175 16.234C115.113 17.2124 115.152 18.902 115.152 20.1468C115.152 21.394 115.113 23.0624 114.175 24.0408C113.636 24.6175 112.809 24.9418 112.023 24.9418C111.241 24.9418 110.41 24.6175 109.876 24.0408C108.939 23.0624 108.898 21.394 108.898 20.1468ZM112.023 13.0887C110.57 13.0887 109.149 13.5888 108.111 14.6243C106.635 16.0996 106.385 17.922 106.385 20.1468C106.385 22.3707 106.635 24.1736 108.111 25.6513C109.149 26.6876 110.57 27.1853 112.023 27.1853C113.482 27.1853 114.9 26.6876 115.935 25.6513C117.412 24.1736 117.663 22.3707 117.663 20.1468C117.663 17.922 117.412 16.0996 115.935 14.6243C114.9 13.5888 113.482 13.0887 112.023 13.0887Z" fill="white"/>
<path d="M127.876 26.936L121.989 17.5969V26.936H119.552V13.3379H122.179L127.99 22.5435V13.3379H130.425V26.936H127.876Z" fill="#231F20"/>
<path d="M130.425 13.3377H127.99V22.5432L122.179 13.3377H119.553V26.9358H121.989V17.5967L127.876 26.9358H130.425V13.3377Z" fill="white"/>
<path d="M0.9021 29.9836H12.4302L9.54795 24.9923L0.9021 29.9836Z" fill="#DBDBDB"/>
<path d="M23.9605 29.9836L35.4885 10.015L18.1952 19.9993V29.9836H23.9605Z" fill="#DBDBDB"/>
<path d="M18.1953 39.97L35.4894 29.9832H23.9606L18.1953 39.97Z" fill="#B4B3B3"/>
<path d="M9.54824 24.9922L18.1957 20V0.0297718L6.66602 20L9.54824 24.9922Z" fill="#B4B3B3"/>
<path d="M12.4305 29.9837L18.195 39.9705V29.9837H12.4305Z" fill="#B4B3B3"/>
<path d="M0.9021 10.0142V29.9836L6.66573 19.9993L0.9021 10.0142Z" fill="#DBDBDB"/>
<path d="M35.4885 10.0152L23.9604 29.9839H35.4893V10.0152H35.4885Z" fill="white"/>
<path d="M18.1953 19.9996L9.54785 24.9917L12.4309 29.9839H18.1953V19.9996Z" fill="white"/>
<path d="M18.1953 0.0294971L0.901978 10.0146L6.66561 19.9998L18.1953 0.0294971Z" fill="white"/>
</g>
<defs>
<clipPath id="clip0_1780_2200">
<rect width="129.744" height="40" fill="white" transform="translate(0.791992)"/>
</clipPath>
</defs>
</svg>
