<svg width="42" height="30" viewBox="0 0 42 30" fill="none" xmlns="http://www.w3.org/2000/svg">
<path fill-rule="evenodd" clip-rule="evenodd" d="M0.75293 0.523536H7.00068V17.7979C7.00068 20.5316 8.21448 22.16 9.1743 22.8581C8.15815 23.7887 5.05298 24.603 2.73824 22.6253C1.37355 21.4596 0.75293 19.5428 0.75293 17.7396V0.523536ZM39.7989 14.8729V13.0576H41.7044V6.68885H39.6118C38.8085 2.86521 35.5042 0 31.5525 0C27.0001 0 23.3099 3.80201 23.3099 8.49178V23.3647C24.6068 23.5525 26.1519 23.3414 27.4665 22.2183C28.831 21.0524 29.4516 19.1357 29.4516 17.3326V16.7846H32.572V10.4159H29.4516V8.49178H29.4591C29.4591 7.30082 30.3963 6.33533 31.5525 6.33533C32.7085 6.33533 33.6494 7.30082 33.6494 8.49178V14.8729C33.6494 19.5627 37.3436 23.3647 41.8958 23.3647V17.0294C40.7398 17.0294 39.7989 16.0639 39.7989 14.8729ZM16.1364 6.68885V16.0356C16.1364 16.5662 15.7091 16.9964 15.1818 16.9964C14.6545 16.9964 14.2272 16.5662 14.2272 16.0356V6.68885H8.04508V17.6816C8.04508 19.6591 8.69605 22.16 11.6584 22.9744C14.6239 23.7895 16.3442 22.102 16.3442 22.102C16.1875 23.2138 15.1712 24.0281 13.534 24.2026C12.2953 24.3345 10.7111 23.9118 9.92087 23.5628V29.3868C11.9344 29.9985 14.0642 30.1962 16.1485 29.7795C19.931 29.0234 22.3183 25.7663 22.3183 21.4331V6.68885H16.1364Z" fill="white"/>
</svg>
