<svg width="90" height="20" viewBox="0 0 90 20" fill="none" xmlns="http://www.w3.org/2000/svg">
<g clip-path="url(#clip0_1780_2258)">
<path d="M0.340223 9.98643C0.33147 4.47221 4.79536 0.0170682 10.3358 -0.000437269C15.8763 -0.0179427 20.3665 4.47221 20.3577 9.99519C20.3577 15.5269 15.8763 20.0083 10.3446 19.9996C4.82162 19.9996 0.340223 15.5182 0.340223 9.98643ZM5.37305 12.4897C5.41681 13.0937 5.43431 13.7063 5.50434 14.3103C5.57436 14.888 5.44307 14.7567 6.02075 14.8179C7.41243 14.9842 8.83038 14.958 10.2133 14.7304C11.7275 14.4766 13.1455 13.9777 14.3884 13.0499C15.71 12.0608 16.4803 10.7567 16.4803 9.0849C16.4803 7.36061 15.7538 5.96893 14.3884 4.9186C12.7166 3.63195 10.4496 3.50066 8.70784 4.586C7.60499 5.27746 6.88727 6.31904 6.35335 7.4744C5.64438 9.07615 5.3993 10.7567 5.37305 12.4897Z" fill="white"/>
<path d="M27.0799 6.61721C28.5416 4.77038 31.2637 5.3043 32.244 7.08985C32.4103 6.84478 32.5941 6.60845 32.7779 6.38964C33.6357 5.47935 34.9136 5.21677 36.1127 5.69817C37.2856 6.17082 38.0471 7.2474 38.0558 8.47279C38.0646 10.2934 38.0646 12.1052 38.0646 13.9257C38.0646 14.1971 37.977 14.2759 37.7145 14.2759H36.4103C36.1215 14.2759 36.0427 14.1883 36.0427 13.8907V9.12049C36.0427 8.5253 35.8414 8.01764 35.3775 7.63252C34.4322 6.85353 33.1368 7.26491 32.7079 8.48154C32.6204 8.71786 32.5766 8.97169 32.5766 9.22552C32.5679 10.7485 32.5854 12.2715 32.5941 13.7944C32.5941 14.2146 32.5416 14.2671 32.139 14.2671H30.9749C30.6598 14.2671 30.5897 14.1971 30.5897 13.8907V9.16425C30.5897 8.68285 30.4672 8.24522 30.1609 7.86885C29.3206 6.86228 27.8501 7.0811 27.3162 8.31524C27.1762 8.63909 27.1061 8.98045 27.0974 9.33931C27.0711 10.8448 27.0886 12.359 27.0886 13.8645C27.0886 14.2233 27.0361 14.2759 26.6685 14.2759H25.4344C25.1805 14.2759 25.093 14.1883 25.093 13.9345V6.00452C25.093 5.75944 25.1805 5.68066 25.4169 5.68066C25.8633 5.68066 26.3184 5.68066 26.7648 5.68066C27.0011 5.68066 27.0799 5.76819 27.0886 6.00452V6.30211C27.0799 6.30211 27.0799 6.49467 27.0799 6.61721Z" fill="white"/>
<path d="M63.7889 6.67846C64.0953 6.45089 64.3666 6.22332 64.673 6.03951C66.476 4.97167 68.7342 5.42682 70.0296 7.10734C71.6577 9.208 71.185 12.3415 69.0318 13.7944C67.4563 14.8623 65.3557 14.7047 63.964 13.4006L63.7889 13.2343V13.882C63.7889 14.1971 63.7102 14.2758 63.4126 14.2758H62.1522C61.8633 14.2758 61.7758 14.1883 61.7758 13.8995V9.26052V2.62594C61.7758 2.26708 61.8371 2.20581 62.196 2.20581H63.4301C63.7102 2.20581 63.7889 2.28459 63.7889 2.56467V6.41588C63.7889 6.5034 63.7889 6.59093 63.7889 6.67846ZM69.0056 9.98699C68.9793 9.78568 68.9706 9.58437 68.9268 9.38305C68.5942 7.7638 66.8874 6.84476 65.3995 7.48371C64.1216 8.03513 63.4739 9.55811 63.9465 10.9148C64.3579 12.0789 65.4082 12.7529 66.4935 12.6916C67.9465 12.6041 68.9881 11.4399 69.0056 9.98699ZM52.9881 6.68721L53.1369 6.55592C55.1938 4.76161 58.1084 5.2255 59.5176 7.57124C60.7693 9.64564 60.2003 12.394 58.2397 13.7682C56.708 14.836 54.6423 14.7222 53.2331 13.4968C53.1544 13.4268 53.0756 13.3655 52.9706 13.2693C52.9618 13.3918 52.9618 13.4706 52.9618 13.5494V17.3305C52.9618 17.7069 52.9093 17.7594 52.5329 17.7594H51.2813C51.0362 17.7594 50.9574 17.6719 50.9574 17.4356V6.01325C50.9574 5.77693 51.045 5.6894 51.29 5.6894C51.7364 5.6894 52.1741 5.6894 52.6205 5.6894C52.883 5.6894 52.9618 5.77693 52.9706 6.04826C52.9706 6.24082 52.9706 6.44213 52.9793 6.6347C52.9793 6.6522 52.9793 6.66971 52.9881 6.68721ZM52.9531 9.98699C52.9706 10.1708 52.9881 10.3634 53.0231 10.5472C53.2594 11.9476 54.5986 12.8929 55.999 12.6566C56.3491 12.5953 56.6817 12.464 56.9793 12.2715C58.1434 11.51 58.5198 9.8557 57.8108 8.61281C57.1369 7.43995 55.7889 6.97605 54.5811 7.48371C53.6095 7.89509 52.9706 8.88415 52.9531 9.98699ZM46.6248 6.73098V5.99574C46.6248 5.78568 46.7299 5.6894 46.9312 5.6894H48.3229C48.5242 5.6894 48.6292 5.79443 48.6292 5.99574V13.8119C48.6292 14.2496 48.5854 14.2933 48.1566 14.2933H47.01C46.6949 14.2933 46.6248 14.2233 46.6248 13.917V13.2868C46.5986 13.2955 46.5723 13.3043 46.5461 13.3218C44.4717 15.3437 41.1281 14.731 39.8327 11.9739C38.8086 9.79443 39.6401 7.12485 41.6883 5.98699C43.2113 5.13798 45.1019 5.3568 46.3973 6.52966C46.4673 6.58218 46.5286 6.6347 46.6248 6.73098ZM46.6248 9.92572C46.6161 9.84695 46.6073 9.69815 46.5898 9.54936C46.4148 8.05264 44.918 7.00231 43.4476 7.34367C41.9421 7.69378 41.0493 9.3568 41.5658 10.871C41.9421 11.9826 43.0187 12.7616 44.0865 12.6916C45.5307 12.6041 46.6073 11.4662 46.6248 9.92572ZM81.1631 9.97824C81.1719 12.4553 79.1062 14.4947 76.5767 14.5034C74.0472 14.5122 71.9552 12.4903 71.9465 9.99575C71.9377 7.50122 74.0034 5.46183 76.5417 5.46183C79.08 5.46183 81.1544 7.48371 81.1631 9.97824ZM79.1675 9.97824C79.1325 9.75067 79.115 9.51434 79.0537 9.29553C78.7124 7.92135 77.3469 7.03732 76.034 7.33491C74.4673 7.68502 73.5658 9.33929 74.0909 10.8885C74.476 12.0001 75.5439 12.7704 76.6205 12.7003C78.0472 12.6041 79.1675 11.4137 79.1675 9.97824Z" fill="white"/>
<path d="M85.4782 8.40276C85.9596 7.59751 86.4322 6.82727 86.8699 6.04827C87.0274 5.76819 87.22 5.6544 87.5351 5.67191C88.0077 5.69816 88.4804 5.67191 88.953 5.68066C89.0668 5.68066 89.1719 5.73318 89.2506 5.81195C89.2944 5.87322 89.2419 6.03077 89.1894 6.10954C88.3929 7.33493 87.5876 8.56031 86.7736 9.77694C86.6861 9.88197 86.6861 10.0308 86.7736 10.127C87.5789 11.3349 88.3841 12.5516 89.1806 13.7682C89.2244 13.8207 89.2594 13.882 89.2856 13.9345C89.3557 14.1095 89.2681 14.2583 89.0756 14.2671C88.4979 14.2758 87.9202 14.2846 87.3425 14.2583C87.22 14.2496 87.0624 14.1183 86.9924 13.9958C86.5198 13.243 86.0646 12.4728 85.6095 11.7025C85.5745 11.6413 85.5395 11.5888 85.487 11.51L84.4716 13.2168C84.3053 13.4881 84.139 13.7507 83.9815 14.0308C83.894 14.2058 83.7189 14.3109 83.5263 14.2934C83.0012 14.2846 82.476 14.2933 81.9509 14.2846C81.8546 14.2846 81.7145 14.2321 81.6708 14.1621C81.6358 14.092 81.6708 13.9432 81.732 13.8645C82.5373 12.6303 83.3425 11.4049 84.1565 10.1796C84.2528 10.0308 84.2616 9.93449 84.1565 9.78569C83.36 8.58657 82.5635 7.38744 81.7846 6.17956C81.7233 6.08328 81.6708 5.91698 81.7145 5.8207C81.7495 5.75068 81.9246 5.70692 82.0384 5.70692C82.5198 5.69816 83.0012 5.70692 83.4826 5.69816C83.7452 5.68941 83.9115 5.79444 84.0428 6.02202C84.4716 6.75725 84.9093 7.47497 85.3469 8.20145C85.3819 8.25396 85.4257 8.31523 85.4782 8.40276Z" fill="white"/>
<path d="M14.4935 8.84019C13.8546 9.15529 13.2594 9.43537 12.6729 9.73297C12.5504 9.80299 12.4541 9.89927 12.3929 10.0218C12.0953 10.6082 11.8064 11.2034 11.5088 11.8249C11.4125 11.6236 11.325 11.4573 11.2375 11.2822C11.1062 11.0109 10.9487 10.757 10.8524 10.4682C10.6861 9.96054 10.336 9.66295 9.84581 9.47914C9.40817 9.31284 8.99679 9.07651 8.5329 8.85769C8.61167 8.81393 8.66419 8.77017 8.71671 8.75266C9.24187 8.49883 9.76703 8.23625 10.2922 7.99117C10.4497 7.92115 10.5723 7.79861 10.6423 7.64106C10.9136 7.06338 11.2025 6.4857 11.5001 5.86426C11.7189 6.30189 11.9465 6.69577 12.104 7.1159C12.2791 7.64982 12.6992 8.06995 13.2419 8.245C13.6533 8.3938 14.0471 8.62137 14.4935 8.84019Z" fill="white"/>
</g>
<defs>
<clipPath id="clip0_1780_2258">
<rect width="88.9715" height="20" fill="white" transform="translate(0.340332)"/>
</clipPath>
</defs>
</svg>
