<svg width="126" height="20" viewBox="0 0 126 20" fill="none" xmlns="http://www.w3.org/2000/svg">
<g clip-path="url(#clip0_1780_2192)">
<path d="M9.92109 8.97431C10.5733 8.19167 11.6495 7.31119 13.58 7.31119C14.9497 7.31119 15.8497 7.71555 16.4106 8.34168C17.0824 9.10477 17.3563 9.84833 17.3563 12.2027V18.2683H14.7931V12.8549C14.7931 10.9245 14.6562 9.57435 12.7256 9.57435C11.1277 9.57435 10.4102 10.8071 10.4102 12.542V18.2683H7.84707V12.8549C7.84707 10.9245 7.7101 9.57435 5.77956 9.57435C4.20773 9.57435 3.4642 10.8071 3.4642 12.542V18.2683H0.914062V7.57207H3.47725V8.94171C3.9925 8.04166 5.14039 7.30467 6.8231 7.30467C7.92533 7.30467 8.84495 7.64381 9.47107 8.33516C9.65369 8.54386 9.78413 8.74605 9.92109 8.97431ZM29.305 15.8486C28.8354 16.5922 27.394 18.5422 24.2699 18.5422C21.1002 18.5422 18.9479 16.2921 18.9479 12.8354C18.9479 9.53516 21.2176 7.33072 24.2047 7.33072C27.6157 7.33072 29.2593 9.69174 29.2593 12.9723C29.2593 13.155 29.2332 13.4419 29.2332 13.6245H21.4458C21.6285 15.0855 22.522 16.3443 24.4133 16.3443C26.3439 16.3443 27.1983 15.0398 27.5374 14.505L29.305 15.8486ZM21.5111 11.7136H26.7222C26.657 10.3178 25.6461 9.37866 24.2047 9.37866C22.7437 9.37866 21.5763 10.4352 21.5111 11.7136ZM39.9098 8.97431C40.562 8.19167 41.6381 7.31119 43.5687 7.31119C44.9383 7.31119 45.8384 7.71555 46.3993 8.34168C47.071 9.10477 47.345 9.84833 47.345 12.2027V18.2683H44.7817V12.8549C44.7817 10.9245 44.6448 9.57435 42.7142 9.57435C41.1164 9.57435 40.3989 10.8071 40.3989 12.542V18.2683H37.8357V12.8549C37.8357 10.9245 37.6988 9.57435 35.7682 9.57435C34.1964 9.57435 33.4529 10.8071 33.4529 12.542V18.2683H30.8896V7.57207H33.4594V8.94171C33.9746 8.04166 35.1225 7.30467 36.8052 7.30467C37.9074 7.30467 38.8271 7.64381 39.4531 8.33516C39.6358 8.54386 39.7728 8.74605 39.9098 8.97431ZM59.9002 6.66554C58.798 5.60896 57.3631 4.92414 55.7586 4.92414C54.2781 4.92414 53.2412 5.53722 53.2412 6.54814C53.2412 7.58516 53.9716 8.0091 55.426 8.28954L58.0153 8.80479C60.9763 9.39182 62.8351 10.5723 62.8351 13.3898C62.8351 16.7031 59.8937 18.5423 56.1044 18.5423C52.4128 18.5423 49.8692 16.5661 48.8843 15.203L51.3563 13.0833C52.3411 14.4008 53.9912 15.5747 56.2022 15.5747C58.061 15.5747 59.1437 14.8443 59.1437 13.6703C59.1437 12.5616 58.2045 12.255 56.7435 12.0006L54.676 11.6028C51.7606 11.0353 49.5496 9.97879 49.5496 6.84816C49.5496 3.97843 52.2107 1.98267 55.713 1.98267C58.5371 1.98267 60.7937 3.03925 62.1569 4.5002L59.9002 6.66554ZM85.9297 2.2695V15.0593H92.328V18.2552H82.3752V2.2695H85.9297ZM79.5125 16.4161C79.1472 16.0508 78.6059 15.7378 77.8363 15.5095C78.8407 14.1203 79.3755 12.2941 79.3755 10.194C79.3755 5.32198 76.3949 1.98918 71.7055 1.98918C67.0226 1.98918 64.0355 5.32198 64.0355 10.194C64.0355 15.0073 66.84 18.3988 71.7707 18.3988C75.971 18.3988 78.3646 18.2292 80.0864 19.2793C80.3733 18.2814 80.256 17.1596 79.5125 16.4161ZM71.6989 15.3595C69.0249 15.3595 67.5965 13.4485 67.5965 10.1744C67.5965 6.90033 69.0705 4.91761 71.6989 4.91761C74.3273 4.91761 75.8013 6.90033 75.8013 10.1744C75.8013 13.4485 74.373 15.3595 71.6989 15.3595Z" fill="white"/>
<path d="M106.033 1.51125C105.371 0.653976 104.609 0.109547 103.696 0.00170898C103.586 0.00423075 103.478 0.0127648 103.369 0.0298321C100.058 0.553701 98.252 5.22216 98.1674 9.89066C98.252 14.5591 100.058 19.2275 103.37 19.7514C103.478 19.7685 103.586 19.7771 103.696 19.7796C104.609 19.6717 105.371 19.1271 106.033 18.27C104.298 16.3545 103.458 12.9708 103.402 9.89066C103.458 6.81045 104.297 3.42674 106.033 1.51125Z" fill="white"/>
<path d="M120.574 0.0295311C120.467 0.0124638 120.358 0.00392973 120.249 0.00140796C120.228 0.00101972 120.206 0.000244141 120.185 0.000244141C119.525 0.000244141 115.988 0.000632388 115.184 0.000244141C115.158 0.000244141 115.132 0.00101972 115.105 0.00179621C115.722 0.061728 116.29 0.26053 116.805 0.577451C117.208 0.825128 117.576 1.14069 117.912 1.51096C119.647 3.42644 120.486 6.81017 120.542 9.8903C120.486 12.9705 119.647 16.3543 117.912 18.2697C117.576 18.6398 117.208 18.9555 116.805 19.2033C116.29 19.5201 115.722 19.7189 115.105 19.7789C115.132 19.7797 115.158 19.7804 115.184 19.7804C115.988 19.78 119.525 19.7804 120.185 19.7804C120.206 19.7804 120.228 19.7799 120.249 19.7793C120.358 19.7767 120.467 19.7683 120.574 19.7511C123.886 19.2271 125.693 14.5588 125.777 9.8903C125.693 5.22188 123.886 0.553401 120.574 0.0295311Z" fill="white"/>
<path d="M113.556 16.9143C113.319 17.4197 113.077 17.8719 112.827 18.2764C112.784 18.3443 112.792 18.4314 112.843 18.4921C113.399 19.1452 114.03 19.5899 114.758 19.7396C114.872 19.7631 114.989 19.7753 115.105 19.7792C115.722 19.7193 116.29 19.5204 116.805 19.2035C117.208 18.9558 117.576 18.6403 117.912 18.2701C116.879 16.9327 116.092 14.8347 115.351 12.4475C115.324 12.3611 115.201 12.3612 115.176 12.4481C114.7 14.0284 114.184 15.5766 113.556 16.9143Z" fill="white"/>
<path d="M106.033 1.5109C107.065 2.84821 107.852 4.94621 108.593 7.3334C108.62 7.4199 108.743 7.4197 108.769 7.33282C109.244 5.75248 109.76 4.20434 110.388 2.86664C110.625 2.3612 110.867 1.90909 111.118 1.5045C111.16 1.43681 111.153 1.34953 111.101 1.28902C110.545 0.635781 109.915 0.191044 109.186 0.0413125C109.071 0.0176496 108.955 0.00543087 108.837 0.00155207C108.811 0.000775575 108.785 0.000194124 108.759 0.000194124C107.956 0.000388248 104.42 0.000194124 103.759 0C103.738 0 103.717 0.000581451 103.696 0.00116382C104.609 0.109196 105.371 0.653625 106.033 1.5109Z" fill="white"/>
<path d="M116.805 0.577364C116.29 0.260444 115.722 0.0616408 115.105 0.00170898C114.989 0.00539458 114.872 0.0176133 114.758 0.0412753C111.967 0.614798 110.615 5.52164 109.351 9.89029C108.368 13.2949 107.421 16.4707 106.033 18.2696C105.371 19.1267 104.609 19.6714 103.696 19.7792C103.717 19.7796 103.738 19.7804 103.759 19.7804C104.42 19.7804 107.956 19.7799 108.759 19.7804C108.786 19.7804 108.813 19.7796 108.839 19.7788C108.955 19.7751 109.071 19.7629 109.186 19.7393C111.978 19.1655 113.329 14.2587 114.592 9.8901C115.576 6.48539 116.523 3.30959 117.912 1.51067C117.576 1.14061 117.208 0.825039 116.805 0.577364Z" fill="white"/>
</g>
<defs>
<clipPath id="clip0_1780_2192">
<rect width="124.878" height="20" fill="white" transform="translate(0.914062)"/>
</clipPath>
</defs>
</svg>
