<svg width="60" height="20" viewBox="0 0 60 20" fill="none" xmlns="http://www.w3.org/2000/svg">
<path d="M7.54669 5.01855C3.419 5.01855 0.0782471 8.35931 0.0782471 12.487C0.0782471 16.6147 3.419 19.9554 7.54669 19.9554C11.6744 19.9554 15.0151 16.6147 15.0151 12.487C15.0151 8.35931 11.6744 5.01855 7.54669 5.01855ZM7.54669 16.2287C5.48285 16.2287 3.80505 14.5508 3.80505 12.487C3.80505 10.4232 5.48285 8.74536 7.54669 8.74536C9.61054 8.74536 11.2883 10.4232 11.2883 12.487C11.2883 14.5508 9.61054 16.2287 7.54669 16.2287Z" fill="white"/>
<path d="M20.6721 14.9963C20.6721 14.4024 21.3848 14.1203 21.8006 14.536C23.6714 16.4365 26.7597 19.703 26.7746 19.7179C26.8191 19.7624 26.8637 19.8367 27.0418 19.8961C27.1161 19.9258 27.2349 19.9258 27.3685 19.9258H30.7389C31.3477 19.9258 31.5259 19.2279 31.2438 18.8716L25.661 13.1552L25.364 12.8582C24.7256 12.101 24.7998 11.804 25.5274 11.0319L29.952 6.0876C30.2341 5.73125 30.0559 5.04825 29.4323 5.04825H26.3737C26.2549 5.04825 26.1658 5.04825 26.0767 5.07795C25.8986 5.13734 25.8243 5.19673 25.7798 5.25612C25.7649 5.27097 23.315 7.91388 21.8006 9.53229C21.3848 9.97773 20.6424 9.68077 20.6424 9.07201V0.593912C20.6424 0.163326 20.2861 0 20.004 0H17.5095C17.079 0 16.8711 0.282108 16.8711 0.534521V19.3318C16.8711 19.7624 17.2274 19.8812 17.5244 19.8812H20.0188C20.4049 19.8812 20.6573 19.5991 20.6573 19.317V19.124V14.9963H20.6721Z" fill="white"/>
<path d="M41.0434 19.2428L40.7761 16.7483C40.7464 16.4068 40.4198 16.1693 40.0783 16.2287C39.8853 16.2584 39.6922 16.2732 39.4992 16.2732C37.5096 16.2732 35.8912 14.7142 35.7724 12.7394C35.7724 12.68 35.7724 12.6058 35.7724 12.5316V9.4729C35.7724 9.07201 36.0694 8.74536 36.4703 8.74536H39.811C40.0486 8.74536 40.4049 8.53749 40.4049 8.1069V5.7461C40.4049 5.28582 40.108 5.04826 39.8407 5.04826H36.4703C36.0842 5.04826 35.7724 4.76615 35.7576 4.3801V0.593912C35.7576 0.356347 35.5794 0 35.1191 0H32.6395C32.3277 0 32.0308 0.193022 32.0308 0.579065C32.0308 0.579065 32.0308 12.68 32.0308 12.7394C32.1347 16.778 35.4458 20 39.4992 20C39.8407 20 40.1674 19.9703 40.494 19.9258C40.8504 19.8812 41.0879 19.5843 41.0434 19.2428Z" fill="white"/>
<path d="M59.0389 16.1101C56.9305 16.1101 56.6038 15.3528 56.6038 12.5169C56.6038 12.5021 56.6038 12.502 56.6038 12.4872V5.67206C56.6038 5.43449 56.4257 5.0336 55.9505 5.0336H53.4561C53.1443 5.0336 52.8028 5.28601 52.8028 5.67206V5.98386C51.7189 5.36025 50.4568 5.00391 49.1205 5.00391C44.9929 5.00391 41.6521 8.34466 41.6521 12.4724C41.6521 16.6 44.9929 19.9408 49.1205 19.9408C50.9765 19.9408 52.6692 19.2578 53.9758 18.1442C54.6736 19.2133 55.8021 19.926 57.569 19.9408C57.8659 19.9408 59.4695 20.0002 59.4695 19.243V16.5852C59.4695 16.3625 59.2913 16.1101 59.0389 16.1101ZM49.1354 16.2289C47.0715 16.2289 45.3937 14.551 45.3937 12.4872C45.3937 10.4234 47.0715 8.74555 49.1354 8.74555C51.1992 8.74555 52.877 10.4234 52.877 12.4872C52.8622 14.551 51.1844 16.2289 49.1354 16.2289Z" fill="white"/>
</svg>
