<svg width="55" height="20" viewBox="0 0 55 20" fill="none" xmlns="http://www.w3.org/2000/svg">
<path d="M6.91397 5.29968C3.09273 5.29968 0 8.4157 0 12.2657C0 16.1157 3.09273 19.2317 6.91397 19.2317C10.7352 19.2317 13.8279 16.1157 13.8279 12.2657C13.8279 8.4157 10.7352 5.29968 6.91397 5.29968ZM6.91397 15.7557C5.00335 15.7557 3.45011 14.1907 3.45011 12.2657C3.45011 10.3407 5.00335 8.77577 6.91397 8.77577C8.82459 8.77577 10.3778 10.3407 10.3778 12.2657C10.3778 14.1907 8.82459 15.7557 6.91397 15.7557Z" fill="#007DC1"/>
<path d="M19.0657 14.606C19.0657 14.052 19.7255 13.7889 20.1104 14.1767C21.8423 15.9493 24.7014 18.9961 24.7151 19.01C24.7563 19.0515 24.7976 19.1208 24.9625 19.1762C25.0313 19.2039 25.1412 19.2038 25.2649 19.2038H28.3851C28.9487 19.2038 29.1137 18.5529 28.8525 18.2206L23.6842 12.8887L23.4093 12.6117C22.8182 11.9054 22.887 11.6285 23.5605 10.9083L27.6566 6.29661C27.9178 5.96423 27.7529 5.32718 27.1755 5.32718H24.344C24.234 5.32718 24.1515 5.32718 24.0691 5.35488C23.9041 5.41027 23.8354 5.46567 23.7942 5.52107C23.7804 5.53492 21.5124 8.00003 20.1104 9.50957C19.7255 9.92504 19.0382 9.64806 19.0382 9.08025V1.17249C19.0382 0.770869 18.7083 0.61853 18.4472 0.61853H16.1379C15.7393 0.61853 15.5469 0.881661 15.5469 1.11709V18.6499C15.5469 19.0515 15.8768 19.1623 16.1517 19.1623H18.4609C18.8183 19.1623 19.052 18.8992 19.052 18.636V18.456V14.606H19.0657Z" fill="#007DC1"/>
<path d="M37.9236 18.5668L37.6762 16.2402C37.6487 15.9216 37.3463 15.7001 37.0301 15.7555C36.8514 15.7832 36.6727 15.797 36.4941 15.797C34.6522 15.797 33.1539 14.3429 33.0439 12.5009C33.0439 12.4456 33.0439 12.3763 33.0439 12.3071V9.45417C33.0439 9.08025 33.3188 8.77558 33.69 8.77558H36.7827C37.0026 8.77558 37.3325 8.58169 37.3325 8.18007V5.97808C37.3325 5.54876 37.0576 5.32718 36.8102 5.32718H33.69C33.3326 5.32718 33.0439 5.06405 33.0302 4.70398V1.17249C33.0302 0.950906 32.8652 0.61853 32.4391 0.61853H30.1436C29.855 0.61853 29.5801 0.798567 29.5801 1.15864C29.5801 1.15864 29.5801 12.4456 29.5801 12.5009C29.6763 16.2679 32.7415 19.2731 36.4941 19.2731C36.8102 19.2731 37.1126 19.2454 37.415 19.2038C37.7449 19.1623 37.9648 18.8853 37.9236 18.5668Z" fill="#007DC1"/>
<path d="M54.5823 15.6446C52.6304 15.6446 52.328 14.9383 52.328 12.2931C52.328 12.2793 52.328 12.2793 52.328 12.2654V5.90873C52.328 5.68714 52.1631 5.31322 51.7232 5.31322H49.414C49.1253 5.31322 48.8092 5.54865 48.8092 5.90873V6.19955C47.8058 5.6179 46.6374 5.28552 45.4003 5.28552C41.5791 5.28552 38.4863 8.40154 38.4863 12.2516C38.4863 16.1016 41.5791 19.2176 45.4003 19.2176C47.1185 19.2176 48.6855 18.5805 49.8951 17.5419C50.5411 18.539 51.5858 19.2037 53.2215 19.2176C53.4964 19.2176 54.9809 19.273 54.9809 18.5667V16.0877C54.9809 15.88 54.816 15.6446 54.5823 15.6446ZM45.414 15.7553C43.5034 15.7553 41.9502 14.1904 41.9502 12.2654C41.9502 10.3404 43.5034 8.77546 45.414 8.77546C47.3247 8.77546 48.8779 10.3404 48.8779 12.2654C48.8642 14.1904 47.3109 15.7553 45.414 15.7553Z" fill="#007DC1"/>
</svg>
