<svg width="106" height="20" viewBox="0 0 106 20" fill="none" xmlns="http://www.w3.org/2000/svg">
<g clip-path="url(#clip0_1780_2251)">
<path d="M69.9507 17.2743C71.338 17.3077 72.6752 16.7893 73.678 15.8195L75.5166 17.8094C74.2965 19.0635 72.6083 19.9999 69.9841 19.9999C65.4712 19.9999 62.5629 17.0067 62.5629 12.9601C62.5629 8.94685 65.6217 5.92022 69.5663 5.92022C74.0457 5.92022 76.5696 9.33145 76.3523 14.047H65.7888C66.1565 16.0201 67.5438 17.2743 69.9507 17.2743ZM73.1599 11.8063C72.8757 9.98359 71.7893 8.62914 69.5997 8.62914C67.5605 8.62914 66.1565 9.78293 65.7888 11.8063H73.1599ZM0.535645 17.1238L8.67558 8.84652H0.719503V6.25465H12.4363V8.9134L4.31311 17.1739H12.5533V19.7658H0.535645V17.1238ZM21.6794 17.2743C23.0667 17.3077 24.4039 16.7893 25.4067 15.8195L27.2453 17.8094C26.0252 19.0635 24.337 19.9999 21.7128 19.9999C17.2167 19.9999 14.2916 17.0067 14.2916 12.9601C14.2916 8.94685 17.3504 5.92022 21.295 5.92022C25.7744 5.92022 28.2983 9.33145 28.081 14.047H17.5175C17.9019 16.0201 19.2725 17.2743 21.6794 17.2743ZM24.9053 11.8063C24.6211 9.98359 23.5347 8.62914 21.3451 8.62914C19.306 8.62914 17.9019 9.78293 17.5342 11.8063H24.9053ZM45.6646 12.9768C45.6646 8.64586 48.8905 5.95366 52.4507 5.95366C54.2391 5.95366 55.944 6.73958 56.9469 7.97699V0.000732422H59.8218V19.7324H56.9469V17.8595C55.9106 19.1805 54.2057 19.9999 52.4173 19.9999C48.9741 19.9999 45.6646 17.2743 45.6646 12.9768ZM57.114 12.9433C57.114 10.5354 55.2921 8.56225 52.8351 8.56225C50.4282 8.56225 48.5562 10.4852 48.5562 12.9433C48.5562 15.4014 50.4282 17.3411 52.8351 17.3411C55.2921 17.3579 57.114 15.3847 57.114 12.9433ZM78.2243 16.8562L80.8318 15.5018C81.5338 16.7559 82.871 17.5084 84.3084 17.4749C85.9297 17.4749 86.7821 16.6388 86.7821 15.6857C86.7821 14.5988 85.211 14.3647 83.5061 14.0135C81.1995 13.5286 78.8093 12.7761 78.8093 9.98359C78.8093 7.84321 80.8485 5.87005 84.041 5.9035C86.5649 5.9035 88.4369 6.9068 89.4899 8.5288L87.0663 9.86654C86.4479 8.9134 85.3781 8.32814 84.0243 8.32814C82.4698 8.32814 81.6842 9.08062 81.6842 9.95015C81.6842 10.92 82.9378 11.1876 84.8934 11.6223C87.1164 12.1073 89.6403 12.843 89.6403 15.6523C89.6403 17.5251 88.019 20.0333 84.158 19.9999C81.3499 19.9999 79.3609 18.8628 78.2243 16.8562ZM97.446 13.7293L95.1728 16.2208V19.7324H92.2979V0.000732422H95.1728V12.9099L101.274 6.22121H104.767L99.4851 12.0069L104.917 19.7324H101.658L97.446 13.7293ZM36.9731 5.93694C33.5467 5.93694 30.6885 8.16093 30.6885 11.823V19.7324H33.6302V12.2076C33.6302 9.98359 34.9005 8.66258 37.0734 8.66258C39.2463 8.66258 40.3327 9.98359 40.3327 12.2076V19.7324H43.2577V11.8397C43.2577 8.16093 40.3996 5.93694 36.9731 5.93694Z" fill="white"/>
<path d="M103.965 4.46505C104.366 4.06373 105.034 4.06373 105.435 4.46505C105.837 4.86637 105.837 5.53524 105.435 5.93657C105.034 6.33789 104.366 6.33789 103.965 5.93657C103.547 5.53524 103.547 4.8831 103.965 4.46505ZM105.252 5.76935C105.552 5.45164 105.536 4.94998 105.235 4.64899C104.917 4.348 104.416 4.36472 104.115 4.66571C103.814 4.98343 103.814 5.46836 104.132 5.76935C104.449 6.08706 104.951 6.07034 105.252 5.76935ZM104.784 4.53194L105.101 4.84965C105.302 5.05031 105.302 5.28442 105.168 5.41819C105.068 5.53524 104.901 5.56869 104.767 5.5018L104.667 5.90312L104.449 5.68574L104.6 5.13392L104.683 5.21753C104.733 5.28442 104.85 5.30114 104.917 5.25097L104.934 5.23425C105.001 5.16737 104.984 5.05031 104.917 5.00015L104.901 4.98343L104.784 4.86637L104.199 5.45163L104.015 5.2677L104.784 4.53194Z" fill="white"/>
</g>
<defs>
<clipPath id="clip0_1780_2251">
<rect width="105.217" height="20" fill="white" transform="translate(0.535645)"/>
</clipPath>
</defs>
</svg>
