<svg width="95" height="20" viewBox="0 0 95 20" fill="none" xmlns="http://www.w3.org/2000/svg">
<path fill-rule="evenodd" clip-rule="evenodd" d="M77.3648 5.99748C77.7258 6.58442 77.8439 7.25221 77.8829 8.00294L77.9342 9.00357V16.0006L77.9865 17.0023C78.0913 18.6382 79.3715 19.8478 81.1209 19.9507L82.1783 20V9.00357L82.2306 8.00294C82.2741 7.26061 82.3911 6.58022 82.7577 5.98908C83.1312 5.38276 83.6675 4.8797 84.3126 4.53044C84.9577 4.18117 85.6889 3.99797 86.4329 3.99925C87.1769 4.00053 87.9075 4.18623 88.5512 4.53771C89.195 4.88919 89.7293 5.39408 90.1005 6.00168C90.4615 6.58862 90.574 7.26901 90.6175 8.00294L90.6698 9.00042V16.0006L90.7222 17.0023C90.8314 18.6466 92.1016 19.8562 93.8565 19.9507L94.9139 20V8.00294C94.9139 5.88153 94.0199 3.84697 92.4283 2.34661C90.8368 0.846249 88.6781 0.00293754 86.4268 0.00210234C85.2219 0.000904956 84.0306 0.242028 82.9325 0.709362C81.8344 1.1767 80.8547 1.85948 80.059 2.7121C79.2629 1.85982 78.2832 1.1772 77.1852 0.709724C76.0872 0.242252 74.896 0.000661936 73.6912 0.00105238C71.9285 0.00105238 70.2928 0.505042 68.9379 1.37547C68.1111 0.506092 66.2615 0.00105238 65.1996 0.00105238V20L66.2615 19.9507C68.0376 19.8404 69.3212 18.6634 69.3902 17.0023L69.4471 16.0006V9.00357L69.4994 8.00294C69.544 7.24801 69.6554 6.58442 70.0175 5.99328C70.3914 5.38733 70.9274 4.8844 71.572 4.5347C72.2167 4.18501 72.9474 4.00078 73.6912 4.00042C74.4356 4.00057 75.1668 4.18517 75.8116 4.53568C76.4564 4.8862 76.992 5.39032 77.3648 5.99748ZM4.71359 19.9517L5.77545 20H21.6922L21.6399 19.0025C21.4961 17.3583 20.2605 16.1571 18.51 16.05L17.4481 16.0006H7.89917L20.6304 3.99937L20.578 3.00294C20.4956 1.34188 19.2075 0.14175 17.4481 0.0504014L16.3863 0.0052523L0.469482 0.00105238L0.521851 1.00168C0.66113 2.6302 1.91464 3.85658 3.65061 3.95107L4.71359 4.00042H14.2625L1.53134 16.0017L1.58371 17.0023C1.68845 18.6508 2.95087 19.8446 4.71359 19.9507V19.9517ZM61.0335 2.92839C62.0191 3.85691 62.8008 4.95928 63.3342 6.17255C63.8676 7.38582 64.1421 8.68622 64.1421 9.99948C64.1421 11.3127 63.8676 12.6131 63.3342 13.8264C62.8008 15.0397 62.0191 16.142 61.0335 17.0706C59.0424 18.9454 56.3428 19.9985 53.528 19.9985C50.7133 19.9985 48.0137 18.9454 46.0226 17.0706C41.8788 13.1657 41.8788 6.83327 46.0226 2.92839C47.0072 2.00019 48.1763 1.26383 49.4629 0.761379C50.7495 0.258924 52.1286 0.000207119 53.5214 2.41097e-06C54.9164 -0.000910342 56.2979 0.25735 57.5869 0.760012C58.8759 1.26267 60.0471 1.99987 61.0335 2.92944V2.92839ZM58.0307 5.76019C59.2242 6.88579 59.8947 8.41192 59.8947 10.0032C59.8947 11.5944 59.2242 13.1205 58.0307 14.2461C56.8362 15.3709 55.2167 16.0027 53.528 16.0027C51.8394 16.0027 50.2199 15.3709 49.0254 14.2461C47.8319 13.1205 47.1614 11.5944 47.1614 10.0032C47.1614 8.41192 47.8319 6.88579 49.0254 5.76019C50.2199 4.63544 51.8394 4.00363 53.528 4.00363C55.2167 4.00363 56.8362 4.63544 58.0307 5.76019ZM31.2501 2.41097e-06C32.6429 0.000344986 34.0221 0.259227 35.3087 0.761864C36.5954 1.2645 37.7643 2.00105 38.7489 2.92944C42.8938 6.83327 42.8938 13.1667 38.7489 17.0706C36.7578 18.9454 34.0582 19.9985 31.2434 19.9985C28.4287 19.9985 25.7291 18.9454 23.738 17.0706C19.5941 13.1657 19.5941 6.83327 23.738 2.92839C24.7226 2.00019 25.8916 1.26383 27.1783 0.761379C28.4649 0.258924 29.844 0.000207119 31.2367 2.41097e-06H31.2501ZM35.746 5.75809C36.94 6.88373 37.6106 8.41008 37.6106 10.0016C37.6106 11.5931 36.94 13.1194 35.746 14.2451C34.5516 15.3698 32.932 16.0016 31.2434 16.0016C29.5548 16.0016 27.9353 15.3698 26.7408 14.2451C25.5472 13.1195 24.8768 11.5933 24.8768 10.0021C24.8768 8.41087 25.5472 6.88474 26.7408 5.75914C27.9353 4.63439 29.5548 4.00258 31.2434 4.00258C32.932 4.00258 34.5516 4.63439 35.746 5.75914V5.75809Z" fill="white"/>
</svg>
